<?xml version="1.0" standalone="no"?>
<!DOCTYPE svg PUBLIC "-//W3C//DTD SVG 1.1//EN" "http://www.w3.org/Graphics/SVG/1.1/DTD/svg11.dtd" >
<svg xmlns="http://www.w3.org/2000/svg" xmlns:xlink="http://www.w3.org/1999/xlink" version="1.1">
<metadata>
Created by FontForge 20170812 at Mon May 14 14:00:06 2018
 By www-data
Copyright \(c\) 2015, 2018 by Jakob Runge, under exclusive license to TypeMates. All rights reserved.
</metadata>
<defs>
<font id="CeraPro-Regular" horiz-adv-x="560" >
  <font-face 
    font-family="Cera Pro"
    font-weight="400"
    font-stretch="normal"
    units-per-em="1000"
    panose-1="0 0 5 0 0 0 0 0 0 0"
    ascent="808"
    descent="-192"
    x-height="487"
    cap-height="660"
    bbox="-444 -242 1303 1000"
    underline-thickness="65"
    underline-position="-100"
    stemh="66"
    stemv="77"
    unicode-range="U+0020-FB02"
  />
<missing-glyph horiz-adv-x="707" 
d="M91 660h525v-660h-525v660zM558 52v555h-411z" />
    <glyph glyph-name="fi" unicode="fi" horiz-adv-x="564" 
d="M97 603c0 111 67 158 161 158c24 0 43 -3 61 -8v-65c-16 2 -30 3 -43 3c-60 0 -102 -20 -102 -93v-111h122v-69h-122v-418h-77v418h-70v69h70v116zM442 729c31 0 57 -25 57 -56c0 -32 -26 -56 -57 -56c-32 0 -58 24 -58 56c0 31 26 56 58 56zM403 0v487h77v-487h-77z" />
    <glyph glyph-name="fl" unicode="fl" horiz-adv-x="564" 
d="M97 603c0 111 67 158 161 158c24 0 43 -3 61 -8v-65c-16 2 -30 3 -43 3c-60 0 -102 -20 -102 -93v-111h122v-69h-122v-418h-77v418h-70v69h70v116zM403 750h77v-750h-77v750z" />
    <glyph glyph-name=".notdef" horiz-adv-x="707" 
d="M91 660h525v-660h-525v660zM558 52v555h-411z" />
    <glyph glyph-name="A" unicode="A" horiz-adv-x="663" 
d="M549 0l-56 134h-324l-56 -134h-82l286 671h29l286 -671h-83zM463 204l-132 325l-132 -325h264z" />
    <glyph glyph-name="B" unicode="B" horiz-adv-x="616" 
d="M443 363c82 -24 129 -88 129 -173c0 -109 -78 -190 -209 -190h-272v660h227c117 0 188 -71 188 -167c0 -55 -23 -100 -63 -130zM310 590h-141v-205h141c77 0 116 42 116 103s-38 102 -116 102zM355 70c89 0 137 50 137 122c0 71 -48 122 -137 122h-186v-244h186z" />
    <glyph glyph-name="C" unicode="C" horiz-adv-x="715" 
d="M391 -11c-191 0 -343 148 -343 341s152 341 343 341c120 0 219 -58 274 -142l-58 -46c-49 72 -123 116 -215 116c-149 0 -263 -115 -263 -269s114 -269 263 -269c92 0 166 44 215 116l58 -46c-53 -84 -154 -142 -274 -142z" />
    <glyph glyph-name="D" unicode="D" horiz-adv-x="694" 
d="M91 0v660h196c224 0 359 -137 359 -329c0 -189 -135 -331 -359 -331h-196zM169 70h117c177 0 279 113 279 261c0 151 -102 259 -279 259h-117v-520z" />
    <glyph glyph-name="E" unicode="E" horiz-adv-x="566" 
d="M91 0v660h423v-70h-345v-202h264v-70h-264v-248h357v-70h-435z" />
    <glyph glyph-name="F" unicode="F" horiz-adv-x="524" 
d="M91 0v660h413v-70h-335v-227h278v-71h-278v-292h-78z" />
    <glyph glyph-name="G" unicode="G" horiz-adv-x="746" 
d="M391 -11c-193 0 -343 149 -343 341c0 193 151 341 343 341c113 0 208 -51 269 -135l-59 -46c-49 68 -120 109 -210 109c-153 0 -262 -116 -262 -268c0 -154 111 -272 266 -272c99 0 176 49 220 118v89h-225v70h303v-176c-58 -102 -170 -171 -302 -171z" />
    <glyph glyph-name="H" unicode="H" horiz-adv-x="708" 
d="M91 0v660h78v-272h370v272h78v-660h-78v318h-370v-318h-78z" />
    <glyph glyph-name="I" unicode="I" horiz-adv-x="259" 
d="M91 0v660h78v-660h-78z" />
    <glyph glyph-name="J" unicode="J" horiz-adv-x="373" 
d="M111 -11c-32 0 -61 5 -87 11v67c27 -4 50 -6 72 -6c65 0 109 20 109 99v500h78v-507c0 -115 -71 -164 -172 -164z" />
    <glyph glyph-name="K" unicode="K" horiz-adv-x="633" 
d="M91 0v660h78v-660h-78zM280 354l322 -354h-99l-325 354l297 306h100z" />
    <glyph glyph-name="L" unicode="L" horiz-adv-x="506" 
d="M91 0v660h78v-590h313v-70h-391z" />
    <glyph glyph-name="M" unicode="M" horiz-adv-x="789" 
d="M671 671h27v-671h-78v473l-211 -286h-28l-212 288v-475h-78v671h28l275 -381z" />
    <glyph glyph-name="N" unicode="N" horiz-adv-x="708" 
d="M539 660h78v-671h-28l-420 506v-495h-78v671h28l420 -507v496z" />
    <glyph glyph-name="O" unicode="O" horiz-adv-x="781" 
d="M390 -11c-191 0 -342 149 -342 341c0 193 152 341 342 341c189 0 343 -148 343 -341s-154 -341 -343 -341zM391 61c149 0 261 116 261 270c0 152 -112 268 -261 268c-151 0 -262 -115 -262 -268c0 -154 111 -270 262 -270z" />
    <glyph glyph-name="P" unicode="P" horiz-adv-x="573" 
d="M91 0v660h232c130 0 211 -80 211 -191c0 -112 -81 -193 -211 -193h-154v-276h-78zM169 346h152c87 0 132 51 132 122c0 70 -45 122 -132 122h-152v-244z" />
    <glyph glyph-name="Q" unicode="Q" horiz-adv-x="781" 
d="M944 -136c28 0 63 2 96 5v-62c-33 -6 -67 -10 -106 -10c-173 0 -314 76 -414 217c-40 -16 -84 -25 -130 -25c-191 0 -342 149 -342 341c0 193 152 341 342 341c189 0 343 -148 343 -341c0 -120 -59 -222 -149 -283c92 -121 206 -183 360 -183zM129 331
c0 -154 112 -270 262 -270c149 0 261 116 261 269s-111 269 -262 269c-150 0 -261 -115 -261 -268z" />
    <glyph glyph-name="R" unicode="R" horiz-adv-x="622" 
d="M606 0h-91l-205 277h-141v-277h-78v660h232c130 0 211 -80 211 -191c0 -89 -52 -158 -139 -183zM169 590v-243h151c87 0 133 50 133 121c0 70 -46 122 -133 122h-151z" />
    <glyph glyph-name="S" unicode="S" horiz-adv-x="558" 
d="M284 -11c-105 0 -192 55 -243 142l58 43c40 -61 99 -113 184 -113c78 0 133 43 133 110c0 61 -45 85 -110 116l-74 35c-69 33 -149 79 -149 177c0 105 92 172 199 172c90 0 166 -47 207 -112l-57 -43c-36 53 -91 83 -151 83c-61 0 -117 -31 -117 -96
c0 -60 46 -82 106 -111l73 -35c96 -46 154 -94 154 -184c0 -111 -91 -184 -213 -184z" />
    <glyph glyph-name="T" unicode="T" horiz-adv-x="581" 
d="M251 0v590h-232v70h543v-70h-233v-590h-78z" />
    <glyph glyph-name="U" unicode="U" horiz-adv-x="689" 
d="M345 -11c-152 0 -263 97 -263 273v398h78v-403c0 -133 82 -196 185 -196c102 0 183 63 183 196v403h78v-398c0 -176 -112 -273 -261 -273z" />
    <glyph glyph-name="V" unicode="V" horiz-adv-x="663" 
d="M546 660h86l-286 -671h-29l-286 671h86l215 -518z" />
    <glyph glyph-name="W" unicode="W" horiz-adv-x="1066" 
d="M935 660h85l-250 -671h-28l-209 524l-209 -524h-28l-251 671h86l182 -503l206 514h28l206 -513z" />
    <glyph glyph-name="X" unicode="X" horiz-adv-x="599" 
d="M569 0h-91l-178 271l-179 -271h-91l227 338l-211 322h90l164 -257l163 257h90l-208 -323z" />
    <glyph glyph-name="Y" unicode="Y" horiz-adv-x="616" 
d="M576 660l-229 -387v-273h-78v273l-229 387h88l180 -310l181 310h87z" />
    <glyph glyph-name="Z" unicode="Z" horiz-adv-x="589" 
d="M154 70h401v-70h-523v23l398 567h-355v70h479v-23z" />
    <glyph glyph-name="Aacute" unicode="&#xc1;" horiz-adv-x="663" 
d="M482 896l-120 -172h-59l85 186h94v-14zM549 0l-56 134h-324l-56 -134h-82l286 671h29l286 -671h-83zM463 204l-132 325l-132 -325h264z" />
    <glyph glyph-name="Abreve" unicode="&#x102;" horiz-adv-x="663" 
d="M331 726c-91 0 -151 63 -151 159v25h63v-24c0 -60 35 -99 88 -99c55 0 89 38 89 99v24h63v-25c0 -94 -62 -159 -152 -159zM549 0l-56 134h-324l-56 -134h-82l286 671h29l286 -671h-83zM463 204l-132 325l-132 -325h264z" />
    <glyph glyph-name="Acircumflex" unicode="&#xc2;" horiz-adv-x="663" 
d="M332 832l-111 -108h-60l147 186h47l147 -186h-60zM549 0l-56 134h-324l-56 -134h-82l286 671h29l286 -671h-83zM463 204l-132 325l-132 -325h264z" />
    <glyph glyph-name="Adieresis" unicode="&#xc4;" horiz-adv-x="663" 
d="M215 757c-28 0 -55 23 -55 53s27 53 55 53c31 0 55 -23 55 -53s-24 -53 -55 -53zM448 756c-29 0 -55 24 -55 53c0 30 26 54 55 54c30 0 55 -24 55 -54c0 -29 -25 -53 -55 -53zM549 0l-56 134h-324l-56 -134h-82l286 671h29l286 -671h-83zM463 204l-132 325l-132 -325h264
z" />
    <glyph glyph-name="Agrave" unicode="&#xc0;" horiz-adv-x="663" 
d="M362 724h-59l-120 172v14h94zM549 0l-56 134h-324l-56 -134h-82l286 671h29l286 -671h-83zM463 204l-132 325l-132 -325h264z" />
    <glyph glyph-name="Amacron" unicode="&#x100;" horiz-adv-x="663" 
d="M480 833v-63h-295v63h295zM549 0l-56 134h-324l-56 -134h-82l286 671h29l286 -671h-83zM463 204l-132 325l-132 -325h264z" />
    <glyph glyph-name="Aogonek" unicode="&#x104;" horiz-adv-x="663" 
d="M531 -92c0 -24 17 -37 48 -37c15 0 35 3 54 7v-58c-19 -6 -47 -11 -72 -11c-63 0 -107 34 -107 87c0 40 26 70 93 109l-54 129h-324l-56 -134h-82l286 671h29l285 -669l2 -2l-50 -33c-30 -20 -52 -33 -52 -59zM463 204l-132 325l-132 -325h264z" />
    <glyph glyph-name="Aring" unicode="&#xc5;" horiz-adv-x="663" 
d="M331 698c-63 0 -110 48 -110 108s47 108 110 108c64 0 111 -48 111 -108s-47 -108 -111 -108zM332 857c-29 0 -51 -22 -51 -51s23 -50 51 -50c27 0 50 21 50 50s-22 51 -50 51zM549 0l-56 134h-324l-56 -134h-82l286 671h29l286 -671h-83zM463 204l-132 325l-132 -325
h264z" />
    <glyph glyph-name="Atilde" unicode="&#xc3;" horiz-adv-x="663" 
d="M233 752h-64c-1 7 -2 15 -2 25c0 57 34 101 87 101c23 0 48 -9 70 -23l34 -22c17 -11 28 -20 44 -20c20 0 30 16 30 37v18h64c1 -8 1 -17 1 -26c0 -56 -33 -100 -85 -100c-23 0 -50 10 -73 24l-33 20c-16 10 -30 20 -43 20c-20 0 -30 -18 -30 -38v-16zM549 0l-56 134
h-324l-56 -134h-82l286 671h29l286 -671h-83zM463 204l-132 325l-132 -325h264z" />
    <glyph glyph-name="AE" unicode="&#xc6;" horiz-adv-x="821" 
d="M535 70h246v-70h-314l-23 134h-276l-71 -134h-84l344 660h412v-70h-322l34 -202h208v-70h-196zM377 541l-172 -337h227z" />
    <glyph glyph-name="AEacute" unicode="&#x1fc;" horiz-adv-x="821" 
d="M567 896l-120 -172h-59l85 186h94v-14zM535 70h246v-70h-314l-23 134h-276l-71 -134h-84l344 660h412v-70h-322l34 -202h208v-70h-196zM377 541l-172 -337h227z" />
    <glyph glyph-name="Cacute" unicode="&#x106;" horiz-adv-x="715" 
d="M362 724l85 186h94v-14l-120 -172h-59zM391 -11c-191 0 -343 148 -343 341s152 341 343 341c120 0 219 -58 274 -142l-58 -46c-49 72 -123 116 -215 116c-149 0 -263 -115 -263 -269s114 -269 263 -269c92 0 166 44 215 116l58 -46c-53 -84 -154 -142 -274 -142z" />
    <glyph glyph-name="Ccaron" unicode="&#x10c;" horiz-adv-x="715" 
d="M414 724h-47l-147 186h60l111 -108l110 108h60zM392 61c92 0 166 44 215 116l58 -46c-53 -84 -154 -142 -274 -142c-191 0 -343 148 -343 341s152 341 343 341c120 0 219 -58 274 -142l-58 -46c-49 72 -123 116 -215 116c-149 0 -263 -115 -263 -269s114 -269 263 -269z
" />
    <glyph glyph-name="Ccedilla" unicode="&#xc7;" horiz-adv-x="715" 
d="M392 61c92 0 166 44 215 116l58 -46c-45 -71 -123 -123 -219 -138c16 -18 25 -42 25 -69c0 -63 -48 -115 -132 -115c-23 0 -47 4 -68 10v55c23 -3 45 -4 56 -4c44 0 78 19 78 65c0 21 -7 39 -17 54c-190 2 -340 149 -340 341c0 193 152 341 343 341
c120 0 219 -58 274 -142l-58 -46c-49 72 -123 116 -215 116c-149 0 -263 -115 -263 -269s114 -269 263 -269z" />
    <glyph glyph-name="Ccircumflex" unicode="&#x108;" horiz-adv-x="715" 
d="M391 832l-111 -108h-60l147 186h47l147 -186h-60zM392 61c92 0 166 44 215 116l58 -46c-53 -84 -154 -142 -274 -142c-191 0 -343 148 -343 341s152 341 343 341c120 0 219 -58 274 -142l-58 -46c-49 72 -123 116 -215 116c-149 0 -263 -115 -263 -269s114 -269 263 -269
z" />
    <glyph glyph-name="Cdotaccent" unicode="&#x10a;" horiz-adv-x="715" 
d="M391 754c-32 0 -58 24 -58 56c0 31 26 56 58 56c31 0 57 -25 57 -56c0 -32 -26 -56 -57 -56zM391 -11c-191 0 -343 148 -343 341s152 341 343 341c120 0 219 -58 274 -142l-58 -46c-49 72 -123 116 -215 116c-149 0 -263 -115 -263 -269s114 -269 263 -269
c92 0 166 44 215 116l58 -46c-53 -84 -154 -142 -274 -142z" />
    <glyph glyph-name="Eth" unicode="&#xd0;" horiz-adv-x="694" 
d="M287 660c224 0 359 -137 359 -329c0 -189 -135 -331 -359 -331h-196v274h-95v66h95v320h196zM286 70c177 0 279 113 279 261c0 151 -102 259 -279 259h-117v-250h130v-66h-130v-204h117z" />
    <glyph glyph-name="Dcaron" unicode="&#x10e;" horiz-adv-x="694" 
d="M308 724h-47l-147 186h60l111 -108l110 108h60zM287 660c224 0 359 -137 359 -329c0 -189 -135 -331 -359 -331h-196v660h196zM286 70c177 0 279 113 279 261c0 151 -102 259 -279 259h-117v-520h117z" />
    <glyph glyph-name="Dcroat" unicode="&#x110;" horiz-adv-x="694" 
d="M287 660c224 0 359 -137 359 -329c0 -189 -135 -331 -359 -331h-196v274h-95v66h95v320h196zM286 70c177 0 279 113 279 261c0 151 -102 259 -279 259h-117v-250h130v-66h-130v-204h117z" />
    <glyph glyph-name="Eacute" unicode="&#xc9;" horiz-adv-x="566" 
d="M274 724l85 186h94v-14l-120 -172h-59zM91 0v660h423v-70h-345v-202h264v-70h-264v-248h357v-70h-435z" />
    <glyph glyph-name="Ebreve" unicode="&#x114;" horiz-adv-x="566" 
d="M302 726c-91 0 -151 63 -151 159v25h63v-24c0 -60 35 -99 88 -99c55 0 89 38 89 99v24h63v-25c0 -94 -62 -159 -152 -159zM91 0v660h423v-70h-345v-202h264v-70h-264v-248h357v-70h-435z" />
    <glyph glyph-name="Ecaron" unicode="&#x11a;" horiz-adv-x="566" 
d="M326 724h-47l-147 186h60l111 -108l110 108h60zM169 70h357v-70h-435v660h423v-70h-345v-202h264v-70h-264v-248z" />
    <glyph glyph-name="Ecircumflex" unicode="&#xca;" horiz-adv-x="566" 
d="M303 832l-111 -108h-60l147 186h47l147 -186h-60zM169 70h357v-70h-435v660h423v-70h-345v-202h264v-70h-264v-248z" />
    <glyph glyph-name="Edieresis" unicode="&#xcb;" horiz-adv-x="566" 
d="M186 757c-28 0 -55 23 -55 53s27 53 55 53c31 0 55 -23 55 -53s-24 -53 -55 -53zM419 756c-29 0 -55 24 -55 53c0 30 26 54 55 54c30 0 55 -24 55 -54c0 -29 -25 -53 -55 -53zM91 0v660h423v-70h-345v-202h264v-70h-264v-248h357v-70h-435z" />
    <glyph glyph-name="Edotaccent" unicode="&#x116;" horiz-adv-x="566" 
d="M303 754c-32 0 -58 24 -58 56c0 31 26 56 58 56c31 0 57 -25 57 -56c0 -32 -26 -56 -57 -56zM91 0v660h423v-70h-345v-202h264v-70h-264v-248h357v-70h-435z" />
    <glyph glyph-name="Egrave" unicode="&#xc8;" horiz-adv-x="566" 
d="M274 724l-120 172v14h94l85 -186h-59zM91 0v660h423v-70h-345v-202h264v-70h-264v-248h357v-70h-435z" />
    <glyph glyph-name="Emacron" unicode="&#x112;" horiz-adv-x="566" 
d="M156 770v63h295v-63h-295zM91 0v660h423v-70h-345v-202h264v-70h-264v-248h357v-70h-435z" />
    <glyph glyph-name="Eogonek" unicode="&#x118;" horiz-adv-x="566" 
d="M476 -33c-30 -20 -52 -33 -52 -59c0 -24 17 -37 48 -37c15 0 35 3 54 7v-58c-19 -6 -47 -11 -72 -11c-63 0 -107 34 -107 87c0 39 24 68 84 104h-340v660h423v-70h-345v-202h264v-70h-264v-248h357v-70z" />
    <glyph glyph-name="Gbreve" unicode="&#x11e;" horiz-adv-x="746" 
d="M392 726c-91 0 -151 63 -151 159v25h63v-24c0 -60 35 -99 88 -99c55 0 89 38 89 99v24h63v-25c0 -94 -62 -159 -152 -159zM391 -11c-193 0 -343 149 -343 341c0 193 151 341 343 341c113 0 208 -51 269 -135l-59 -46c-49 68 -120 109 -210 109
c-153 0 -262 -116 -262 -268c0 -154 111 -272 266 -272c99 0 176 49 220 118v89h-225v70h303v-176c-58 -102 -170 -171 -302 -171z" />
    <glyph glyph-name="Gcircumflex" unicode="&#x11c;" horiz-adv-x="746" 
d="M393 832l-111 -108h-60l147 186h47l147 -186h-60zM390 336h303v-176c-58 -102 -170 -171 -302 -171c-193 0 -343 149 -343 341c0 193 151 341 343 341c113 0 208 -51 269 -135l-59 -46c-49 68 -120 109 -210 109c-153 0 -262 -116 -262 -268c0 -154 111 -272 266 -272
c99 0 176 49 220 118v89h-225v70z" />
    <glyph glyph-name="uni0122" unicode="&#x122;" horiz-adv-x="746" 
d="M391 -11c-193 0 -343 149 -343 341c0 193 151 341 343 341c113 0 208 -51 269 -135l-59 -46c-49 68 -120 109 -210 109c-153 0 -262 -116 -262 -268c0 -154 111 -272 266 -272c99 0 176 49 220 118v89h-225v70h303v-176c-58 -102 -170 -171 -302 -171zM345 -220l9 171h76
l-25 -171h-60z" />
    <glyph glyph-name="Gdotaccent" unicode="&#x120;" horiz-adv-x="746" 
d="M393 754c-32 0 -58 24 -58 56c0 31 26 56 58 56c31 0 57 -25 57 -56c0 -32 -26 -56 -57 -56zM391 -11c-193 0 -343 149 -343 341c0 193 151 341 343 341c113 0 208 -51 269 -135l-59 -46c-49 68 -120 109 -210 109c-153 0 -262 -116 -262 -268c0 -154 111 -272 266 -272
c99 0 176 49 220 118v89h-225v70h303v-176c-58 -102 -170 -171 -302 -171z" />
    <glyph glyph-name="Hbar" unicode="&#x126;" horiz-adv-x="719" 
d="M95 0v460h-99v66h99v134h78v-134h371v134h78v-134h100v-66h-100v-460h-78v253h-371v-253h-78zM173 324h371v136h-371v-136z" />
    <glyph glyph-name="Hcircumflex" unicode="&#x124;" horiz-adv-x="708" 
d="M354 832l-111 -108h-60l147 186h47l147 -186h-60zM539 660h78v-660h-78v318h-370v-318h-78v660h78v-272h370v272z" />
    <glyph glyph-name="IJ" unicode="&#x132;" horiz-adv-x="633" 
d="M91 0v660h78v-660h-78zM370 -11c-32 0 -61 5 -87 11v67c27 -4 50 -6 72 -6c65 0 109 20 109 99v500h78v-507c0 -115 -71 -164 -172 -164z" />
    <glyph glyph-name="Iacute" unicode="&#xcd;" horiz-adv-x="259" 
d="M101 724l85 186h94v-14l-120 -172h-59zM91 0v660h78v-660h-78z" />
    <glyph glyph-name="Ibreve" unicode="&#x12c;" horiz-adv-x="259" 
d="M129 726c-91 0 -151 63 -151 159v25h63v-24c0 -60 35 -99 88 -99c55 0 89 38 89 99v24h63v-25c0 -94 -62 -159 -152 -159zM91 0v660h78v-660h-78z" />
    <glyph glyph-name="Icircumflex" unicode="&#xce;" horiz-adv-x="259" 
d="M153 910l147 -186h-60l-110 108l-111 -108h-60l147 186h47zM91 0v660h78v-660h-78z" />
    <glyph glyph-name="Idieresis" unicode="&#xcf;" horiz-adv-x="259" 
d="M13 757c-28 0 -55 23 -55 53s27 53 55 53c31 0 55 -23 55 -53s-24 -53 -55 -53zM246 756c-29 0 -55 24 -55 53c0 30 26 54 55 54c30 0 55 -24 55 -54c0 -29 -25 -53 -55 -53zM91 0v660h78v-660h-78z" />
    <glyph glyph-name="Idotaccent" unicode="&#x130;" horiz-adv-x="259" 
d="M130 754c-32 0 -58 24 -58 56c0 31 26 56 58 56c31 0 57 -25 57 -56c0 -32 -26 -56 -57 -56zM91 0v660h78v-660h-78z" />
    <glyph glyph-name="Igrave" unicode="&#xcc;" horiz-adv-x="259" 
d="M102 724l-120 172v14h94l85 -186h-59zM91 0v660h78v-660h-78z" />
    <glyph glyph-name="Imacron" unicode="&#x12a;" horiz-adv-x="259" 
d="M-18 770v63h296v-63h-296zM91 0v660h78v-660h-78z" />
    <glyph glyph-name="Iogonek" unicode="&#x12e;" horiz-adv-x="259" 
d="M119 -33c-30 -20 -52 -33 -52 -59c0 -24 17 -37 48 -37c15 0 35 3 54 7v-58c-19 -6 -47 -11 -72 -11c-63 0 -108 34 -108 87c0 42 29 73 102 114v650h78v-660z" />
    <glyph glyph-name="Itilde" unicode="&#x128;" horiz-adv-x="259" 
d="M210 742c-23 0 -50 10 -73 24l-33 20c-16 10 -30 20 -43 20c-20 0 -30 -18 -30 -38v-16h-64c-1 7 -2 15 -2 25c0 57 34 101 87 101c23 0 48 -9 70 -23l34 -22c17 -11 28 -20 44 -20c20 0 30 16 30 37v18h64c1 -8 1 -17 1 -26c0 -56 -33 -100 -85 -100zM91 0v660h78v-660
h-78z" />
    <glyph glyph-name="Jcircumflex" unicode="&#x134;" horiz-adv-x="373" 
d="M258 910l147 -186h-60l-110 108l-111 -108h-60l147 186h47zM205 160v500h78v-507c0 -115 -71 -164 -172 -164c-32 0 -61 5 -87 11v67c27 -4 50 -6 72 -6c65 0 109 20 109 99z" />
    <glyph glyph-name="uni0136" unicode="&#x136;" horiz-adv-x="633" 
d="M91 0v660h78v-660h-78zM280 354l322 -354h-99l-325 354l297 306h100zM256 -220l9 171h76l-25 -171h-60z" />
    <glyph glyph-name="Lacute" unicode="&#x139;" horiz-adv-x="506" 
d="M100 724l85 186h94v-14l-120 -172h-59zM91 0v660h78v-590h313v-70h-391z" />
    <glyph glyph-name="Lcaron" unicode="&#x13d;" horiz-adv-x="506" 
d="M363 509l13 211h83l-39 -211h-57zM91 0v660h78v-590h313v-70h-391z" />
    <glyph glyph-name="uni013B" unicode="&#x13b;" horiz-adv-x="506" 
d="M91 0v660h78v-590h313v-70h-391zM231 -220l9 171h76l-25 -171h-60z" />
    <glyph glyph-name="Ldot" unicode="&#x13f;" horiz-adv-x="506" 
d="M91 0v660h78v-590h313v-70h-391zM388 305c-34 0 -63 25 -63 63c0 37 29 63 63 63c35 0 63 -26 63 -63c0 -38 -28 -63 -63 -63z" />
    <glyph glyph-name="Lslash" unicode="&#x141;" horiz-adv-x="506" 
d="M169 70h313v-70h-391v254l-79 -35v72l79 35v334h78v-304l220 101v-74l-220 -100v-213z" />
    <glyph glyph-name="Nacute" unicode="&#x143;" horiz-adv-x="708" 
d="M504 896l-120 -172h-59l85 186h94v-14zM539 660h78v-671h-28l-420 506v-495h-78v671h28l420 -507v496z" />
    <glyph glyph-name="Ncaron" unicode="&#x147;" horiz-adv-x="708" 
d="M377 724h-47l-147 186h60l111 -108l110 108h60zM539 660h78v-671h-28l-420 506v-495h-78v671h28l420 -507v496z" />
    <glyph glyph-name="uni0145" unicode="&#x145;" horiz-adv-x="708" 
d="M539 660h78v-671h-28l-420 506v-495h-78v671h28l420 -507v496zM306 -220l9 171h76l-25 -171h-60z" />
    <glyph glyph-name="Eng" unicode="&#x14a;" horiz-adv-x="708" 
d="M539 660h78v-693c0 -111 -66 -158 -160 -158c-23 0 -43 3 -61 8v65c17 -2 29 -3 45 -3c59 0 98 21 98 93v41l-370 474v-487h-78v671h28l420 -540v529z" />
    <glyph glyph-name="Ntilde" unicode="&#xd1;" horiz-adv-x="708" 
d="M255 752h-64c-1 7 -2 15 -2 25c0 57 34 101 87 101c23 0 48 -9 70 -23l34 -22c17 -11 28 -20 44 -20c20 0 30 16 30 37v18h64c1 -8 1 -17 1 -26c0 -56 -33 -100 -85 -100c-23 0 -50 10 -73 24l-33 20c-16 10 -30 20 -43 20c-20 0 -30 -18 -30 -38v-16zM539 660h78v-671
h-28l-420 506v-495h-78v671h28l420 -507v496z" />
    <glyph glyph-name="Oacute" unicode="&#xd3;" horiz-adv-x="781" 
d="M362 724l85 186h94v-14l-120 -172h-59zM390 -11c-191 0 -342 149 -342 341c0 193 152 341 342 341c189 0 343 -148 343 -341s-154 -341 -343 -341zM391 61c149 0 261 116 261 270c0 152 -112 268 -261 268c-151 0 -262 -115 -262 -268c0 -154 111 -270 262 -270z" />
    <glyph glyph-name="Obreve" unicode="&#x14e;" horiz-adv-x="781" 
d="M390 726c-91 0 -151 63 -151 159v25h63v-24c0 -60 35 -99 88 -99c55 0 89 38 89 99v24h63v-25c0 -94 -62 -159 -152 -159zM390 -11c-191 0 -342 149 -342 341c0 193 152 341 342 341c189 0 343 -148 343 -341s-154 -341 -343 -341zM391 61c149 0 261 116 261 270
c0 152 -112 268 -261 268c-151 0 -262 -115 -262 -268c0 -154 111 -270 262 -270z" />
    <glyph glyph-name="Ocircumflex" unicode="&#xd4;" horiz-adv-x="781" 
d="M391 832l-111 -108h-60l147 186h47l147 -186h-60zM390 671c189 0 343 -148 343 -341s-154 -341 -343 -341c-191 0 -342 149 -342 341c0 193 152 341 342 341zM391 61c149 0 261 116 261 270c0 152 -112 268 -261 268c-151 0 -262 -115 -262 -268
c0 -154 111 -270 262 -270z" />
    <glyph glyph-name="Odieresis" unicode="&#xd6;" horiz-adv-x="781" 
d="M274 757c-28 0 -55 23 -55 53s27 53 55 53c31 0 55 -23 55 -53s-24 -53 -55 -53zM507 756c-29 0 -55 24 -55 53c0 30 26 54 55 54c30 0 55 -24 55 -54c0 -29 -25 -53 -55 -53zM390 -11c-191 0 -342 149 -342 341c0 193 152 341 342 341c189 0 343 -148 343 -341
s-154 -341 -343 -341zM391 61c149 0 261 116 261 270c0 152 -112 268 -261 268c-151 0 -262 -115 -262 -268c0 -154 111 -270 262 -270z" />
    <glyph glyph-name="Ograve" unicode="&#xd2;" horiz-adv-x="781" 
d="M362 724l-120 172v14h94l85 -186h-59zM390 -11c-191 0 -342 149 -342 341c0 193 152 341 342 341c189 0 343 -148 343 -341s-154 -341 -343 -341zM391 61c149 0 261 116 261 270c0 152 -112 268 -261 268c-151 0 -262 -115 -262 -268c0 -154 111 -270 262 -270z" />
    <glyph glyph-name="Ohungarumlaut" unicode="&#x150;" horiz-adv-x="781" 
d="M242 724l86 186h83v-14l-114 -172h-55zM461 724l86 186h83v-14l-114 -172h-55zM390 -11c-191 0 -342 149 -342 341c0 193 152 341 342 341c189 0 343 -148 343 -341s-154 -341 -343 -341zM391 61c149 0 261 116 261 270c0 152 -112 268 -261 268
c-151 0 -262 -115 -262 -268c0 -154 111 -270 262 -270z" />
    <glyph glyph-name="Omacron" unicode="&#x14c;" horiz-adv-x="781" 
d="M244 770v63h295v-63h-295zM390 -11c-191 0 -342 149 -342 341c0 193 152 341 342 341c189 0 343 -148 343 -341s-154 -341 -343 -341zM391 61c149 0 261 116 261 270c0 152 -112 268 -261 268c-151 0 -262 -115 -262 -268c0 -154 111 -270 262 -270z" />
    <glyph glyph-name="Oslash" unicode="&#xd8;" horiz-adv-x="781" 
d="M739 631l-83 -83c48 -59 77 -134 77 -218c0 -193 -154 -341 -343 -341c-83 0 -158 28 -217 75l-83 -83l-48 48l83 83c-48 59 -77 134 -77 218c0 193 152 341 342 341c82 0 158 -28 217 -76l84 84zM391 602c-152 0 -265 -117 -265 -271c0 -64 19 -121 52 -166l379 379
c-45 37 -102 58 -166 58zM391 58c150 0 264 118 264 273c0 63 -19 120 -52 165l-379 -381c45 -36 102 -57 167 -57z" />
    <glyph glyph-name="Oslashacute" unicode="&#x1fe;" horiz-adv-x="781" 
d="M541 896l-120 -172h-59l85 186h94v-14zM739 631l-83 -83c48 -59 77 -134 77 -218c0 -193 -154 -341 -343 -341c-83 0 -158 28 -217 75l-83 -83l-48 48l83 83c-48 59 -77 134 -77 218c0 193 152 341 342 341c82 0 158 -28 217 -76l84 84zM391 602
c-152 0 -265 -117 -265 -271c0 -64 19 -121 52 -166l379 379c-45 37 -102 58 -166 58zM391 58c150 0 264 118 264 273c0 63 -19 120 -52 165l-379 -381c45 -36 102 -57 167 -57z" />
    <glyph glyph-name="Otilde" unicode="&#xd5;" horiz-adv-x="781" 
d="M471 742c-23 0 -50 10 -73 24l-33 20c-16 10 -30 20 -43 20c-20 0 -30 -18 -30 -38v-16h-64c-1 7 -2 15 -2 25c0 57 34 101 87 101c23 0 48 -9 70 -23l34 -22c17 -11 28 -20 44 -20c20 0 30 16 30 37v18h64c1 -8 1 -17 1 -26c0 -56 -33 -100 -85 -100zM390 -11
c-191 0 -342 149 -342 341c0 193 152 341 342 341c189 0 343 -148 343 -341s-154 -341 -343 -341zM391 61c149 0 261 116 261 270c0 152 -112 268 -261 268c-151 0 -262 -115 -262 -268c0 -154 111 -270 262 -270z" />
    <glyph glyph-name="OE" unicode="&#x152;" horiz-adv-x="1127" 
d="M730 70h357v-70h-435v125c-54 -84 -151 -136 -263 -136c-192 0 -341 149 -341 341c0 193 150 341 342 341c113 0 209 -53 262 -135v124h423v-70h-345v-202h264v-70h-264v-248zM390 61c150 0 262 116 262 269s-112 269 -262 269s-261 -115 -261 -269
c0 -153 111 -269 261 -269z" />
    <glyph glyph-name="Thorn" unicode="&#xde;" horiz-adv-x="573" 
d="M91 0v660h78v-118h154c130 0 211 -80 211 -196c0 -114 -81 -197 -211 -197h-154v-149h-78zM169 219h152c87 0 132 53 132 126c0 74 -45 127 -132 127h-152v-253z" />
    <glyph glyph-name="Racute" unicode="&#x154;" horiz-adv-x="622" 
d="M412 896l-120 -172h-59l85 186h94v-14zM606 0h-91l-205 277h-141v-277h-78v660h232c130 0 211 -80 211 -191c0 -89 -52 -158 -139 -183zM169 590v-243h151c87 0 133 50 133 121c0 70 -46 122 -133 122h-151z" />
    <glyph glyph-name="Rcaron" unicode="&#x158;" horiz-adv-x="622" 
d="M285 724h-47l-147 186h60l111 -108l110 108h60zM606 0h-91l-205 277h-141v-277h-78v660h232c130 0 211 -80 211 -191c0 -89 -52 -158 -139 -183zM169 590v-243h151c87 0 133 50 133 121c0 70 -46 122 -133 122h-151z" />
    <glyph glyph-name="uni0156" unicode="&#x156;" horiz-adv-x="622" 
d="M395 286l211 -286h-91l-205 277h-141v-277h-78v660h232c130 0 211 -80 211 -191c0 -89 -52 -158 -139 -183zM169 590v-243h151c87 0 133 50 133 121c0 70 -46 122 -133 122h-151zM264 -220l9 171h76l-25 -171h-60z" />
    <glyph glyph-name="Sacute" unicode="&#x15a;" horiz-adv-x="558" 
d="M254 724l85 186h94v-14l-120 -172h-59zM284 -11c-105 0 -192 55 -243 142l58 43c40 -61 99 -113 184 -113c78 0 133 43 133 110c0 61 -45 85 -110 116l-74 35c-69 33 -149 79 -149 177c0 105 92 172 199 172c90 0 166 -47 207 -112l-57 -43c-36 53 -91 83 -151 83
c-61 0 -117 -31 -117 -96c0 -60 46 -82 106 -111l73 -35c96 -46 154 -94 154 -184c0 -111 -91 -184 -213 -184z" />
    <glyph glyph-name="Scaron" unicode="&#x160;" horiz-adv-x="558" 
d="M306 724h-47l-147 186h60l111 -108l110 108h60zM343 357c96 -46 154 -94 154 -184c0 -111 -91 -184 -213 -184c-105 0 -192 55 -243 142l58 43c40 -61 99 -113 184 -113c78 0 133 43 133 110c0 61 -45 85 -110 116l-74 35c-69 33 -149 79 -149 177c0 105 92 172 199 172
c90 0 166 -47 207 -112l-57 -43c-36 53 -91 83 -151 83c-61 0 -117 -31 -117 -96c0 -60 46 -82 106 -111z" />
    <glyph glyph-name="Scedilla" unicode="&#x15e;" horiz-adv-x="558" 
d="M497 173c0 -94 -66 -161 -160 -179c15 -19 25 -43 25 -70c0 -63 -48 -115 -132 -115c-23 0 -47 4 -68 10v55c23 -3 45 -4 56 -4c44 0 78 19 78 65c0 21 -7 39 -17 54c-103 2 -188 56 -238 142l58 43c40 -61 99 -113 184 -113c78 0 133 43 133 110c0 61 -45 85 -110 116
l-74 35c-69 33 -149 79 -149 177c0 105 92 172 199 172c90 0 166 -47 207 -112l-57 -43c-36 53 -91 83 -151 83c-61 0 -117 -31 -117 -96c0 -60 46 -82 106 -111l73 -35c96 -46 154 -94 154 -184z" />
    <glyph glyph-name="Scircumflex" unicode="&#x15c;" horiz-adv-x="558" 
d="M283 832l-111 -108h-60l147 186h47l147 -186h-60zM343 357c96 -46 154 -94 154 -184c0 -111 -91 -184 -213 -184c-105 0 -192 55 -243 142l58 43c40 -61 99 -113 184 -113c78 0 133 43 133 110c0 61 -45 85 -110 116l-74 35c-69 33 -149 79 -149 177
c0 105 92 172 199 172c90 0 166 -47 207 -112l-57 -43c-36 53 -91 83 -151 83c-61 0 -117 -31 -117 -96c0 -60 46 -82 106 -111z" />
    <glyph glyph-name="uni0218" unicode="&#x218;" horiz-adv-x="558" 
d="M284 -11c-105 0 -192 55 -243 142l58 43c40 -61 99 -113 184 -113c78 0 133 43 133 110c0 61 -45 85 -110 116l-74 35c-69 33 -149 79 -149 177c0 105 92 172 199 172c90 0 166 -47 207 -112l-57 -43c-36 53 -91 83 -151 83c-61 0 -117 -31 -117 -96
c0 -60 46 -82 106 -111l73 -35c96 -46 154 -94 154 -184c0 -111 -91 -184 -213 -184zM244 -220l9 171h76l-25 -171h-60z" />
    <glyph glyph-name="uni1E9E" unicode="&#x1e9e;" horiz-adv-x="710" 
d="M470 411c103 -13 190 -93 190 -211c0 -125 -99 -211 -216 -211c-72 0 -140 33 -186 85l47 56c35 -40 81 -69 136 -69c79 0 138 58 138 140c0 88 -68 144 -168 144h-53v22l137 223h-326v-590h-78v660h518v-23z" />
    <glyph glyph-name="uni018F" unicode="&#x18f;" horiz-adv-x="731" 
d="M361 671c188 0 322 -150 322 -339c0 -192 -139 -343 -326 -343c-167 0 -309 115 -309 293c0 31 4 57 6 71h547c-8 144 -104 246 -241 246c-95 0 -174 -41 -225 -111l-54 45c61 84 158 138 280 138zM360 61c129 0 220 93 239 222h-473c-4 -140 108 -222 234 -222z" />
    <glyph glyph-name="Tbar" unicode="&#x166;" horiz-adv-x="581" 
d="M251 0v260h-195v66h195v264h-232v70h543v-70h-233v-264h196v-66h-196v-260h-78z" />
    <glyph glyph-name="Tcaron" unicode="&#x164;" horiz-adv-x="581" 
d="M314 724h-47l-147 186h60l111 -108l110 108h60zM19 660h543v-70h-233v-590h-78v590h-232v70z" />
    <glyph glyph-name="uni0162" unicode="&#x162;" horiz-adv-x="581" 
d="M562 590h-233v-589c20 -19 32 -46 32 -77c0 -63 -48 -115 -132 -115c-23 0 -47 4 -68 10v55c23 -3 45 -4 56 -4c44 0 78 19 78 65c0 27 -11 48 -26 65h-18v590h-232v70h543v-70z" />
    <glyph glyph-name="uni021A" unicode="&#x21a;" horiz-adv-x="581" 
d="M251 0v590h-232v70h543v-70h-233v-590h-78zM243 -220l9 171h76l-25 -171h-60z" />
    <glyph glyph-name="Uacute" unicode="&#xda;" horiz-adv-x="689" 
d="M314 724l85 186h94v-14l-120 -172h-59zM345 -11c-152 0 -263 97 -263 273v398h78v-403c0 -133 82 -196 185 -196c102 0 183 63 183 196v403h78v-398c0 -176 -112 -273 -261 -273z" />
    <glyph glyph-name="Ubreve" unicode="&#x16c;" horiz-adv-x="689" 
d="M343 726c-91 0 -151 63 -151 159v25h63v-24c0 -60 35 -99 88 -99c55 0 89 38 89 99v24h63v-25c0 -94 -62 -159 -152 -159zM345 -11c-152 0 -263 97 -263 273v398h78v-403c0 -133 82 -196 185 -196c102 0 183 63 183 196v403h78v-398c0 -176 -112 -273 -261 -273z" />
    <glyph glyph-name="Ucircumflex" unicode="&#xdb;" horiz-adv-x="689" 
d="M344 832l-111 -108h-60l147 186h47l147 -186h-60zM528 660h78v-398c0 -176 -112 -273 -261 -273c-152 0 -263 97 -263 273v398h78v-403c0 -133 82 -196 185 -196c102 0 183 63 183 196v403z" />
    <glyph glyph-name="Udieresis" unicode="&#xdc;" horiz-adv-x="689" 
d="M227 757c-28 0 -55 23 -55 53s27 53 55 53c31 0 55 -23 55 -53s-24 -53 -55 -53zM460 756c-29 0 -55 24 -55 53c0 30 26 54 55 54c30 0 55 -24 55 -54c0 -29 -25 -53 -55 -53zM345 -11c-152 0 -263 97 -263 273v398h78v-403c0 -133 82 -196 185 -196
c102 0 183 63 183 196v403h78v-398c0 -176 -112 -273 -261 -273z" />
    <glyph glyph-name="Ugrave" unicode="&#xd9;" horiz-adv-x="689" 
d="M315 724l-120 172v14h94l85 -186h-59zM345 -11c-152 0 -263 97 -263 273v398h78v-403c0 -133 82 -196 185 -196c102 0 183 63 183 196v403h78v-398c0 -176 -112 -273 -261 -273z" />
    <glyph glyph-name="Uhungarumlaut" unicode="&#x170;" horiz-adv-x="689" 
d="M195 724l86 186h83v-14l-114 -172h-55zM414 724l86 186h83v-14l-114 -172h-55zM345 -11c-152 0 -263 97 -263 273v398h78v-403c0 -133 82 -196 185 -196c102 0 183 63 183 196v403h78v-398c0 -176 -112 -273 -261 -273z" />
    <glyph glyph-name="Umacron" unicode="&#x16a;" horiz-adv-x="689" 
d="M197 770v63h295v-63h-295zM345 -11c-152 0 -263 97 -263 273v398h78v-403c0 -133 82 -196 185 -196c102 0 183 63 183 196v403h78v-398c0 -176 -112 -273 -261 -273z" />
    <glyph glyph-name="Uogonek" unicode="&#x172;" horiz-adv-x="689" 
d="M528 660h78v-398c0 -96 -34 -169 -88 -215l-67 -71c-24 -26 -37 -41 -37 -68c0 -24 16 -37 47 -37c15 0 35 3 54 7v-58c-19 -6 -47 -11 -72 -11c-64 0 -107 34 -107 87c0 32 9 56 43 95c-11 -1 -23 -2 -34 -2c-152 0 -263 97 -263 273v398h78v-403
c0 -133 82 -196 185 -196c102 0 183 63 183 196v403z" />
    <glyph glyph-name="Uring" unicode="&#x16e;" horiz-adv-x="689" 
d="M343 698c-63 0 -110 48 -110 108s47 108 110 108c64 0 111 -48 111 -108s-47 -108 -111 -108zM344 756c27 0 50 21 50 50s-22 51 -50 51c-29 0 -51 -22 -51 -51s23 -50 51 -50zM345 -11c-152 0 -263 97 -263 273v398h78v-403c0 -133 82 -196 185 -196
c102 0 183 63 183 196v403h78v-398c0 -176 -112 -273 -261 -273z" />
    <glyph glyph-name="Utilde" unicode="&#x168;" horiz-adv-x="689" 
d="M424 742c-23 0 -50 10 -73 24l-33 20c-16 10 -30 20 -43 20c-20 0 -30 -18 -30 -38v-16h-64c-1 7 -2 15 -2 25c0 57 34 101 87 101c23 0 48 -9 70 -23l34 -22c17 -11 28 -20 44 -20c20 0 30 16 30 37v18h64c1 -8 1 -17 1 -26c0 -56 -33 -100 -85 -100zM345 -11
c-152 0 -263 97 -263 273v398h78v-403c0 -133 82 -196 185 -196c102 0 183 63 183 196v403h78v-398c0 -176 -112 -273 -261 -273z" />
    <glyph glyph-name="Wacute" unicode="&#x1e82;" horiz-adv-x="1066" 
d="M683 896l-120 -172h-59l85 186h94v-14zM935 660h85l-250 -671h-28l-209 524l-209 -524h-28l-251 671h86l182 -503l206 514h28l206 -513z" />
    <glyph glyph-name="Wcircumflex" unicode="&#x174;" horiz-adv-x="1066" 
d="M533 832l-111 -108h-60l147 186h47l147 -186h-60zM935 660h85l-250 -671h-28l-209 524l-209 -524h-28l-251 671h86l182 -503l206 514h28l206 -513z" />
    <glyph glyph-name="Wdieresis" unicode="&#x1e84;" horiz-adv-x="1066" 
d="M416 757c-28 0 -55 23 -55 53s27 53 55 53c31 0 55 -23 55 -53s-24 -53 -55 -53zM649 756c-29 0 -55 24 -55 53c0 30 26 54 55 54c30 0 55 -24 55 -54c0 -29 -25 -53 -55 -53zM935 660h85l-250 -671h-28l-209 524l-209 -524h-28l-251 671h86l182 -503l206 514h28
l206 -513z" />
    <glyph glyph-name="Wgrave" unicode="&#x1e80;" horiz-adv-x="1066" 
d="M564 724h-59l-120 172v14h94zM935 660h85l-250 -671h-28l-209 524l-209 -524h-28l-251 671h86l182 -503l206 514h28l206 -513z" />
    <glyph glyph-name="Yacute" unicode="&#xdd;" horiz-adv-x="616" 
d="M455 896l-120 -172h-59l85 186h94v-14zM576 660l-229 -387v-273h-78v273l-229 387h88l180 -310l181 310h87z" />
    <glyph glyph-name="Ycircumflex" unicode="&#x176;" horiz-adv-x="616" 
d="M305 832l-111 -108h-60l147 186h47l147 -186h-60zM576 660l-229 -387v-273h-78v273l-229 387h88l180 -310l181 310h87z" />
    <glyph glyph-name="Ydieresis" unicode="&#x178;" horiz-adv-x="616" 
d="M188 757c-28 0 -55 23 -55 53s27 53 55 53c31 0 55 -23 55 -53s-24 -53 -55 -53zM421 756c-29 0 -55 24 -55 53c0 30 26 54 55 54c30 0 55 -24 55 -54c0 -29 -25 -53 -55 -53zM576 660l-229 -387v-273h-78v273l-229 387h88l180 -310l181 310h87z" />
    <glyph glyph-name="Ygrave" unicode="&#x1ef2;" horiz-adv-x="616" 
d="M335 724h-59l-120 172v14h94zM576 660l-229 -387v-273h-78v273l-229 387h88l180 -310l181 310h87z" />
    <glyph glyph-name="Zacute" unicode="&#x179;" horiz-adv-x="589" 
d="M450 896l-120 -172h-59l85 186h94v-14zM154 70h401v-70h-523v23l398 567h-355v70h479v-23z" />
    <glyph glyph-name="Zcaron" unicode="&#x17d;" horiz-adv-x="589" 
d="M323 724h-47l-147 186h60l111 -108l110 108h60zM154 70h401v-70h-523v23l398 567h-355v70h479v-23z" />
    <glyph glyph-name="Zdotaccent" unicode="&#x17b;" horiz-adv-x="589" 
d="M300 754c-32 0 -58 24 -58 56c0 31 26 56 58 56c31 0 57 -25 57 -56c0 -32 -26 -56 -57 -56zM154 70h401v-70h-523v23l398 567h-355v70h479v-23z" />
    <glyph glyph-name="Iacute_J.loclNLD" horiz-adv-x="633" 
d="M101 724l85 186h94v-14l-120 -172h-59zM465 724l85 186h94v-14l-120 -172h-59zM91 0v660h78v-660h-78zM370 -11c-32 0 -61 5 -87 11v67c27 -4 50 -6 72 -6c65 0 109 20 109 99v500h78v-507c0 -115 -71 -164 -172 -164z" />
    <glyph glyph-name="Cacute.loclPLK" horiz-adv-x="715" 
d="M361 724l45 186h94v-14l-80 -172h-59zM391 -11c-191 0 -343 148 -343 341s152 341 343 341c120 0 219 -58 274 -142l-58 -46c-49 72 -123 116 -215 116c-149 0 -263 -115 -263 -269s114 -269 263 -269c92 0 166 44 215 116l58 -46c-53 -84 -154 -142 -274 -142z" />
    <glyph glyph-name="Nacute.loclPLK" horiz-adv-x="708" 
d="M463 896l-80 -172h-59l45 186h94v-14zM539 660h78v-671h-28l-420 506v-495h-78v671h28l420 -507v496z" />
    <glyph glyph-name="Oacute.loclPLK" horiz-adv-x="781" 
d="M361 724l45 186h94v-14l-80 -172h-59zM390 -11c-191 0 -342 149 -342 341c0 193 152 341 342 341c189 0 343 -148 343 -341s-154 -341 -343 -341zM391 61c149 0 261 116 261 270c0 152 -112 268 -261 268c-151 0 -262 -115 -262 -268c0 -154 111 -270 262 -270z" />
    <glyph glyph-name="Sacute.loclPLK" horiz-adv-x="558" 
d="M253 724l45 186h94v-14l-80 -172h-59zM284 -11c-105 0 -192 55 -243 142l58 43c40 -61 99 -113 184 -113c78 0 133 43 133 110c0 61 -45 85 -110 116l-74 35c-69 33 -149 79 -149 177c0 105 92 172 199 172c90 0 166 -47 207 -112l-57 -43c-36 53 -91 83 -151 83
c-61 0 -117 -31 -117 -96c0 -60 46 -82 106 -111l73 -35c96 -46 154 -94 154 -184c0 -111 -91 -184 -213 -184z" />
    <glyph glyph-name="Zacute.loclPLK" horiz-adv-x="589" 
d="M409 896l-80 -172h-59l45 186h94v-14zM154 70h401v-70h-523v23l398 567h-355v70h479v-23z" />
    <glyph glyph-name="Idotaccent.loclTRK" horiz-adv-x="259" 
d="M130 754c-32 0 -58 24 -58 56c0 31 26 56 58 56c31 0 57 -25 57 -56c0 -32 -26 -56 -57 -56zM91 0v660h78v-660h-78z" />
    <glyph glyph-name="A.ordn" horiz-adv-x="434" 
d="M338 244l-28 71h-186l-27 -71h-74l183 423h23l182 -423h-73zM289 369l-72 176l-73 -176h145z" />
    <glyph glyph-name="O.ordn" horiz-adv-x="507" 
d="M253 237c-121 0 -217 93 -217 215s96 215 217 215c120 0 218 -93 218 -215s-98 -215 -218 -215zM254 300c84 0 148 63 148 152s-64 152 -148 152c-87 0 -148 -63 -148 -152s61 -152 148 -152z" />
    <glyph glyph-name="a" unicode="a" horiz-adv-x="528" 
d="M260 498c111 0 190 -67 190 -198v-300h-72v63c-35 -47 -92 -74 -164 -74c-98 0 -170 52 -170 137c0 82 69 136 175 136h154v42c0 82 -46 123 -118 123c-61 0 -104 -29 -142 -78l-51 42c46 74 120 107 198 107zM224 53c80 0 149 58 149 134v12h-145
c-68 0 -105 -23 -105 -69c0 -52 47 -77 101 -77z" />
    <glyph glyph-name="b" unicode="b" horiz-adv-x="632" 
d="M341 498c139 0 241 -111 241 -255c0 -143 -101 -254 -240 -254c-76 0 -147 33 -185 88v-77h-72v750h77v-334c39 51 106 82 179 82zM330 60c100 0 173 78 173 184s-74 183 -173 183c-85 0 -169 -56 -169 -184s85 -183 169 -183z" />
    <glyph glyph-name="c" unicode="c" horiz-adv-x="551" 
d="M305 -11c-142 0 -255 112 -255 255c0 142 113 254 255 254c88 0 158 -42 201 -106l-55 -44c-36 48 -82 79 -145 79c-102 0 -177 -81 -177 -183c0 -103 75 -184 177 -184c62 0 108 30 144 78l55 -43c-43 -64 -113 -106 -200 -106z" />
    <glyph glyph-name="d" unicode="d" horiz-adv-x="632" 
d="M471 750h77v-750h-73v77c-38 -55 -108 -88 -184 -88c-139 0 -241 111 -241 254c0 144 102 255 241 255c73 0 141 -31 180 -83v335zM302 60c84 0 170 55 170 183s-86 184 -170 184c-99 0 -173 -77 -173 -183s73 -184 173 -184z" />
    <glyph glyph-name="e" unicode="e" horiz-adv-x="571" 
d="M521 278c0 -26 -4 -48 -6 -58h-385c10 -97 83 -160 179 -160c61 0 109 26 149 66l45 -52c-49 -52 -115 -85 -195 -85c-147 0 -258 111 -258 254c0 142 109 255 249 255c125 0 222 -90 222 -220zM297 428c-82 0 -147 -56 -164 -140h309c-1 90 -68 140 -145 140z" />
    <glyph glyph-name="f" unicode="f" horiz-adv-x="303" 
d="M276 691c-60 0 -102 -20 -102 -93v-111h122v-69h-122v-418h-77v418h-70v69h70v116c0 111 67 158 161 158c24 0 43 -3 61 -8v-65c-16 2 -30 3 -43 3z" />
    <glyph glyph-name="g" unicode="g" horiz-adv-x="637" 
d="M480 487h73v-440c0 -150 -95 -238 -237 -238c-102 0 -181 46 -229 94l45 54c47 -41 102 -77 182 -77c99 0 162 55 162 163v43c-39 -51 -108 -81 -181 -81c-137 0 -239 104 -239 246c0 141 102 247 239 247c77 0 147 -33 185 -89v78zM307 76c85 0 170 53 170 175
s-86 174 -170 174c-99 0 -173 -72 -173 -175s74 -174 173 -174z" />
    <glyph glyph-name="h" unicode="h" horiz-adv-x="566" 
d="M308 498c114 0 180 -79 180 -192v-306h-77v296c0 77 -46 131 -121 131s-128 -55 -128 -131v-296h-77v750h77v-318c33 41 83 66 146 66z" />
    <glyph glyph-name="i" unicode="i" horiz-adv-x="246" 
d="M124 617c-32 0 -58 24 -58 56c0 31 26 56 58 56c31 0 57 -25 57 -56c0 -32 -26 -56 -57 -56zM85 0v487h77v-487h-77z" />
    <glyph glyph-name="j" unicode="j" horiz-adv-x="246" 
d="M124 617c-32 0 -58 24 -58 56c0 31 26 56 58 56c31 0 57 -25 57 -56c0 -32 -26 -56 -57 -56zM2 -191c-25 0 -44 3 -62 8v65c17 -2 29 -3 45 -3c59 0 100 21 100 93v515h77v-520c0 -111 -67 -158 -160 -158z" />
    <glyph glyph-name="k" unicode="k" horiz-adv-x="506" 
d="M85 0v750h77v-750h-77zM263 273l230 -273h-99l-224 274l203 213h101z" />
    <glyph glyph-name="l" unicode="l" horiz-adv-x="246" 
d="M85 0v750h77v-750h-77z" />
    <glyph glyph-name="m" unicode="m" horiz-adv-x="874" 
d="M619 498c114 0 177 -79 177 -192v-306h-77v296c0 77 -42 131 -115 131c-74 0 -125 -56 -125 -124v-303h-77v296c0 77 -44 131 -116 131c-74 0 -124 -54 -124 -131v-296h-77v487h72v-51c34 39 84 62 145 62c73 0 123 -33 150 -84c34 49 92 84 167 84z" />
    <glyph glyph-name="n" unicode="n" horiz-adv-x="566" 
d="M307 498c115 0 181 -79 181 -192v-306h-77v297c0 77 -46 130 -121 130s-128 -54 -128 -130v-297h-77v487h72v-52c35 39 87 63 150 63z" />
    <glyph glyph-name="o" unicode="o" horiz-adv-x="610" 
d="M304 -10c-142 0 -254 113 -254 254c0 143 112 254 255 254c142 0 255 -112 255 -254c0 -141 -113 -254 -256 -254zM304 61c100 0 177 79 177 182c0 105 -76 184 -176 184c-101 0 -176 -79 -176 -184c0 -104 75 -182 175 -182z" />
    <glyph glyph-name="p" unicode="p" horiz-adv-x="632" 
d="M341 498c140 0 241 -111 241 -254c0 -144 -102 -255 -241 -255c-71 0 -139 30 -179 81v-250h-77v667h72v-78c38 56 108 89 184 89zM330 60c99 0 173 77 173 183s-73 184 -173 184c-84 0 -169 -55 -169 -183s84 -184 169 -184z" />
    <glyph glyph-name="q" unicode="q" horiz-adv-x="632" 
d="M475 487h73v-667h-77v251c-39 -52 -108 -82 -180 -82c-139 0 -241 111 -241 255c0 143 102 254 241 254c76 0 146 -33 184 -89v78zM302 60c84 0 170 56 170 184s-86 183 -170 183c-100 0 -173 -79 -173 -184c0 -106 74 -183 173 -183z" />
    <glyph glyph-name="r" unicode="r" horiz-adv-x="362" 
d="M308 491c16 0 26 -2 36 -4v-68h-29c-79 0 -153 -50 -153 -143v-276h-77v487h72v-69c36 48 93 73 151 73z" />
    <glyph glyph-name="s" unicode="s" horiz-adv-x="454" 
d="M229 -11c-86 0 -151 43 -190 95l49 51c40 -42 81 -75 140 -75c51 0 93 25 93 69c0 42 -36 58 -85 78l-47 20c-74 31 -121 66 -121 135c0 88 75 136 164 136c70 0 125 -30 163 -77l-47 -48c-32 33 -74 54 -120 54s-81 -21 -81 -61c0 -33 25 -48 79 -71l45 -19
c87 -37 129 -75 129 -144c0 -95 -81 -143 -171 -143z" />
    <glyph glyph-name="t" unicode="t" horiz-adv-x="381" 
d="M286 59c19 0 40 2 65 6v-65c-25 -6 -50 -11 -81 -11c-96 0 -164 47 -164 158v271h-82v69h82v133h77v-133h152v-69h-152v-266c0 -73 42 -93 103 -93z" />
    <glyph glyph-name="u" unicode="u" 
d="M281 -11c-114 0 -202 80 -202 205v293h76v-298c0 -80 56 -129 126 -129c68 0 124 49 124 129v298h77v-293c0 -125 -89 -205 -201 -205z" />
    <glyph glyph-name="v" unicode="v" horiz-adv-x="539" 
d="M431 487h82l-229 -498h-28l-230 498h82l162 -367z" />
    <glyph glyph-name="w" unicode="w" horiz-adv-x="851" 
d="M742 487h82l-205 -498h-28l-166 368l-165 -368h-27l-207 498h82l141 -361l162 372h29l164 -369z" />
    <glyph glyph-name="x" unicode="x" horiz-adv-x="497" 
d="M476 0h-89l-139 200l-138 -200h-90l181 254l-166 233h89l124 -179l125 179h89l-169 -233z" />
    <glyph glyph-name="y" unicode="y" horiz-adv-x="539" 
d="M431 487h82l-240 -555c-38 -87 -91 -123 -165 -123c-24 0 -52 4 -75 10v65c23 -3 42 -5 59 -5c47 0 83 16 110 78l26 58l-202 472h83l161 -388z" />
    <glyph glyph-name="z" unicode="z" horiz-adv-x="454" 
d="M145 68h282v-68h-400v23l278 395h-255v69h374v-23z" />
    <glyph glyph-name="aacute" unicode="&#xe1;" horiz-adv-x="528" 
d="M410 766l-120 -200h-59l85 214h94v-14zM260 498c111 0 190 -67 190 -198v-300h-72v63c-35 -47 -92 -74 -164 -74c-98 0 -170 52 -170 137c0 82 69 136 175 136h154v42c0 82 -46 123 -118 123c-61 0 -104 -29 -142 -78l-51 42c46 74 120 107 198 107zM224 53
c80 0 149 58 149 134v12h-145c-68 0 -105 -23 -105 -69c0 -52 47 -77 101 -77z" />
    <glyph glyph-name="abreve" unicode="&#x103;" horiz-adv-x="528" 
d="M258 573c-90 0 -151 65 -151 158v31h63v-29c0 -61 35 -99 88 -99c55 0 89 38 89 99v29h63v-31c0 -94 -61 -158 -152 -158zM260 498c111 0 190 -67 190 -198v-300h-72v63c-35 -47 -92 -74 -164 -74c-98 0 -170 52 -170 137c0 82 69 136 175 136h154v42
c0 82 -46 123 -118 123c-61 0 -104 -29 -142 -78l-51 42c46 74 120 107 198 107zM224 53c80 0 149 58 149 134v12h-145c-68 0 -105 -23 -105 -69c0 -52 47 -77 101 -77z" />
    <glyph glyph-name="acircumflex" unicode="&#xe2;" horiz-adv-x="528" 
d="M260 694l-101 -128h-59l136 214h47l135 -214h-58zM260 498c111 0 190 -67 190 -198v-300h-72v63c-35 -47 -92 -74 -164 -74c-98 0 -170 52 -170 137c0 82 69 136 175 136h154v42c0 82 -46 123 -118 123c-61 0 -104 -29 -142 -78l-51 42c46 74 120 107 198 107zM224 53
c80 0 149 58 149 134v12h-145c-68 0 -105 -23 -105 -69c0 -52 47 -77 101 -77z" />
    <glyph glyph-name="adieresis" unicode="&#xe4;" horiz-adv-x="528" 
d="M152 620c-28 0 -55 24 -55 53c0 30 27 54 55 54c31 0 56 -24 56 -54c0 -29 -25 -53 -56 -53zM365 620c-29 0 -56 24 -56 53c0 30 27 54 56 54c30 0 55 -24 55 -54c0 -29 -25 -53 -55 -53zM260 498c111 0 190 -67 190 -198v-300h-72v63c-35 -47 -92 -74 -164 -74
c-98 0 -170 52 -170 137c0 82 69 136 175 136h154v42c0 82 -46 123 -118 123c-61 0 -104 -29 -142 -78l-51 42c46 74 120 107 198 107zM224 53c80 0 149 58 149 134v12h-145c-68 0 -105 -23 -105 -69c0 -52 47 -77 101 -77z" />
    <glyph glyph-name="agrave" unicode="&#xe0;" horiz-adv-x="528" 
d="M288 566h-59l-120 200v14h94zM260 498c111 0 190 -67 190 -198v-300h-72v63c-35 -47 -92 -74 -164 -74c-98 0 -170 52 -170 137c0 82 69 136 175 136h154v42c0 82 -46 123 -118 123c-61 0 -104 -29 -142 -78l-51 42c46 74 120 107 198 107zM224 53c80 0 149 58 149 134
v12h-145c-68 0 -105 -23 -105 -69c0 -52 47 -77 101 -77z" />
    <glyph glyph-name="amacron" unicode="&#x101;" horiz-adv-x="528" 
d="M397 704v-62h-275v62h275zM260 498c111 0 190 -67 190 -198v-300h-72v63c-35 -47 -92 -74 -164 -74c-98 0 -170 52 -170 137c0 82 69 136 175 136h154v42c0 82 -46 123 -118 123c-61 0 -104 -29 -142 -78l-51 42c46 74 120 107 198 107zM224 53c80 0 149 58 149 134v12
h-145c-68 0 -105 -23 -105 -69c0 -52 47 -77 101 -77z" />
    <glyph glyph-name="aogonek" unicode="&#x105;" horiz-adv-x="528" 
d="M400 -33c-30 -20 -52 -33 -52 -59c0 -24 17 -37 48 -37c15 0 35 3 54 7v-58c-19 -6 -47 -11 -72 -11c-63 0 -107 34 -107 87c0 43 30 74 107 117v50c-35 -47 -92 -74 -164 -74c-98 0 -170 52 -170 137c0 82 69 136 175 136h154v42c0 82 -46 123 -118 123
c-61 0 -104 -29 -142 -78l-51 42c46 74 120 107 198 107c111 0 190 -67 190 -198v-300zM224 53c80 0 149 58 149 134v12h-145c-68 0 -105 -23 -105 -69c0 -52 47 -77 101 -77z" />
    <glyph glyph-name="aring" unicode="&#xe5;" horiz-adv-x="528" 
d="M258 559c-62 0 -110 48 -110 109s47 108 110 108s111 -46 111 -108c0 -61 -48 -109 -111 -109zM259 720c-28 0 -51 -23 -51 -52s22 -50 51 -50c28 0 50 21 50 50s-23 52 -50 52zM260 498c111 0 190 -67 190 -198v-300h-72v63c-35 -47 -92 -74 -164 -74
c-98 0 -170 52 -170 137c0 82 69 136 175 136h154v42c0 82 -46 123 -118 123c-61 0 -104 -29 -142 -78l-51 42c46 74 120 107 198 107zM224 53c80 0 149 58 149 134v12h-145c-68 0 -105 -23 -105 -69c0 -52 47 -77 101 -77z" />
    <glyph glyph-name="atilde" unicode="&#xe3;" horiz-adv-x="528" 
d="M167 609h-64c-1 9 -1 16 -1 25c0 59 32 104 85 104c25 0 48 -9 68 -26l26 -22c16 -14 29 -23 42 -23c21 0 28 19 28 41v17h64c1 -9 1 -17 1 -25c0 -58 -31 -104 -85 -104c-22 0 -48 9 -68 26l-26 22c-16 13 -24 23 -42 23c-21 0 -28 -18 -28 -41v-17zM260 498
c111 0 190 -67 190 -198v-300h-72v63c-35 -47 -92 -74 -164 -74c-98 0 -170 52 -170 137c0 82 69 136 175 136h154v42c0 82 -46 123 -118 123c-61 0 -104 -29 -142 -78l-51 42c46 74 120 107 198 107zM224 53c80 0 149 58 149 134v12h-145c-68 0 -105 -23 -105 -69
c0 -52 47 -77 101 -77z" />
    <glyph glyph-name="ae" unicode="&#xe6;" horiz-adv-x="895" 
d="M837 211h-382c14 -92 85 -151 177 -151c60 0 107 25 147 65l46 -51c-49 -54 -117 -85 -194 -85c-93 0 -170 47 -213 118c-35 -76 -113 -118 -202 -118c-102 0 -172 55 -172 141s69 144 175 144h154v30c0 82 -48 123 -117 123c-60 0 -104 -30 -141 -78l-51 42
c46 74 121 107 197 107c77 0 138 -34 167 -102c43 62 113 102 196 102c123 0 220 -90 220 -221c0 -27 -4 -55 -7 -66zM455 274h309c6 98 -62 154 -144 154c-86 0 -153 -62 -165 -154zM225 54c78 0 148 56 148 132v25h-145c-68 0 -105 -24 -105 -73c0 -56 47 -84 102 -84z
" />
    <glyph glyph-name="aeacute" unicode="&#x1fd;" horiz-adv-x="895" 
d="M578 766l-120 -200h-59l85 214h94v-14zM837 211h-382c14 -92 85 -151 177 -151c60 0 107 25 147 65l46 -51c-49 -54 -117 -85 -194 -85c-93 0 -170 47 -213 118c-35 -76 -113 -118 -202 -118c-102 0 -172 55 -172 141s69 144 175 144h154v30c0 82 -48 123 -117 123
c-60 0 -104 -30 -141 -78l-51 42c46 74 121 107 197 107c77 0 138 -34 167 -102c43 62 113 102 196 102c123 0 220 -90 220 -221c0 -27 -4 -55 -7 -66zM455 274h309c6 98 -62 154 -144 154c-86 0 -153 -62 -165 -154zM225 54c78 0 148 56 148 132v25h-145
c-68 0 -105 -24 -105 -73c0 -56 47 -84 102 -84z" />
    <glyph glyph-name="cacute" unicode="&#x107;" horiz-adv-x="551" 
d="M277 566l85 214h94v-14l-120 -200h-59zM305 -11c-142 0 -255 112 -255 255c0 142 113 254 255 254c88 0 158 -42 201 -106l-55 -44c-36 48 -82 79 -145 79c-102 0 -177 -81 -177 -183c0 -103 75 -184 177 -184c62 0 108 30 144 78l55 -43c-43 -64 -113 -106 -200 -106z
" />
    <glyph glyph-name="ccaron" unicode="&#x10d;" horiz-adv-x="551" 
d="M328 566h-47l-136 214h59l101 -128l100 128h58zM306 60c62 0 108 30 144 78l55 -43c-43 -64 -113 -106 -200 -106c-142 0 -255 112 -255 255c0 142 113 254 255 254c88 0 158 -42 201 -106l-55 -44c-36 48 -82 79 -145 79c-102 0 -177 -81 -177 -183
c0 -103 75 -184 177 -184z" />
    <glyph glyph-name="ccedilla" unicode="&#xe7;" horiz-adv-x="551" 
d="M306 60c62 0 108 30 144 78l55 -43c-35 -53 -89 -90 -155 -102c15 -19 24 -42 24 -69c0 -63 -48 -115 -132 -115c-23 0 -47 4 -68 10v55c23 -3 45 -4 56 -4c44 0 78 19 78 65c0 22 -7 39 -18 54c-135 8 -240 117 -240 255c0 142 113 254 255 254c88 0 158 -42 201 -106
l-55 -44c-36 48 -82 79 -145 79c-102 0 -177 -81 -177 -183c0 -103 75 -184 177 -184z" />
    <glyph glyph-name="ccircumflex" unicode="&#x109;" horiz-adv-x="551" 
d="M305 694l-101 -128h-59l136 214h47l135 -214h-58zM306 60c62 0 108 30 144 78l55 -43c-43 -64 -113 -106 -200 -106c-142 0 -255 112 -255 255c0 142 113 254 255 254c88 0 158 -42 201 -106l-55 -44c-36 48 -82 79 -145 79c-102 0 -177 -81 -177 -183
c0 -103 75 -184 177 -184z" />
    <glyph glyph-name="cdotaccent" unicode="&#x10b;" horiz-adv-x="551" 
d="M304 617c-32 0 -58 24 -58 56c0 31 26 56 58 56c31 0 57 -25 57 -56c0 -32 -26 -56 -57 -56zM305 -11c-142 0 -255 112 -255 255c0 142 113 254 255 254c88 0 158 -42 201 -106l-55 -44c-36 48 -82 79 -145 79c-102 0 -177 -81 -177 -183c0 -103 75 -184 177 -184
c62 0 108 30 144 78l55 -43c-43 -64 -113 -106 -200 -106z" />
    <glyph glyph-name="eth" unicode="&#xf0;" horiz-adv-x="569" 
d="M410 459c61 -83 108 -145 108 -237c0 -132 -98 -233 -234 -233s-234 100 -234 228c0 129 99 225 225 225c22 0 42 -3 60 -8l-101 140l-149 -72l-27 57l138 66l-67 93l58 43l77 -104l154 74l28 -55l-145 -70zM284 60c89 0 155 66 155 157c0 90 -66 156 -155 156
s-155 -66 -155 -157c0 -90 65 -156 155 -156z" />
    <glyph glyph-name="dcaron" unicode="&#x10f;" horiz-adv-x="744" 
d="M471 415v335h77v-750h-73v77c-38 -55 -108 -88 -184 -88c-139 0 -241 111 -241 254c0 144 102 255 241 255c73 0 141 -31 180 -83zM661 750h83l-38 -211h-58zM302 60c84 0 170 55 170 183s-86 184 -170 184c-99 0 -173 -77 -173 -183s73 -184 173 -184z" />
    <glyph glyph-name="dcroat" unicode="&#x111;" horiz-adv-x="634" 
d="M629 645v-64h-83v-581h-72v79c-39 -56 -111 -90 -187 -90c-135 0 -238 106 -238 247s102 248 238 248c74 0 143 -32 183 -85v182h-219v64h219v105h76v-105h83zM301 58c84 0 169 52 169 178s-85 179 -169 179c-99 0 -173 -74 -173 -179c0 -104 73 -178 173 -178z" />
    <glyph glyph-name="eacute" unicode="&#xe9;" horiz-adv-x="571" 
d="M448 766l-120 -200h-59l85 214h94v-14zM521 278c0 -26 -4 -48 -6 -58h-385c10 -97 83 -160 179 -160c61 0 109 26 149 66l45 -52c-49 -52 -115 -85 -195 -85c-147 0 -258 111 -258 254c0 142 109 255 249 255c125 0 222 -90 222 -220zM297 428c-82 0 -147 -56 -164 -140
h309c-1 90 -68 140 -145 140z" />
    <glyph glyph-name="ebreve" unicode="&#x115;" horiz-adv-x="571" 
d="M296 573c-90 0 -151 65 -151 158v31h63v-29c0 -61 35 -99 88 -99c55 0 89 38 89 99v29h63v-31c0 -94 -61 -158 -152 -158zM521 278c0 -26 -4 -48 -6 -58h-385c10 -97 83 -160 179 -160c61 0 109 26 149 66l45 -52c-49 -52 -115 -85 -195 -85c-147 0 -258 111 -258 254
c0 142 109 255 249 255c125 0 222 -90 222 -220zM297 428c-82 0 -147 -56 -164 -140h309c-1 90 -68 140 -145 140z" />
    <glyph glyph-name="ecaron" unicode="&#x11b;" horiz-adv-x="571" 
d="M321 566h-47l-136 214h59l101 -128l100 128h58zM521 278c0 -26 -4 -48 -6 -58h-385c10 -97 83 -160 179 -160c61 0 109 26 149 66l45 -52c-49 -52 -115 -85 -195 -85c-147 0 -258 111 -258 254c0 142 109 255 249 255c125 0 222 -90 222 -220zM297 428
c-82 0 -147 -56 -164 -140h309c-1 90 -68 140 -145 140z" />
    <glyph glyph-name="ecircumflex" unicode="&#xea;" horiz-adv-x="571" 
d="M298 694l-101 -128h-59l136 214h47l135 -214h-58zM521 278c0 -26 -4 -48 -6 -58h-385c10 -97 83 -160 179 -160c61 0 109 26 149 66l45 -52c-49 -52 -115 -85 -195 -85c-147 0 -258 111 -258 254c0 142 109 255 249 255c125 0 222 -90 222 -220zM297 428
c-82 0 -147 -56 -164 -140h309c-1 90 -68 140 -145 140z" />
    <glyph glyph-name="edieresis" unicode="&#xeb;" horiz-adv-x="571" 
d="M190 620c-28 0 -55 24 -55 53c0 30 27 54 55 54c31 0 56 -24 56 -54c0 -29 -25 -53 -56 -53zM403 620c-29 0 -56 24 -56 53c0 30 27 54 56 54c30 0 55 -24 55 -54c0 -29 -25 -53 -55 -53zM521 278c0 -26 -4 -48 -6 -58h-385c10 -97 83 -160 179 -160c61 0 109 26 149 66
l45 -52c-49 -52 -115 -85 -195 -85c-147 0 -258 111 -258 254c0 142 109 255 249 255c125 0 222 -90 222 -220zM297 428c-82 0 -147 -56 -164 -140h309c-1 90 -68 140 -145 140z" />
    <glyph glyph-name="edotaccent" unicode="&#x117;" horiz-adv-x="571" 
d="M297 617c-32 0 -58 24 -58 56c0 31 26 56 58 56c31 0 57 -25 57 -56c0 -32 -26 -56 -57 -56zM521 278c0 -26 -4 -48 -6 -58h-385c10 -97 83 -160 179 -160c61 0 109 26 149 66l45 -52c-49 -52 -115 -85 -195 -85c-147 0 -258 111 -258 254c0 142 109 255 249 255
c125 0 222 -90 222 -220zM297 428c-82 0 -147 -56 -164 -140h309c-1 90 -68 140 -145 140z" />
    <glyph glyph-name="egrave" unicode="&#xe8;" horiz-adv-x="571" 
d="M326 566h-59l-120 200v14h94zM521 278c0 -26 -4 -48 -6 -58h-385c10 -97 83 -160 179 -160c61 0 109 26 149 66l45 -52c-49 -52 -115 -85 -195 -85c-147 0 -258 111 -258 254c0 142 109 255 249 255c125 0 222 -90 222 -220zM297 428c-82 0 -147 -56 -164 -140h309
c-1 90 -68 140 -145 140z" />
    <glyph glyph-name="emacron" unicode="&#x113;" horiz-adv-x="571" 
d="M435 704v-62h-275v62h275zM521 278c0 -26 -4 -48 -6 -58h-385c10 -97 83 -160 179 -160c61 0 109 26 149 66l45 -52c-49 -52 -115 -85 -195 -85c-147 0 -258 111 -258 254c0 142 109 255 249 255c125 0 222 -90 222 -220zM297 428c-82 0 -147 -56 -164 -140h309
c-1 90 -68 140 -145 140z" />
    <glyph glyph-name="eogonek" unicode="&#x119;" horiz-adv-x="571" 
d="M521 278c0 -26 -4 -48 -6 -58h-385c10 -97 83 -160 179 -160c61 0 109 26 149 66l45 -52c-5 -5 -9 -10 -14 -14l-79 -84c-24 -26 -37 -41 -37 -68c0 -24 16 -37 47 -37c15 0 35 3 54 7v-58c-19 -6 -47 -11 -72 -11c-64 0 -107 34 -107 87c0 32 9 56 43 95
c-10 -1 -20 -2 -30 -2c-147 0 -258 111 -258 254c0 142 109 255 249 255c125 0 222 -90 222 -220zM297 428c-82 0 -147 -56 -164 -140h309c-1 90 -68 140 -145 140z" />
    <glyph glyph-name="uni0259" unicode="&#x259;" horiz-adv-x="571" 
d="M270 498c147 0 251 -111 251 -254c0 -142 -100 -255 -242 -255c-128 0 -229 90 -229 220c0 25 4 48 6 58h385c-9 97 -76 160 -172 160c-64 0 -115 -25 -156 -66l-45 52c50 53 119 85 202 85zM281 58c83 0 142 56 157 141h-308c3 -90 70 -141 151 -141z" />
    <glyph glyph-name="gbreve" unicode="&#x11f;" horiz-adv-x="637" 
d="M310 573c-90 0 -151 65 -151 158v31h63v-29c0 -61 35 -99 88 -99c55 0 89 38 89 99v29h63v-31c0 -94 -61 -158 -152 -158zM480 487h73v-440c0 -150 -95 -238 -237 -238c-102 0 -181 46 -229 94l45 54c47 -41 102 -77 182 -77c99 0 162 55 162 163v43
c-39 -51 -108 -81 -181 -81c-137 0 -239 104 -239 246c0 141 102 247 239 247c77 0 147 -33 185 -89v78zM307 76c85 0 170 53 170 175s-86 174 -170 174c-99 0 -173 -72 -173 -175s74 -174 173 -174z" />
    <glyph glyph-name="gcircumflex" unicode="&#x11d;" horiz-adv-x="637" 
d="M312 694l-101 -128h-59l136 214h47l135 -214h-58zM480 487h73v-440c0 -150 -95 -238 -237 -238c-102 0 -181 46 -229 94l45 54c47 -41 102 -77 182 -77c99 0 162 55 162 163v43c-39 -51 -108 -81 -181 -81c-137 0 -239 104 -239 246c0 141 102 247 239 247
c77 0 147 -33 185 -89v78zM307 76c85 0 170 53 170 175s-86 174 -170 174c-99 0 -173 -72 -173 -175s74 -174 173 -174z" />
    <glyph glyph-name="uni0123" unicode="&#x123;" horiz-adv-x="637" 
d="M363 780l-14 -214h-76l32 214h58zM480 487h73v-440c0 -150 -95 -238 -237 -238c-102 0 -181 46 -229 94l45 54c47 -41 102 -77 182 -77c99 0 162 55 162 163v43c-39 -51 -108 -81 -181 -81c-137 0 -239 104 -239 246c0 141 102 247 239 247c77 0 147 -33 185 -89v78z
M307 76c85 0 170 53 170 175s-86 174 -170 174c-99 0 -173 -72 -173 -175s74 -174 173 -174z" />
    <glyph glyph-name="gdotaccent" unicode="&#x121;" horiz-adv-x="637" 
d="M311 617c-32 0 -58 24 -58 56c0 31 26 56 58 56c31 0 57 -25 57 -56c0 -32 -26 -56 -57 -56zM480 487h73v-440c0 -150 -95 -238 -237 -238c-102 0 -181 46 -229 94l45 54c47 -41 102 -77 182 -77c99 0 162 55 162 163v43c-39 -51 -108 -81 -181 -81
c-137 0 -239 104 -239 246c0 141 102 247 239 247c77 0 147 -33 185 -89v78zM307 76c85 0 170 53 170 175s-86 174 -170 174c-99 0 -173 -72 -173 -175s74 -174 173 -174z" />
    <glyph glyph-name="hbar" unicode="&#x127;" horiz-adv-x="570" 
d="M311 484c114 0 181 -79 181 -191v-293h-77v284c0 76 -47 129 -121 129c-76 0 -130 -54 -130 -129v-284h-76v579h-83v68h83v103h76v-103h202v-68h-202v-162c33 42 84 67 147 67z" />
    <glyph glyph-name="hcircumflex" unicode="&#x125;" horiz-adv-x="566" 
d="M272 814l-110 108l-111 -108h-60l147 186h47l147 -186h-60zM308 498c114 0 180 -79 180 -192v-306h-77v296c0 77 -46 131 -121 131s-128 -55 -128 -131v-296h-77v750h77v-318c33 41 83 66 146 66z" />
    <glyph glyph-name="dotlessi" unicode="&#x131;" horiz-adv-x="246" 
d="M85 0v487h77v-487h-77z" />
    <glyph glyph-name="iacute" unicode="&#xed;" horiz-adv-x="246" 
d="M93 566l55 214h94v-14l-90 -200h-59zM85 0v487h77v-487h-77z" />
    <glyph glyph-name="ibreve" unicode="&#x12d;" horiz-adv-x="246" 
d="M123 573c-90 0 -151 65 -151 158v31h63v-29c0 -61 35 -99 88 -99c55 0 89 38 89 99v29h63v-31c0 -94 -61 -158 -152 -158zM85 0v487h77v-487h-77z" />
    <glyph glyph-name="icircumflex" unicode="&#xee;" horiz-adv-x="246" 
d="M148 780l135 -214h-58l-100 128l-101 -128h-59l136 214h47zM85 0v487h77v-487h-77z" />
    <glyph glyph-name="idieresis" unicode="&#xef;" horiz-adv-x="246" 
d="M32 620c-29 0 -55 24 -55 53c0 30 26 54 55 54c31 0 56 -24 56 -54c0 -29 -25 -53 -56 -53zM215 620c-29 0 -56 24 -56 53c0 30 27 54 56 54c30 0 55 -24 55 -54c0 -29 -25 -53 -55 -53zM85 0v487h77v-487h-77z" />
    <glyph glyph-name="igrave" unicode="&#xec;" horiz-adv-x="246" 
d="M95 566l-90 200v14h94l55 -214h-59zM85 0v487h77v-487h-77z" />
    <glyph glyph-name="ij" unicode="&#x133;" horiz-adv-x="492" 
d="M124 617c-32 0 -58 24 -58 56c0 31 26 56 58 56c31 0 57 -25 57 -56c0 -32 -26 -56 -57 -56zM370 617c-32 0 -58 24 -58 56c0 31 26 56 58 56c31 0 57 -25 57 -56c0 -32 -26 -56 -57 -56zM85 0v487h77v-487h-77zM248 -191c-25 0 -44 3 -62 8v65c17 -2 29 -3 45 -3
c59 0 100 21 100 93v515h77v-520c0 -111 -67 -158 -160 -158z" />
    <glyph glyph-name="imacron" unicode="&#x12b;" horiz-adv-x="246" 
d="M14 641v64h220v-64h-220zM85 0v487h77v-487h-77z" />
    <glyph glyph-name="iogonek" unicode="&#x12f;" horiz-adv-x="246" 
d="M124 729c31 0 57 -25 57 -56c0 -32 -26 -56 -57 -56c-32 0 -58 24 -58 56c0 31 26 56 58 56zM85 11v476h77v-487l-50 -33c-30 -20 -52 -33 -52 -59c0 -24 17 -37 48 -37c15 0 35 3 54 7v-58c-19 -6 -47 -11 -72 -11c-63 0 -108 34 -108 87c0 42 29 73 103 115z" />
    <glyph glyph-name="itilde" unicode="&#x129;" horiz-adv-x="246" 
d="M189 596c-26 0 -46 12 -65 30l-19 18c-14 13 -22 23 -36 23c-21 0 -27 -20 -27 -41v-17h-64c-1 5 -2 15 -2 24c0 57 30 105 84 105c25 0 47 -11 65 -29l19 -19c15 -15 23 -23 36 -23c20 0 26 19 26 41v17h63c1 -5 2 -15 2 -24c0 -57 -30 -105 -82 -105zM85 0v487h77v-487
h-77z" />
    <glyph glyph-name="uni0237" unicode="&#x237;" horiz-adv-x="246" 
d="M2 -191c-25 0 -44 3 -62 8v65c17 -2 29 -3 45 -3c59 0 100 21 100 93v515h77v-520c0 -111 -67 -158 -160 -158z" />
    <glyph glyph-name="jcircumflex" unicode="&#x135;" horiz-adv-x="246" 
d="M148 780l135 -214h-58l-100 128l-101 -128h-59l136 214h47zM85 -28v515h77v-520c0 -111 -67 -158 -160 -158c-25 0 -44 3 -62 8v65c17 -2 29 -3 45 -3c59 0 100 21 100 93z" />
    <glyph glyph-name="uni0137" unicode="&#x137;" horiz-adv-x="506" 
d="M85 0v750h77v-750h-77zM263 273l230 -273h-99l-224 274l203 213h101zM206 -220l9 171h76l-25 -171h-60z" />
    <glyph glyph-name="lacute" unicode="&#x13a;" horiz-adv-x="246" 
d="M94 814l85 186h94v-14l-120 -172h-59zM85 0v750h77v-750h-77z" />
    <glyph glyph-name="lcaron" unicode="&#x13e;" horiz-adv-x="358" 
d="M85 0v750h77v-750h-77zM262 539l13 211h83l-38 -211h-58z" />
    <glyph glyph-name="uni013C" unicode="&#x13c;" horiz-adv-x="246" 
d="M85 0v750h77v-750h-77zM76 -220l9 171h76l-25 -171h-60z" />
    <glyph glyph-name="ldot" unicode="&#x140;" horiz-adv-x="299" 
d="M85 0v750h77v-750h-77zM276 251c-34 0 -63 25 -63 63c0 37 29 63 63 63s63 -26 63 -63c0 -38 -29 -63 -63 -63z" />
    <glyph glyph-name="lslash" unicode="&#x142;" horiz-adv-x="360" 
d="M298 450v-73l-87 -40v-337h-77v310l-78 -36v73l78 37v366h77v-340z" />
    <glyph glyph-name="nacute" unicode="&#x144;" horiz-adv-x="566" 
d="M437 766l-120 -200h-59l85 214h94v-14zM307 498c115 0 181 -79 181 -192v-306h-77v297c0 77 -46 130 -121 130s-128 -54 -128 -130v-297h-77v487h72v-52c35 39 87 63 150 63z" />
    <glyph glyph-name="ncaron" unicode="&#x148;" horiz-adv-x="566" 
d="M309 566h-47l-136 214h59l101 -128l100 128h58zM307 498c115 0 181 -79 181 -192v-306h-77v297c0 77 -46 130 -121 130s-128 -54 -128 -130v-297h-77v487h72v-52c35 39 87 63 150 63z" />
    <glyph glyph-name="uni0146" unicode="&#x146;" horiz-adv-x="566" 
d="M307 498c115 0 181 -79 181 -192v-306h-77v297c0 77 -46 130 -121 130s-128 -54 -128 -130v-297h-77v487h72v-52c35 39 87 63 150 63zM237 -220l9 171h76l-25 -171h-60z" />
    <glyph glyph-name="eng" unicode="&#x14b;" horiz-adv-x="566" 
d="M307 498c115 0 181 -79 181 -192v-339c0 -111 -67 -158 -160 -158c-24 0 -44 3 -62 8v65c17 -2 30 -3 44 -3c60 0 101 20 101 93v324c0 77 -46 131 -121 131s-128 -55 -128 -131v-296h-77v487h72v-52c35 39 87 63 150 63z" />
    <glyph glyph-name="ntilde" unicode="&#xf1;" horiz-adv-x="566" 
d="M193 609h-64c-1 9 -1 16 -1 25c0 59 32 104 85 104c25 0 48 -9 68 -26l26 -22c16 -14 29 -23 42 -23c21 0 28 19 28 41v17h64c1 -9 1 -17 1 -25c0 -58 -31 -104 -85 -104c-22 0 -48 9 -68 26l-26 22c-16 13 -24 23 -42 23c-21 0 -28 -18 -28 -41v-17zM307 498
c115 0 181 -79 181 -192v-306h-77v297c0 77 -46 130 -121 130s-128 -54 -128 -130v-297h-77v487h72v-52c35 39 87 63 150 63z" />
    <glyph glyph-name="oacute" unicode="&#xf3;" horiz-adv-x="610" 
d="M278 566l85 214h94v-14l-120 -200h-59zM304 -10c-142 0 -254 113 -254 254c0 143 112 254 255 254c142 0 255 -112 255 -254c0 -141 -113 -254 -256 -254zM304 61c100 0 177 79 177 182c0 105 -76 184 -176 184c-101 0 -176 -79 -176 -184c0 -104 75 -182 175 -182z" />
    <glyph glyph-name="obreve" unicode="&#x14f;" horiz-adv-x="610" 
d="M304 573c-90 0 -151 65 -151 158v31h63v-29c0 -61 35 -99 88 -99c55 0 89 38 89 99v29h63v-31c0 -94 -61 -158 -152 -158zM304 -10c-142 0 -254 113 -254 254c0 143 112 254 255 254c142 0 255 -112 255 -254c0 -141 -113 -254 -256 -254zM304 61c100 0 177 79 177 182
c0 105 -76 184 -176 184c-101 0 -176 -79 -176 -184c0 -104 75 -182 175 -182z" />
    <glyph glyph-name="ocircumflex" unicode="&#xf4;" horiz-adv-x="610" 
d="M306 694l-101 -128h-59l136 214h47l135 -214h-58zM305 498c142 0 255 -112 255 -254c0 -141 -113 -254 -256 -254c-142 0 -254 113 -254 254c0 143 112 254 255 254zM304 61c100 0 177 79 177 182c0 105 -76 184 -176 184c-101 0 -176 -79 -176 -184
c0 -104 75 -182 175 -182z" />
    <glyph glyph-name="odieresis" unicode="&#xf6;" horiz-adv-x="610" 
d="M198 620c-28 0 -55 24 -55 53c0 30 27 54 55 54c31 0 56 -24 56 -54c0 -29 -25 -53 -56 -53zM411 620c-29 0 -56 24 -56 53c0 30 27 54 56 54c30 0 55 -24 55 -54c0 -29 -25 -53 -55 -53zM304 -10c-142 0 -254 113 -254 254c0 143 112 254 255 254
c142 0 255 -112 255 -254c0 -141 -113 -254 -256 -254zM304 61c100 0 177 79 177 182c0 105 -76 184 -176 184c-101 0 -176 -79 -176 -184c0 -104 75 -182 175 -182z" />
    <glyph glyph-name="ograve" unicode="&#xf2;" horiz-adv-x="610" 
d="M275 566l-120 200v14h94l85 -214h-59zM304 -10c-142 0 -254 113 -254 254c0 143 112 254 255 254c142 0 255 -112 255 -254c0 -141 -113 -254 -256 -254zM304 61c100 0 177 79 177 182c0 105 -76 184 -176 184c-101 0 -176 -79 -176 -184c0 -104 75 -182 175 -182z" />
    <glyph glyph-name="ohungarumlaut" unicode="&#x151;" horiz-adv-x="610" 
d="M173 566l86 214h83v-14l-114 -200h-55zM372 566l86 214h83v-14l-114 -200h-55zM304 -10c-142 0 -254 113 -254 254c0 143 112 254 255 254c142 0 255 -112 255 -254c0 -141 -113 -254 -256 -254zM304 61c100 0 177 79 177 182c0 105 -76 184 -176 184
c-101 0 -176 -79 -176 -184c0 -104 75 -182 175 -182z" />
    <glyph glyph-name="omacron" unicode="&#x14d;" horiz-adv-x="610" 
d="M168 642v62h275v-62h-275zM304 -10c-142 0 -254 113 -254 254c0 143 112 254 255 254c142 0 255 -112 255 -254c0 -141 -113 -254 -256 -254zM304 61c100 0 177 79 177 182c0 105 -76 184 -176 184c-101 0 -176 -79 -176 -184c0 -104 75 -182 175 -182z" />
    <glyph glyph-name="oslash" unicode="&#xf8;" horiz-adv-x="620" 
d="M572 458l-59 -60c33 -43 52 -96 52 -155c0 -141 -115 -254 -256 -254c-58 0 -111 19 -154 52l-58 -60l-48 48l59 59c-33 43 -52 97 -52 155c0 143 112 255 254 255c58 0 112 -19 155 -52l59 58zM310 430c-105 0 -180 -80 -180 -187c0 -40 11 -77 30 -107l258 260
c-30 21 -67 34 -108 34zM309 55c104 0 182 82 182 188c0 41 -11 77 -30 107l-259 -259c29 -23 66 -36 107 -36z" />
    <glyph glyph-name="oslashacute" unicode="&#x1ff;" horiz-adv-x="620" 
d="M463 766l-120 -200h-59l85 214h94v-14zM572 458l-59 -60c33 -43 52 -96 52 -155c0 -141 -115 -254 -256 -254c-58 0 -111 19 -154 52l-58 -60l-48 48l59 59c-33 43 -52 97 -52 155c0 143 112 255 254 255c58 0 112 -19 155 -52l59 58zM310 430c-105 0 -180 -80 -180 -187
c0 -40 11 -77 30 -107l258 260c-30 21 -67 34 -108 34zM309 55c104 0 182 82 182 188c0 41 -11 77 -30 107l-259 -259c29 -23 66 -36 107 -36z" />
    <glyph glyph-name="otilde" unicode="&#xf5;" horiz-adv-x="610" 
d="M377 596c-22 0 -48 9 -68 26l-26 22c-16 13 -24 23 -42 23c-21 0 -28 -18 -28 -41v-17h-64c-1 9 -1 16 -1 25c0 59 32 104 85 104c25 0 48 -9 68 -26l26 -22c16 -14 29 -23 42 -23c21 0 28 19 28 41v17h64c1 -9 1 -17 1 -25c0 -58 -31 -104 -85 -104zM304 -10
c-142 0 -254 113 -254 254c0 143 112 254 255 254c142 0 255 -112 255 -254c0 -141 -113 -254 -256 -254zM304 61c100 0 177 79 177 182c0 105 -76 184 -176 184c-101 0 -176 -79 -176 -184c0 -104 75 -182 175 -182z" />
    <glyph glyph-name="oe" unicode="&#x153;" horiz-adv-x="981" 
d="M931 277c0 -26 -4 -48 -6 -58h-378c10 -97 80 -159 174 -159c58 0 104 23 145 65l47 -51c-51 -54 -120 -85 -194 -85c-91 0 -169 48 -211 122c-40 -74 -113 -122 -206 -122c-141 0 -252 111 -252 254c0 144 113 255 253 255c92 0 166 -48 205 -123c42 74 117 122 205 122
c119 0 218 -90 218 -220zM302 60c101 0 169 80 169 183c0 104 -68 184 -168 184c-101 0 -174 -80 -174 -184s73 -183 173 -183zM708 427c-79 0 -142 -55 -158 -140h302c-2 90 -68 140 -144 140z" />
    <glyph glyph-name="thorn" unicode="&#xfe;" horiz-adv-x="632" 
d="M341 498c140 0 241 -111 241 -254c0 -144 -102 -255 -241 -255c-71 0 -139 30 -179 81v-250h-77v930h77v-334c39 51 106 82 179 82zM330 60c99 0 173 77 173 183s-73 184 -173 184c-84 0 -169 -55 -169 -183s84 -184 169 -184z" />
    <glyph glyph-name="racute" unicode="&#x155;" horiz-adv-x="362" 
d="M324 766l-120 -200h-59l85 214h94v-14zM308 491c16 0 26 -2 36 -4v-68h-29c-79 0 -153 -50 -153 -143v-276h-77v487h72v-69c36 48 93 73 151 73z" />
    <glyph glyph-name="rcaron" unicode="&#x159;" horiz-adv-x="362" 
d="M197 566h-47l-136 214h59l101 -128l100 128h58zM308 491c16 0 26 -2 36 -4v-68h-29c-79 0 -153 -50 -153 -143v-276h-77v487h72v-69c36 48 93 73 151 73z" />
    <glyph glyph-name="uni0157" unicode="&#x157;" horiz-adv-x="362" 
d="M308 491c16 0 26 -2 36 -4v-68h-29c-79 0 -153 -50 -153 -143v-276h-77v487h72v-69c36 48 93 73 151 73zM75 -220l9 171h76l-25 -171h-60z" />
    <glyph glyph-name="sacute" unicode="&#x15b;" horiz-adv-x="454" 
d="M203 566l85 214h94v-14l-120 -200h-59zM229 -11c-86 0 -151 43 -190 95l49 51c40 -42 81 -75 140 -75c51 0 93 25 93 69c0 42 -36 58 -85 78l-47 20c-74 31 -121 66 -121 135c0 88 75 136 164 136c70 0 125 -30 163 -77l-47 -48c-32 33 -74 54 -120 54s-81 -21 -81 -61
c0 -33 25 -48 79 -71l45 -19c87 -37 129 -75 129 -144c0 -95 -81 -143 -171 -143z" />
    <glyph glyph-name="scaron" unicode="&#x161;" horiz-adv-x="454" 
d="M254 566h-47l-136 214h59l101 -128l100 128h58zM271 276c87 -37 129 -75 129 -144c0 -95 -81 -143 -171 -143c-86 0 -151 43 -190 95l49 51c40 -42 81 -75 140 -75c51 0 93 25 93 69c0 42 -36 58 -85 78l-47 20c-74 31 -121 66 -121 135c0 88 75 136 164 136
c70 0 125 -30 163 -77l-47 -48c-32 33 -74 54 -120 54s-81 -21 -81 -61c0 -33 25 -48 79 -71z" />
    <glyph glyph-name="scedilla" unicode="&#x15f;" horiz-adv-x="454" 
d="M400 132c0 -75 -50 -120 -115 -136c17 -19 27 -44 27 -72c0 -63 -48 -115 -132 -115c-23 0 -47 4 -68 10v55c23 -3 45 -4 56 -4c44 0 78 19 78 65c0 21 -7 39 -17 54c-86 0 -151 43 -190 95l49 51c40 -42 81 -75 140 -75c51 0 93 25 93 69c0 42 -36 58 -85 78l-47 20
c-74 31 -121 66 -121 135c0 88 75 136 164 136c70 0 125 -30 163 -77l-47 -48c-32 33 -74 54 -120 54s-81 -21 -81 -61c0 -33 25 -48 79 -71l45 -19c87 -37 129 -75 129 -144z" />
    <glyph glyph-name="scircumflex" unicode="&#x15d;" horiz-adv-x="454" 
d="M231 694l-101 -128h-59l136 214h47l135 -214h-58zM271 276c87 -37 129 -75 129 -144c0 -95 -81 -143 -171 -143c-86 0 -151 43 -190 95l49 51c40 -42 81 -75 140 -75c51 0 93 25 93 69c0 42 -36 58 -85 78l-47 20c-74 31 -121 66 -121 135c0 88 75 136 164 136
c70 0 125 -30 163 -77l-47 -48c-32 33 -74 54 -120 54s-81 -21 -81 -61c0 -33 25 -48 79 -71z" />
    <glyph glyph-name="uni0219" unicode="&#x219;" horiz-adv-x="454" 
d="M229 -11c-86 0 -151 43 -190 95l49 51c40 -42 81 -75 140 -75c51 0 93 25 93 69c0 42 -36 58 -85 78l-47 20c-74 31 -121 66 -121 135c0 88 75 136 164 136c70 0 125 -30 163 -77l-47 -48c-32 33 -74 54 -120 54s-81 -21 -81 -61c0 -33 25 -48 79 -71l45 -19
c87 -37 129 -75 129 -144c0 -95 -81 -143 -171 -143zM194 -220l9 171h76l-25 -171h-60z" />
    <glyph glyph-name="germandbls" unicode="&#xdf;" horiz-adv-x="611" 
d="M413 -11c-72 0 -126 28 -165 68l43 56c35 -34 77 -53 128 -53c49 0 86 18 86 61c0 44 -40 62 -88 90c-63 37 -107 71 -107 125c0 16 7 50 18 79l42 116c11 30 15 54 15 72c0 51 -34 87 -95 87c-72 0 -129 -50 -129 -153v-537h-76v540c0 140 86 221 210 221
c100 0 169 -54 169 -146c0 -17 -3 -47 -14 -78l-42 -121c-9 -26 -17 -49 -17 -67c0 -36 32 -52 82 -82c68 -41 110 -78 110 -142c0 -86 -76 -136 -170 -136z" />
    <glyph glyph-name="tbar" unicode="&#x167;" horiz-adv-x="394" 
d="M293 59c23 0 42 2 67 6v-65c-24 -6 -50 -11 -81 -11c-95 0 -163 47 -163 158v72h-83v66h83v135h-83v67h83v133h76v-133h152v-67h-152v-135h152v-66h-152v-67c0 -72 41 -93 101 -93z" />
    <glyph glyph-name="tcaron" unicode="&#x165;" horiz-adv-x="381" 
d="M375 750l-39 -211h-58l14 211h83zM183 152c0 -73 42 -93 103 -93c19 0 40 2 65 6v-65c-25 -6 -50 -11 -81 -11c-96 0 -164 47 -164 158v271h-82v69h82v133h77v-133h152v-69h-152v-266z" />
    <glyph glyph-name="uni0163" unicode="&#x163;" horiz-adv-x="381" 
d="M351 65v-65c-25 -6 -49 -11 -79 -11c13 -18 21 -40 21 -65c0 -63 -48 -115 -132 -115c-23 0 -47 4 -68 10v55c23 -3 45 -4 56 -4c44 0 78 19 78 65c0 26 -11 47 -24 63c-59 19 -97 66 -97 149v271h-82v69h82v133h77v-133h152v-69h-152v-266c0 -73 42 -93 103 -93
c19 0 40 2 65 6z" />
    <glyph glyph-name="uni021B" unicode="&#x21b;" horiz-adv-x="381" 
d="M286 59c19 0 40 2 65 6v-65c-25 -6 -50 -11 -81 -11c-96 0 -164 47 -164 158v271h-82v69h82v133h77v-133h152v-69h-152v-266c0 -73 42 -93 103 -93zM174 -220l9 171h76l-25 -171h-60z" />
    <glyph glyph-name="uacute" unicode="&#xfa;" 
d="M252 566l85 214h94v-14l-120 -200h-59zM281 -11c-114 0 -202 80 -202 205v293h76v-298c0 -80 56 -129 126 -129c68 0 124 49 124 129v298h77v-293c0 -125 -89 -205 -201 -205z" />
    <glyph glyph-name="ubreve" unicode="&#x16d;" 
d="M279 573c-90 0 -151 65 -151 158v31h63v-29c0 -61 35 -99 88 -99c55 0 89 38 89 99v29h63v-31c0 -94 -61 -158 -152 -158zM281 -11c-114 0 -202 80 -202 205v293h76v-298c0 -80 56 -129 126 -129c68 0 124 49 124 129v298h77v-293c0 -125 -89 -205 -201 -205z" />
    <glyph glyph-name="uni01D4" unicode="&#x1d4;" 
d="M304 566h-47l-136 214h59l101 -128l100 128h58zM405 487h77v-293c0 -125 -89 -205 -201 -205c-114 0 -202 80 -202 205v293h76v-298c0 -80 56 -129 126 -129c68 0 124 49 124 129v298z" />
    <glyph glyph-name="ucircumflex" unicode="&#xfb;" 
d="M281 694l-101 -128h-59l136 214h47l135 -214h-58zM405 487h77v-293c0 -125 -89 -205 -201 -205c-114 0 -202 80 -202 205v293h76v-298c0 -80 56 -129 126 -129c68 0 124 49 124 129v298z" />
    <glyph glyph-name="udieresis" unicode="&#xfc;" 
d="M173 620c-28 0 -55 24 -55 53c0 30 27 54 55 54c31 0 56 -24 56 -54c0 -29 -25 -53 -56 -53zM386 620c-29 0 -56 24 -56 53c0 30 27 54 56 54c30 0 55 -24 55 -54c0 -29 -25 -53 -55 -53zM281 -11c-114 0 -202 80 -202 205v293h76v-298c0 -80 56 -129 126 -129
c68 0 124 49 124 129v298h77v-293c0 -125 -89 -205 -201 -205z" />
    <glyph glyph-name="ugrave" unicode="&#xf9;" 
d="M250 566l-120 200v14h94l85 -214h-59zM281 -11c-114 0 -202 80 -202 205v293h76v-298c0 -80 56 -129 126 -129c68 0 124 49 124 129v298h77v-293c0 -125 -89 -205 -201 -205z" />
    <glyph glyph-name="uhungarumlaut" unicode="&#x171;" 
d="M148 566l86 214h83v-14l-114 -200h-55zM347 566l86 214h83v-14l-114 -200h-55zM281 -11c-114 0 -202 80 -202 205v293h76v-298c0 -80 56 -129 126 -129c68 0 124 49 124 129v298h77v-293c0 -125 -89 -205 -201 -205z" />
    <glyph glyph-name="umacron" unicode="&#x16b;" 
d="M143 642v62h275v-62h-275zM281 -11c-114 0 -202 80 -202 205v293h76v-298c0 -80 56 -129 126 -129c68 0 124 49 124 129v298h77v-293c0 -125 -89 -205 -201 -205z" />
    <glyph glyph-name="uogonek" unicode="&#x173;" 
d="M405 487h77v-293c0 -106 -49 -142 -125 -210c-30 -28 -49 -47 -49 -74c0 -28 20 -42 52 -42c16 0 35 3 53 7v-53c-19 -6 -45 -13 -74 -13c-60 0 -104 27 -104 84c0 36 19 67 57 96h-11c-115 0 -202 80 -202 205v293h76v-298c0 -80 56 -129 126 -129c68 0 124 49 124 129
v298z" />
    <glyph glyph-name="uring" unicode="&#x16f;" 
d="M279 559c-62 0 -110 48 -110 109s47 108 110 108s111 -46 111 -108c0 -61 -48 -109 -111 -109zM280 618c28 0 50 21 50 50s-23 52 -50 52c-28 0 -51 -23 -51 -52s22 -50 51 -50zM281 -11c-114 0 -202 80 -202 205v293h76v-298c0 -80 56 -129 126 -129
c68 0 124 49 124 129v298h77v-293c0 -125 -89 -205 -201 -205z" />
    <glyph glyph-name="utilde" unicode="&#x169;" 
d="M352 596c-22 0 -48 9 -68 26l-26 22c-16 13 -24 23 -42 23c-21 0 -28 -18 -28 -41v-17h-64c-1 9 -1 16 -1 25c0 59 32 104 85 104c25 0 48 -9 68 -26l26 -22c16 -14 29 -23 42 -23c21 0 28 19 28 41v17h64c1 -9 1 -17 1 -25c0 -58 -31 -104 -85 -104zM281 -11
c-114 0 -202 80 -202 205v293h76v-298c0 -80 56 -129 126 -129c68 0 124 49 124 129v298h77v-293c0 -125 -89 -205 -201 -205z" />
    <glyph glyph-name="wacute" unicode="&#x1e83;" horiz-adv-x="851" 
d="M575 766l-120 -200h-59l85 214h94v-14zM742 487h82l-205 -498h-28l-166 368l-165 -368h-27l-207 498h82l141 -361l162 372h29l164 -369z" />
    <glyph glyph-name="wcircumflex" unicode="&#x175;" horiz-adv-x="851" 
d="M424 694l-101 -128h-59l136 214h47l135 -214h-58zM742 487h82l-205 -498h-28l-166 368l-165 -368h-27l-207 498h82l141 -361l162 372h29l164 -369z" />
    <glyph glyph-name="wdieresis" unicode="&#x1e85;" horiz-adv-x="851" 
d="M316 620c-28 0 -55 24 -55 53c0 30 27 54 55 54c31 0 56 -24 56 -54c0 -29 -25 -53 -56 -53zM529 620c-29 0 -56 24 -56 53c0 30 27 54 56 54c30 0 55 -24 55 -54c0 -29 -25 -53 -55 -53zM742 487h82l-205 -498h-28l-166 368l-165 -368h-27l-207 498h82l141 -361l162 372
h29l164 -369z" />
    <glyph glyph-name="wgrave" unicode="&#x1e81;" horiz-adv-x="851" 
d="M452 566h-59l-120 200v14h94zM742 487h82l-205 -498h-28l-166 368l-165 -368h-27l-207 498h82l141 -361l162 372h29l164 -369z" />
    <glyph glyph-name="yacute" unicode="&#xfd;" horiz-adv-x="539" 
d="M418 766l-120 -200h-59l85 214h94v-14zM431 487h82l-240 -555c-38 -87 -91 -123 -165 -123c-24 0 -52 4 -75 10v65c23 -3 42 -5 59 -5c47 0 83 16 110 78l26 58l-202 472h83l161 -388z" />
    <glyph glyph-name="ycircumflex" unicode="&#x177;" horiz-adv-x="539" 
d="M268 694l-101 -128h-59l136 214h47l135 -214h-58zM431 487h82l-240 -555c-38 -87 -91 -123 -165 -123c-24 0 -52 4 -75 10v65c23 -3 42 -5 59 -5c47 0 83 16 110 78l26 58l-202 472h83l161 -388z" />
    <glyph glyph-name="ydieresis" unicode="&#xff;" horiz-adv-x="539" 
d="M160 620c-28 0 -55 24 -55 53c0 30 27 54 55 54c31 0 56 -24 56 -54c0 -29 -25 -53 -56 -53zM373 620c-29 0 -56 24 -56 53c0 30 27 54 56 54c30 0 55 -24 55 -54c0 -29 -25 -53 -55 -53zM431 487h82l-240 -555c-38 -87 -91 -123 -165 -123c-24 0 -52 4 -75 10v65
c23 -3 42 -5 59 -5c47 0 83 16 110 78l26 58l-202 472h83l161 -388z" />
    <glyph glyph-name="ygrave" unicode="&#x1ef3;" horiz-adv-x="539" 
d="M296 566h-59l-120 200v14h94zM431 487h82l-240 -555c-38 -87 -91 -123 -165 -123c-24 0 -52 4 -75 10v65c23 -3 42 -5 59 -5c47 0 83 16 110 78l26 58l-202 472h83l161 -388z" />
    <glyph glyph-name="zacute" unicode="&#x17a;" horiz-adv-x="454" 
d="M389 766l-120 -200h-59l85 214h94v-14zM145 68h282v-68h-400v23l278 395h-255v69h374v-23z" />
    <glyph glyph-name="zcaron" unicode="&#x17e;" horiz-adv-x="454" 
d="M261 566h-47l-136 214h59l101 -128l100 128h58zM145 68h282v-68h-400v23l278 395h-255v69h374v-23z" />
    <glyph glyph-name="zdotaccent" unicode="&#x17c;" horiz-adv-x="454" 
d="M237 617c-32 0 -58 24 -58 56c0 31 26 56 58 56c31 0 57 -25 57 -56c0 -32 -26 -56 -57 -56zM145 68h282v-68h-400v23l278 395h-255v69h374v-23z" />
    <glyph glyph-name="iacute_j.loclNLD" horiz-adv-x="492" 
d="M93 566l55 214h94v-14l-90 -200h-59zM340 566l55 214h94v-14l-90 -200h-59zM85 0v487h77v-487h-77zM248 -191c-25 0 -44 3 -62 8v65c17 -2 29 -3 45 -3c59 0 100 21 100 93v515h77v-520c0 -111 -67 -158 -160 -158z" />
    <glyph glyph-name="cacute.loclPLK" horiz-adv-x="551" 
d="M273 566l45 214h94v-14l-80 -200h-59zM305 -11c-142 0 -255 112 -255 255c0 142 113 254 255 254c88 0 158 -42 201 -106l-55 -44c-36 48 -82 79 -145 79c-102 0 -177 -81 -177 -183c0 -103 75 -184 177 -184c62 0 108 30 144 78l55 -43c-43 -64 -113 -106 -200 -106z
" />
    <glyph glyph-name="nacute.loclPLK" horiz-adv-x="566" 
d="M393 766l-80 -200h-59l45 214h94v-14zM307 498c115 0 181 -79 181 -192v-306h-77v297c0 77 -46 130 -121 130s-128 -54 -128 -130v-297h-77v487h72v-52c35 39 87 63 150 63z" />
    <glyph glyph-name="oacute.loclPLK" horiz-adv-x="610" 
d="M274 566l45 214h94v-14l-80 -200h-59zM304 -10c-142 0 -254 113 -254 254c0 143 112 254 255 254c142 0 255 -112 255 -254c0 -141 -113 -254 -256 -254zM304 61c100 0 177 79 177 182c0 105 -76 184 -176 184c-101 0 -176 -79 -176 -184c0 -104 75 -182 175 -182z" />
    <glyph glyph-name="sacute.loclPLK" horiz-adv-x="454" 
d="M199 566l45 214h94v-14l-80 -200h-59zM229 -11c-86 0 -151 43 -190 95l49 51c40 -42 81 -75 140 -75c51 0 93 25 93 69c0 42 -36 58 -85 78l-47 20c-74 31 -121 66 -121 135c0 88 75 136 164 136c70 0 125 -30 163 -77l-47 -48c-32 33 -74 54 -120 54s-81 -21 -81 -61
c0 -33 25 -48 79 -71l45 -19c87 -37 129 -75 129 -144c0 -95 -81 -143 -171 -143z" />
    <glyph glyph-name="zacute.loclPLK" horiz-adv-x="454" 
d="M345 766l-80 -200h-59l45 214h94v-14zM145 68h282v-68h-400v23l278 395h-255v69h374v-23z" />
    <glyph glyph-name="i.loclTRK.loclTRK" horiz-adv-x="246" 
d="M124 617c-32 0 -58 24 -58 56c0 31 26 56 58 56c31 0 57 -25 57 -56c0 -32 -26 -56 -57 -56zM85 0v487h77v-487h-77z" />
    <glyph glyph-name="a.ss01" horiz-adv-x="632" 
d="M475 487h73v-487h-77v71c-39 -52 -108 -82 -180 -82c-138 0 -241 111 -241 255c0 143 102 254 241 254c76 0 146 -33 184 -89v78zM302 60c84 0 170 56 170 184s-86 183 -170 183c-100 0 -173 -79 -173 -184c0 -106 74 -183 173 -183z" />
    <glyph glyph-name="y.ss01" horiz-adv-x="566" 
d="M405 487h77v-464c0 -139 -92 -214 -212 -214c-86 0 -153 38 -203 95l47 53c45 -47 90 -76 153 -76c76 0 138 43 138 138v52c-34 -39 -86 -62 -148 -62c-116 0 -178 82 -178 193v285h76v-275c0 -77 44 -132 121 -132c75 0 129 53 129 129v278z" />
    <glyph glyph-name="aacute.ss01" horiz-adv-x="632" 
d="M462 766l-120 -200h-59l85 214h94v-14zM475 487h73v-487h-77v71c-39 -52 -108 -82 -180 -82c-138 0 -241 111 -241 255c0 143 102 254 241 254c76 0 146 -33 184 -89v78zM302 60c84 0 170 56 170 184s-86 183 -170 183c-100 0 -173 -79 -173 -184
c0 -106 74 -183 173 -183z" />
    <glyph glyph-name="abreve.ss01" horiz-adv-x="632" 
d="M309 573c-90 0 -151 65 -151 158v31h63v-29c0 -61 35 -99 88 -99c55 0 89 38 89 99v29h63v-31c0 -94 -61 -158 -152 -158zM475 487h73v-487h-77v71c-39 -52 -108 -82 -180 -82c-138 0 -241 111 -241 255c0 143 102 254 241 254c76 0 146 -33 184 -89v78zM302 60
c84 0 170 56 170 184s-86 183 -170 183c-100 0 -173 -79 -173 -184c0 -106 74 -183 173 -183z" />
    <glyph glyph-name="acircumflex.ss01" horiz-adv-x="632" 
d="M311 694l-101 -128h-59l136 214h47l135 -214h-58zM475 487h73v-487h-77v71c-39 -52 -108 -82 -180 -82c-138 0 -241 111 -241 255c0 143 102 254 241 254c76 0 146 -33 184 -89v78zM302 60c84 0 170 56 170 184s-86 183 -170 183c-100 0 -173 -79 -173 -184
c0 -106 74 -183 173 -183z" />
    <glyph glyph-name="adieresis.ss01" horiz-adv-x="632" 
d="M203 620c-28 0 -55 24 -55 53c0 30 27 54 55 54c31 0 56 -24 56 -54c0 -29 -25 -53 -56 -53zM416 620c-29 0 -56 24 -56 53c0 30 27 54 56 54c30 0 55 -24 55 -54c0 -29 -25 -53 -55 -53zM475 487h73v-487h-77v71c-39 -52 -108 -82 -180 -82c-138 0 -241 111 -241 255
c0 143 102 254 241 254c76 0 146 -33 184 -89v78zM302 60c84 0 170 56 170 184s-86 183 -170 183c-100 0 -173 -79 -173 -184c0 -106 74 -183 173 -183z" />
    <glyph glyph-name="agrave.ss01" horiz-adv-x="632" 
d="M340 566h-59l-120 200v14h94zM475 487h73v-487h-77v71c-39 -52 -108 -82 -180 -82c-138 0 -241 111 -241 255c0 143 102 254 241 254c76 0 146 -33 184 -89v78zM302 60c84 0 170 56 170 184s-86 183 -170 183c-100 0 -173 -79 -173 -184c0 -106 74 -183 173 -183z" />
    <glyph glyph-name="amacron.ss01" horiz-adv-x="632" 
d="M448 704v-62h-275v62h275zM475 487h73v-487h-77v71c-39 -52 -108 -82 -180 -82c-138 0 -241 111 -241 255c0 143 102 254 241 254c76 0 146 -33 184 -89v78zM302 60c84 0 170 56 170 184s-86 183 -170 183c-100 0 -173 -79 -173 -184c0 -106 74 -183 173 -183z" />
    <glyph glyph-name="aogonek.ss01" horiz-adv-x="632" 
d="M498 -33c-30 -20 -52 -33 -52 -59c0 -24 17 -37 48 -37c15 0 35 3 54 7v-58c-19 -6 -47 -11 -72 -11c-63 0 -107 34 -107 87c0 42 28 73 102 114v61c-39 -52 -108 -82 -180 -82c-138 0 -241 111 -241 255c0 143 102 254 241 254c76 0 146 -33 184 -89v78h73v-487zM302 60
c84 0 170 56 170 184s-86 183 -170 183c-100 0 -173 -79 -173 -184c0 -106 74 -183 173 -183z" />
    <glyph glyph-name="aring.ss01" horiz-adv-x="632" 
d="M309 559c-62 0 -110 48 -110 109s47 108 110 108s111 -46 111 -108c0 -61 -48 -109 -111 -109zM310 720c-28 0 -51 -23 -51 -52s22 -50 51 -50c28 0 50 21 50 50s-23 52 -50 52zM475 487h73v-487h-77v71c-39 -52 -108 -82 -180 -82c-138 0 -241 111 -241 255
c0 143 102 254 241 254c76 0 146 -33 184 -89v78zM302 60c84 0 170 56 170 184s-86 183 -170 183c-100 0 -173 -79 -173 -184c0 -106 74 -183 173 -183z" />
    <glyph glyph-name="atilde.ss01" horiz-adv-x="632" 
d="M218 609h-64c-1 9 -1 16 -1 25c0 59 32 104 85 104c25 0 48 -9 68 -26l26 -22c16 -14 29 -23 42 -23c21 0 28 19 28 41v17h64c1 -9 1 -17 1 -25c0 -58 -31 -104 -85 -104c-22 0 -48 9 -68 26l-26 22c-16 13 -24 23 -42 23c-21 0 -28 -18 -28 -41v-17zM475 487h73v-487
h-77v71c-39 -52 -108 -82 -180 -82c-138 0 -241 111 -241 255c0 143 102 254 241 254c76 0 146 -33 184 -89v78zM302 60c84 0 170 56 170 184s-86 183 -170 183c-100 0 -173 -79 -173 -184c0 -106 74 -183 173 -183z" />
    <glyph glyph-name="yacute.ss01" horiz-adv-x="566" 
d="M430 766l-120 -200h-59l85 214h94v-14zM405 487h77v-464c0 -139 -92 -214 -212 -214c-86 0 -153 38 -203 95l47 53c45 -47 90 -76 153 -76c76 0 138 43 138 138v52c-34 -39 -86 -62 -148 -62c-116 0 -178 82 -178 193v285h76v-275c0 -77 44 -132 121 -132
c75 0 129 53 129 129v278z" />
    <glyph glyph-name="ycircumflex.ss01" horiz-adv-x="566" 
d="M280 694l-101 -128h-59l136 214h47l135 -214h-58zM405 487h77v-464c0 -139 -92 -214 -212 -214c-86 0 -153 38 -203 95l47 53c45 -47 90 -76 153 -76c76 0 138 43 138 138v52c-34 -39 -86 -62 -148 -62c-116 0 -178 82 -178 193v285h76v-275c0 -77 44 -132 121 -132
c75 0 129 53 129 129v278z" />
    <glyph glyph-name="ydieresis.ss01" horiz-adv-x="566" 
d="M172 620c-28 0 -55 24 -55 53c0 30 27 54 55 54c31 0 56 -24 56 -54c0 -29 -25 -53 -56 -53zM385 620c-29 0 -56 24 -56 53c0 30 27 54 56 54c30 0 55 -24 55 -54c0 -29 -25 -53 -55 -53zM405 487h77v-464c0 -139 -92 -214 -212 -214c-86 0 -153 38 -203 95l47 53
c45 -47 90 -76 153 -76c76 0 138 43 138 138v52c-34 -39 -86 -62 -148 -62c-116 0 -178 82 -178 193v285h76v-275c0 -77 44 -132 121 -132c75 0 129 53 129 129v278z" />
    <glyph glyph-name="ygrave.ss01" horiz-adv-x="566" 
d="M308 566h-59l-120 200v14h94zM405 487h77v-464c0 -139 -92 -214 -212 -214c-86 0 -153 38 -203 95l47 53c45 -47 90 -76 153 -76c76 0 138 43 138 138v52c-34 -39 -86 -62 -148 -62c-116 0 -178 82 -178 193v285h76v-275c0 -77 44 -132 121 -132c75 0 129 53 129 129v278
z" />
    <glyph glyph-name="ordfeminine" unicode="&#xaa;" horiz-adv-x="356" 
d="M171 560c75 0 126 -44 126 -128v-188h-61v31c-21 -23 -54 -38 -96 -38c-65 0 -107 37 -107 91c0 56 45 89 113 89h85v19c0 43 -25 65 -67 65c-34 0 -59 -15 -85 -38l-34 43c35 35 76 54 126 54zM156 290c42 0 75 27 75 69v10h-75c-36 0 -54 -16 -54 -39
c0 -28 25 -40 54 -40z" />
    <glyph glyph-name="ordmasculine" unicode="&#xba;" horiz-adv-x="403" 
d="M201 237c-91 0 -163 70 -163 161s72 161 163 161c90 0 164 -70 164 -161s-74 -161 -164 -161zM201 296c58 0 98 43 98 102c0 60 -40 102 -98 102s-97 -42 -97 -102c0 -59 39 -102 97 -102z" />
    <glyph glyph-name="ordfeminine.ss01" horiz-adv-x="421" 
d="M300 554h58v-309h-58v42c-24 -31 -64 -49 -109 -49c-90 0 -153 70 -153 161c0 92 63 161 152 161c46 0 86 -18 110 -49v43zM201 299c47 0 95 27 95 100s-47 100 -96 100c-56 0 -96 -38 -96 -99c0 -62 40 -101 97 -101z" />
    <glyph glyph-name="uni0410" unicode="&#x410;" horiz-adv-x="663" 
d="M549 0l-56 134h-324l-56 -134h-82l286 671h29l286 -671h-83zM463 204l-132 325l-132 -325h264z" />
    <glyph glyph-name="uni0411" unicode="&#x411;" horiz-adv-x="578" 
d="M91 0v660h391v-70h-313v-200h145c137 0 220 -82 220 -194c0 -114 -83 -196 -220 -196h-223zM169 70h144c92 0 140 54 140 125s-48 125 -140 125h-144v-250z" />
    <glyph glyph-name="uni0412" unicode="&#x412;" horiz-adv-x="616" 
d="M443 363c82 -24 129 -88 129 -173c0 -109 -78 -190 -209 -190h-272v660h227c117 0 188 -71 188 -167c0 -55 -23 -100 -63 -130zM310 590h-141v-205h141c77 0 116 42 116 103s-38 102 -116 102zM355 70c89 0 137 50 137 122c0 71 -48 122 -137 122h-186v-244h186z" />
    <glyph glyph-name="uni0413" unicode="&#x413;" horiz-adv-x="506" 
d="M91 0v660h391v-70h-313v-590h-78z" />
    <glyph glyph-name="uni0403" unicode="&#x403;" horiz-adv-x="506" 
d="M234 724l85 186h94v-14l-120 -172h-59zM91 0v660h391v-70h-313v-590h-78z" />
    <glyph glyph-name="uni0490" unicode="&#x490;" horiz-adv-x="489" 
d="M91 0v660h296v140h78v-210h-296v-590h-78z" />
    <glyph glyph-name="uni0414" unicode="&#x414;" horiz-adv-x="675" 
d="M565 70h80v-211h-78v141h-479v-141h-78v211h51c70 65 103 211 103 507l1 83h400v-590zM236 590c-2 -280 -31 -444 -88 -520h339v520h-251z" />
    <glyph glyph-name="uni0415" unicode="&#x415;" horiz-adv-x="566" 
d="M91 0v660h423v-70h-345v-202h264v-70h-264v-248h357v-70h-435z" />
    <glyph glyph-name="uni0400" unicode="&#x400;" horiz-adv-x="566" 
d="M274 724l-120 172v14h94l85 -186h-59zM91 0v660h423v-70h-345v-202h264v-70h-264v-248h357v-70h-435z" />
    <glyph glyph-name="uni0401" unicode="&#x401;" horiz-adv-x="566" 
d="M186 757c-28 0 -55 23 -55 53s27 53 55 53c31 0 55 -23 55 -53s-24 -53 -55 -53zM419 756c-29 0 -55 24 -55 53c0 30 26 54 55 54c30 0 55 -24 55 -54c0 -29 -25 -53 -55 -53zM91 0v660h423v-70h-345v-202h264v-70h-264v-248h357v-70h-435z" />
    <glyph glyph-name="uni0416" unicode="&#x416;" horiz-adv-x="966" 
d="M57 660h101l277 -306l-305 -354h-100l305 354zM444 0v660h78v-660h-78zM631 354l304 -354h-99l-305 354l277 306h101z" />
    <glyph glyph-name="uni0417" unicode="&#x417;" horiz-adv-x="583" 
d="M421 357c73 -28 114 -90 114 -165c0 -119 -102 -203 -236 -203c-112 0 -200 58 -250 145l57 42c44 -68 110 -115 192 -115c88 0 157 55 157 133c0 66 -46 120 -154 120h-78v71h82c77 0 114 45 114 105c0 62 -38 109 -120 109c-74 0 -124 -35 -161 -90l-56 42
c43 72 116 120 217 120c125 0 201 -77 201 -177c0 -58 -29 -107 -79 -137z" />
    <glyph glyph-name="uni0418" unicode="&#x418;" horiz-adv-x="718" 
d="M599 671h28v-671h-78v512l-430 -523h-28v671h78v-512z" />
    <glyph glyph-name="uni0419" unicode="&#x419;" horiz-adv-x="718" 
d="M358 726c-91 0 -151 63 -151 159v25h65v-26c0 -63 32 -100 86 -100c55 0 87 36 87 100v26h65v-25c0 -96 -60 -159 -152 -159zM599 671h28v-671h-78v512l-430 -523h-28v671h78v-512z" />
    <glyph glyph-name="uni040D" unicode="&#x40d;" horiz-adv-x="718" 
d="M389 724h-59l-120 172v14h94zM599 671h28v-671h-78v512l-430 -523h-28v671h78v-512z" />
    <glyph glyph-name="uni041A" unicode="&#x41a;" horiz-adv-x="633" 
d="M91 0v660h78v-660h-78zM280 354l322 -354h-99l-325 354l297 306h100z" />
    <glyph glyph-name="uni040C" unicode="&#x40c;" horiz-adv-x="633" 
d="M466 896l-120 -172h-59l85 186h94v-14zM91 0v660h78v-660h-78zM280 354l322 -354h-99l-325 354l297 306h100z" />
    <glyph glyph-name="uni041B" unicode="&#x41b;" horiz-adv-x="669" 
d="M170 660h409v-660h-78v590h-258c-14 -448 -67 -597 -203 -597c-23 0 -32 4 -39 7v68c1 -1 12 -3 27 -3c103 0 133 189 140 496z" />
    <glyph glyph-name="uni041C" unicode="&#x41c;" horiz-adv-x="789" 
d="M671 671h27v-671h-78v473l-211 -286h-28l-212 288v-475h-78v671h28l275 -381z" />
    <glyph glyph-name="uni041D" unicode="&#x41d;" horiz-adv-x="708" 
d="M91 0v660h78v-272h370v272h78v-660h-78v318h-370v-318h-78z" />
    <glyph glyph-name="uni041E" unicode="&#x41e;" horiz-adv-x="781" 
d="M390 -11c-191 0 -342 149 -342 341c0 193 152 341 342 341c189 0 343 -148 343 -341s-154 -341 -343 -341zM391 61c149 0 261 116 261 270c0 152 -112 268 -261 268c-151 0 -262 -115 -262 -268c0 -154 111 -270 262 -270z" />
    <glyph glyph-name="uni041F" unicode="&#x41f;" horiz-adv-x="698" 
d="M91 0v660h516v-660h-78v590h-360v-590h-78z" />
    <glyph glyph-name="uni0420" unicode="&#x420;" horiz-adv-x="573" 
d="M91 0v660h232c130 0 211 -80 211 -191c0 -112 -81 -193 -211 -193h-154v-276h-78zM169 346h152c87 0 132 51 132 122c0 70 -45 122 -132 122h-152v-244z" />
    <glyph glyph-name="uni0421" unicode="&#x421;" horiz-adv-x="715" 
d="M391 -11c-191 0 -343 148 -343 341s152 341 343 341c120 0 219 -58 274 -142l-58 -46c-49 72 -123 116 -215 116c-149 0 -263 -115 -263 -269s114 -269 263 -269c92 0 166 44 215 116l58 -46c-53 -84 -154 -142 -274 -142z" />
    <glyph glyph-name="uni0422" unicode="&#x422;" horiz-adv-x="581" 
d="M251 0v590h-232v70h543v-70h-233v-590h-78z" />
    <glyph glyph-name="uni0423" unicode="&#x423;" horiz-adv-x="659" 
d="M550 660h79l-237 -505c-52 -110 -95 -165 -188 -165c-17 0 -38 4 -54 10v68c18 -4 37 -6 52 -6c42 0 72 17 101 73l-263 525h88l218 -435z" />
    <glyph glyph-name="uni040E" unicode="&#x40e;" horiz-adv-x="659" 
d="M345 726c-91 0 -151 63 -151 159v25h65v-26c0 -63 32 -100 86 -100c55 0 87 36 87 100v26h65v-25c0 -96 -60 -159 -152 -159zM550 660h79l-237 -505c-52 -110 -95 -165 -188 -165c-17 0 -38 4 -54 10v68c18 -4 37 -6 52 -6c42 0 72 17 101 73l-263 525h88l218 -435z" />
    <glyph glyph-name="uni0424" unicode="&#x424;" horiz-adv-x="797" 
d="M754 335c0 -169 -133 -272 -317 -273v-82h-78v82c-183 1 -316 104 -316 273c0 168 133 269 316 270v75h78v-75c184 -1 317 -102 317 -270zM124 333c0 -128 95 -200 235 -200v401c-140 0 -235 -72 -235 -201zM437 133c140 0 236 72 236 200c0 129 -96 201 -236 201v-401z
" />
    <glyph glyph-name="uni0425" unicode="&#x425;" horiz-adv-x="599" 
d="M569 0h-91l-178 271l-179 -271h-91l227 338l-211 322h90l164 -257l163 257h90l-208 -323z" />
    <glyph glyph-name="uni0427" unicode="&#x427;" horiz-adv-x="648" 
d="M480 660h78v-660h-78v266c-47 -21 -111 -28 -159 -28c-162 0 -260 80 -260 252v170h78v-165c0 -133 67 -187 184 -187c46 0 110 7 157 29v323z" />
    <glyph glyph-name="uni0426" unicode="&#x426;" horiz-adv-x="718" 
d="M610 -141v141h-519v660h78v-590h360v590h78v-590h81v-211h-78z" />
    <glyph glyph-name="uni0428" unicode="&#x428;" horiz-adv-x="964" 
d="M91 0v660h78v-590h274v590h78v-590h275v590h78v-660h-783z" />
    <glyph glyph-name="uni0429" unicode="&#x429;" horiz-adv-x="984" 
d="M876 -141v141h-785v660h78v-590h274v590h78v-590h275v590h78v-590h80v-211h-78z" />
    <glyph glyph-name="uni040F" unicode="&#x40f;" horiz-adv-x="698" 
d="M607 660v-660h-219v-141h-78v141h-219v660h78v-590h360v590h78z" />
    <glyph glyph-name="uni042C" unicode="&#x42c;" horiz-adv-x="584" 
d="M91 0v660h78v-260h145c137 0 220 -84 220 -200s-83 -200 -220 -200h-223zM169 70h144c92 0 141 56 141 129c0 75 -49 130 -141 130h-144v-259z" />
    <glyph glyph-name="uni042A" unicode="&#x42a;" horiz-adv-x="663" 
d="M170 0v590h-151v70h229v-260h145c137 0 220 -84 220 -200s-83 -200 -220 -200h-223zM248 70h144c92 0 141 56 141 129c0 75 -49 130 -141 130h-144v-259z" />
    <glyph glyph-name="uni042B" unicode="&#x42b;" horiz-adv-x="833" 
d="M91 0v660h78v-260h145c137 0 220 -84 220 -200s-83 -200 -220 -200h-223zM665 0v660h78v-660h-78zM169 70h144c92 0 141 56 141 129c0 75 -49 130 -141 130h-144v-259z" />
    <glyph glyph-name="uni0409" unicode="&#x409;" horiz-adv-x="965" 
d="M695 400c137 0 220 -84 220 -200s-83 -200 -220 -200h-224v590h-228c-13 -441 -63 -597 -203 -597c-23 0 -32 4 -39 7v68c1 -1 12 -3 27 -3c103 0 133 189 140 496l2 99h379v-260h146zM694 70c92 0 140 56 140 129c0 75 -48 130 -140 130h-145v-259h145z" />
    <glyph glyph-name="uni040A" unicode="&#x40a;" horiz-adv-x="965" 
d="M91 0v660h78v-260h303v260h78v-260h145c137 0 221 -84 221 -200s-84 -200 -221 -200h-223v330h-303v-330h-78zM550 70h144c92 0 141 56 141 129c0 75 -49 131 -141 131h-144v-260z" />
    <glyph glyph-name="uni0405" unicode="&#x405;" horiz-adv-x="558" 
d="M284 -11c-105 0 -192 55 -243 142l58 43c40 -61 99 -113 184 -113c78 0 133 43 133 110c0 61 -45 85 -110 116l-74 35c-69 33 -149 79 -149 177c0 105 92 172 199 172c90 0 166 -47 207 -112l-57 -43c-36 53 -91 83 -151 83c-61 0 -117 -31 -117 -96
c0 -60 46 -82 106 -111l73 -35c96 -46 154 -94 154 -184c0 -111 -91 -184 -213 -184z" />
    <glyph glyph-name="uni0404" unicode="&#x404;" horiz-adv-x="715" 
d="M392 61c92 0 166 44 215 116l58 -46c-53 -84 -154 -142 -274 -142c-191 0 -343 148 -343 341s152 341 343 341c120 0 219 -58 274 -142l-58 -46c-49 72 -123 116 -215 116c-135 0 -242 -95 -260 -228h317v-70h-319c14 -139 123 -240 262 -240z" />
    <glyph glyph-name="uni042D" unicode="&#x42d;" horiz-adv-x="715" 
d="M324 671c191 0 342 -148 342 -341s-151 -341 -342 -341c-120 0 -221 58 -275 142l59 46c49 -72 122 -116 215 -116c139 0 247 101 261 240h-309v70h307c-18 133 -124 228 -259 228c-93 0 -166 -44 -215 -116l-59 46c56 84 155 142 275 142z" />
    <glyph glyph-name="uni0406" unicode="&#x406;" horiz-adv-x="259" 
d="M91 0v660h78v-660h-78z" />
    <glyph glyph-name="uni0407" unicode="&#x407;" horiz-adv-x="259" 
d="M13 757c-28 0 -55 23 -55 53s27 53 55 53c31 0 55 -23 55 -53s-24 -53 -55 -53zM246 756c-29 0 -55 24 -55 53c0 30 26 54 55 54c30 0 55 -24 55 -54c0 -29 -25 -53 -55 -53zM91 0v660h78v-660h-78z" />
    <glyph glyph-name="uni0408" unicode="&#x408;" horiz-adv-x="373" 
d="M111 -11c-32 0 -61 5 -87 11v67c27 -4 50 -6 72 -6c65 0 109 20 109 99v500h78v-507c0 -115 -71 -164 -172 -164z" />
    <glyph glyph-name="uni040B" unicode="&#x40b;" horiz-adv-x="771" 
d="M451 396c141 0 241 -87 241 -249v-147h-78v141c0 123 -69 185 -166 185c-53 0 -106 -9 -148 -25v-301h-78v590h-203v70h523v-70h-242v-219c43 16 95 25 151 25z" />
    <glyph glyph-name="uni042E" unicode="&#x42e;" horiz-adv-x="977" 
d="M600 671c186 0 328 -148 328 -341s-142 -341 -328 -341c-183 0 -320 143 -326 329h-105v-318h-78v660h78v-272h109c25 164 155 283 322 283zM601 61c146 0 246 116 246 270c0 152 -100 268 -246 268c-147 0 -246 -115 -246 -268c0 -154 99 -270 246 -270z" />
    <glyph glyph-name="uni042F" unicode="&#x42f;" horiz-adv-x="619" 
d="M308 660h220v-660h-78v257h-131l-185 -257h-89l192 267c-94 26 -155 99 -155 192c0 120 90 201 226 201zM450 328v262h-142c-88 0 -145 -52 -145 -131c0 -80 57 -131 145 -131h142z" />
    <glyph glyph-name="uni0402" unicode="&#x402;" horiz-adv-x="732" 
d="M465 -11l-14 70c83 11 150 48 150 140c0 85 -64 127 -153 127c-53 0 -106 -9 -148 -25v-301h-78v590h-203v70h523v-70h-242v-218c43 15 95 24 151 24c135 0 231 -69 231 -198c0 -135 -103 -196 -217 -209z" />
    <glyph glyph-name="uni0462" unicode="&#x462;" horiz-adv-x="654" 
d="M161 0v502h-142v65h142v93h78v-93h188v-65h-188v-121h150c134 0 215 -80 215 -190c0 -111 -81 -191 -215 -191h-228zM239 70h149c89 0 135 52 135 120c0 69 -46 120 -135 120h-149v-240z" />
    <glyph glyph-name="uni0472" unicode="&#x472;" horiz-adv-x="781" 
d="M390 671c189 0 343 -148 343 -341s-154 -341 -343 -341c-191 0 -342 149 -342 341c0 193 152 341 342 341zM390 599c-140 0 -246 -100 -260 -238c51 21 94 29 137 29c95 0 156 -40 250 -40c43 0 84 7 131 27c-20 129 -124 222 -258 222zM390 61c142 0 251 105 261 246
c-49 -20 -91 -27 -134 -27c-97 0 -158 40 -250 40c-49 0 -86 -8 -136 -29c18 -133 122 -230 259 -230z" />
    <glyph glyph-name="uni0474" unicode="&#x474;" horiz-adv-x="687" 
d="M646 665c16 0 30 -3 41 -5v-67c-11 2 -22 3 -30 3c-42 0 -62 -20 -82 -67l-229 -540h-29l-286 671h86l214 -518l172 415c32 77 73 108 143 108z" />
    <glyph glyph-name="uni0492" unicode="&#x492;" horiz-adv-x="526" 
d="M506 590h-315v-250h169v-65h-169v-275h-78v275h-95v65h95v320h393v-70z" />
    <glyph glyph-name="uni0496" unicode="&#x496;" horiz-adv-x="963" 
d="M57 660h101l277 -306l-305 -354h-100l305 354zM444 0v660h78v-660h-78zM875 70h87v-211h-78v141h-48l-305 354l277 306h101l-278 -306z" />
    <glyph glyph-name="uni0498" unicode="&#x498;" horiz-adv-x="583" 
d="M535 192c0 -104 -78 -181 -187 -199c15 -19 24 -42 24 -69c0 -63 -48 -115 -132 -115c-23 0 -47 4 -68 10v55c23 -3 45 -4 56 -4c44 0 78 19 78 65c0 21 -7 39 -17 54c-107 4 -192 61 -240 145l57 42c44 -68 110 -115 192 -115c88 0 157 55 157 133
c0 66 -46 120 -154 120h-78v71h82c77 0 114 45 114 105c0 62 -38 109 -120 109c-74 0 -124 -35 -161 -90l-56 42c43 72 116 120 217 120c125 0 201 -77 201 -177c0 -58 -29 -107 -79 -137c73 -28 114 -90 114 -165z" />
    <glyph glyph-name="uni049A" unicode="&#x49a;" horiz-adv-x="628" 
d="M91 0v660h78v-660h-78zM539 70h89v-211h-78v141h-47l-325 354l297 306h100l-296 -306z" />
    <glyph glyph-name="uni04A0" unicode="&#x4a0;" horiz-adv-x="801" 
d="M20 590v70h317v-660h-78v590h-239zM448 354l323 -354h-100l-325 354l297 306h101z" />
    <glyph glyph-name="uni04A2" unicode="&#x4a2;" horiz-adv-x="728" 
d="M620 -141v141h-81v318h-370v-318h-78v660h78v-272h370v272h78v-590h81v-211h-78z" />
    <glyph glyph-name="uni04AA" unicode="&#x4aa;" horiz-adv-x="715" 
d="M392 61c92 0 166 44 215 116l58 -46c-45 -71 -123 -123 -219 -138c16 -18 25 -42 25 -69c0 -63 -48 -115 -132 -115c-23 0 -47 4 -68 10v55c23 -3 45 -4 56 -4c44 0 78 19 78 65c0 21 -7 39 -17 54c-190 2 -340 149 -340 341c0 193 152 341 343 341
c120 0 219 -58 274 -142l-58 -46c-49 72 -123 116 -215 116c-149 0 -263 -115 -263 -269s114 -269 263 -269z" />
    <glyph glyph-name="uni04AE" unicode="&#x4ae;" horiz-adv-x="616" 
d="M576 660l-229 -387v-273h-78v273l-229 387h88l180 -310l181 310h87z" />
    <glyph glyph-name="uni04B0" unicode="&#x4b0;" horiz-adv-x="616" 
d="M576 660l-229 -386h151v-66h-151v-208h-78v208h-151v66h151l-229 386h88l180 -310l181 310h87z" />
    <glyph glyph-name="uni04B2" unicode="&#x4b2;" horiz-adv-x="605" 
d="M522 70h82v-211h-78v141h-48l-178 271l-179 -271h-91l227 338l-211 322h90l164 -257l163 257h90l-208 -323z" />
    <glyph glyph-name="uni04B6" unicode="&#x4b6;" horiz-adv-x="668" 
d="M558 70h80v-211h-78v141h-80v266c-47 -21 -111 -28 -159 -28c-162 0 -260 80 -260 252v170h78v-165c0 -133 67 -187 184 -187c46 0 110 7 157 29v323h78v-590z" />
    <glyph glyph-name="uni04BA" unicode="&#x4ba;" horiz-adv-x="649" 
d="M327 422c162 0 260 -80 260 -252v-170h-78v165c0 133 -66 187 -184 187c-46 0 -109 -7 -156 -29v-323h-78v660h78v-266c48 21 110 28 158 28z" />
    <glyph glyph-name="uni04C0" unicode="&#x4c0;" horiz-adv-x="259" 
d="M91 0v660h78v-660h-78z" />
    <glyph glyph-name="uni04C1" unicode="&#x4c1;" horiz-adv-x="966" 
d="M482 726c-91 0 -151 63 -151 159v25h65v-26c0 -63 32 -100 86 -100c55 0 87 36 87 100v26h65v-25c0 -96 -60 -159 -152 -159zM57 660h101l277 -306l-305 -354h-100l305 354zM444 0v660h78v-660h-78zM631 354l304 -354h-99l-305 354l277 306h101z" />
    <glyph glyph-name="uni04D0" unicode="&#x4d0;" horiz-adv-x="663" 
d="M331 726c-91 0 -151 63 -151 159v25h65v-26c0 -63 32 -100 86 -100c55 0 87 36 87 100v26h65v-25c0 -96 -60 -159 -152 -159zM549 0l-56 134h-324l-56 -134h-82l286 671h29l286 -671h-83zM463 204l-132 325l-132 -325h264z" />
    <glyph glyph-name="uni04D4" unicode="&#x4d4;" horiz-adv-x="821" 
d="M535 70h246v-70h-314l-23 134h-276l-71 -134h-84l344 660h412v-70h-322l34 -202h208v-70h-196zM377 541l-172 -337h227z" />
    <glyph glyph-name="uni04D6" unicode="&#x4d6;" horiz-adv-x="566" 
d="M283 726c-91 0 -151 63 -151 159v25h65v-26c0 -63 32 -100 86 -100c55 0 87 36 87 100v26h65v-25c0 -96 -60 -159 -152 -159zM91 0v660h423v-70h-345v-202h264v-70h-264v-248h357v-70h-435z" />
    <glyph glyph-name="uni04D8" unicode="&#x4d8;" horiz-adv-x="731" 
d="M361 671c188 0 322 -150 322 -339c0 -192 -139 -343 -326 -343c-167 0 -309 115 -309 293c0 31 4 57 6 71h547c-8 144 -104 246 -241 246c-95 0 -174 -41 -225 -111l-54 45c61 84 158 138 280 138zM360 61c129 0 220 93 239 222h-473c-4 -140 108 -222 234 -222z" />
    <glyph glyph-name="uni04E2" unicode="&#x4e2;" horiz-adv-x="718" 
d="M507 833v-63h-295v63h295zM599 671h28v-671h-78v512l-430 -523h-28v671h78v-512z" />
    <glyph glyph-name="uni04E6" unicode="&#x4e6;" horiz-adv-x="781" 
d="M274 757c-28 0 -55 23 -55 53s27 53 55 53c31 0 55 -23 55 -53s-24 -53 -55 -53zM507 756c-29 0 -55 24 -55 53c0 30 26 54 55 54c30 0 55 -24 55 -54c0 -29 -25 -53 -55 -53zM390 -11c-191 0 -342 149 -342 341c0 193 152 341 342 341c189 0 343 -148 343 -341
s-154 -341 -343 -341zM391 61c149 0 261 116 261 270c0 152 -112 268 -261 268c-151 0 -262 -115 -262 -268c0 -154 111 -270 262 -270z" />
    <glyph glyph-name="uni04E8" unicode="&#x4e8;" horiz-adv-x="781" 
d="M390 671c189 0 343 -148 343 -341s-154 -341 -343 -341c-191 0 -342 149 -342 341c0 193 152 341 342 341zM391 599c-137 0 -241 -95 -259 -227h517c-18 131 -123 227 -258 227zM391 61c139 0 247 102 260 241h-521c13 -139 120 -241 261 -241z" />
    <glyph glyph-name="uni04EE" unicode="&#x4ee;" horiz-adv-x="659" 
d="M494 833v-63h-295v63h295zM550 660h79l-237 -505c-52 -110 -95 -165 -188 -165c-17 0 -38 4 -54 10v68c18 -4 37 -6 52 -6c42 0 72 17 101 73l-263 525h88l218 -435z" />
    <glyph glyph-name="uni04F2" unicode="&#x4f2;" horiz-adv-x="659" 
d="M366 896l-114 -172h-55l86 186h83v-14zM585 896l-114 -172h-55l86 186h83v-14zM550 660h79l-237 -505c-52 -110 -95 -165 -188 -165c-17 0 -38 4 -54 10v68c18 -4 37 -6 52 -6c42 0 72 17 101 73l-263 525h88l218 -435z" />
    <glyph glyph-name="uni0414.loclBGR" horiz-adv-x="752" 
d="M647 70h78v-211h-78v141h-542v-141h-78v211h79l257 601h27zM376 526l-190 -456h380z" />
    <glyph glyph-name="uni041B.loclBGR" horiz-adv-x="663" 
d="M632 0h-83l-218 518l-218 -518h-82l286 671h29z" />
    <glyph glyph-name="uni0424.loclBGR" horiz-adv-x="799" 
d="M751 331c0 -180 -132 -311 -313 -312v-61h-78v61c-180 1 -312 132 -312 312c0 178 131 309 312 310v60h78v-60c182 -1 313 -132 313 -310zM129 329c0 -141 96 -240 231 -240v481c-135 0 -231 -100 -231 -241zM438 89c135 0 232 100 232 240c0 141 -97 241 -232 241v-481z
" />
    <glyph glyph-name="uni0430" unicode="&#x430;" horiz-adv-x="528" 
d="M260 498c111 0 190 -67 190 -198v-300h-72v63c-35 -47 -92 -74 -164 -74c-98 0 -170 52 -170 137c0 82 69 136 175 136h154v42c0 82 -46 123 -118 123c-61 0 -104 -29 -142 -78l-51 42c46 74 120 107 198 107zM224 53c80 0 149 58 149 134v12h-145
c-68 0 -105 -23 -105 -69c0 -52 47 -77 101 -77z" />
    <glyph glyph-name="uni0431" unicode="&#x431;" horiz-adv-x="615" 
d="M322 480c134 0 243 -110 243 -245c0 -137 -112 -245 -254 -245c-149 0 -251 112 -251 274v85c0 203 43 329 300 373c90 16 138 28 164 39v-74c-33 -14 -82 -25 -155 -36c-221 -32 -234 -140 -234 -269c41 61 110 98 187 98zM312 61c97 0 174 77 174 174s-77 174 -174 174
c-96 0 -174 -77 -174 -174c0 -96 78 -174 174 -174z" />
    <glyph glyph-name="uni0432" unicode="&#x432;" horiz-adv-x="544" 
d="M392 264c55 -19 92 -59 92 -117c0 -85 -66 -147 -173 -147h-226v487h201c96 0 157 -51 157 -129c0 -38 -18 -73 -51 -94zM162 418v-130h125c54 0 80 25 80 66s-26 64 -80 64h-125zM306 68c66 0 101 34 101 79s-37 73 -101 73h-144v-152h144z" />
    <glyph glyph-name="uni0433" unicode="&#x433;" horiz-adv-x="435" 
d="M85 0v487h328v-69h-251v-418h-77z" />
    <glyph glyph-name="uni0453" unicode="&#x453;" horiz-adv-x="435" 
d="M210 566l85 214h94v-14l-120 -200h-59zM85 0v487h328v-69h-251v-418h-77z" />
    <glyph glyph-name="uni0491" unicode="&#x491;" horiz-adv-x="435" 
d="M85 0v487h251v140h77v-209h-251v-418h-77z" />
    <glyph glyph-name="uni0434" unicode="&#x434;" horiz-adv-x="578" 
d="M463 68h79v-209h-77v141h-383v-141h-77v209h55c48 50 61 149 64 282l3 137h336v-419zM197 349c-3 -140 -25 -237 -56 -281h245v350h-186z" />
    <glyph glyph-name="uni0435" unicode="&#x435;" horiz-adv-x="571" 
d="M521 278c0 -26 -4 -48 -6 -58h-385c10 -97 83 -160 179 -160c61 0 109 26 149 66l45 -52c-49 -52 -115 -85 -195 -85c-147 0 -258 111 -258 254c0 142 109 255 249 255c125 0 222 -90 222 -220zM297 428c-82 0 -147 -56 -164 -140h309c-1 90 -68 140 -145 140z" />
    <glyph glyph-name="uni0450" unicode="&#x450;" horiz-adv-x="571" 
d="M326 566h-59l-120 200v14h94zM521 278c0 -26 -4 -48 -6 -58h-385c10 -97 83 -160 179 -160c61 0 109 26 149 66l45 -52c-49 -52 -115 -85 -195 -85c-147 0 -258 111 -258 254c0 142 109 255 249 255c125 0 222 -90 222 -220zM297 428c-82 0 -147 -56 -164 -140h309
c-1 90 -68 140 -145 140z" />
    <glyph glyph-name="uni0451" unicode="&#x451;" horiz-adv-x="571" 
d="M190 620c-28 0 -55 24 -55 53c0 30 27 54 55 54c31 0 56 -24 56 -54c0 -29 -25 -53 -56 -53zM403 620c-29 0 -56 24 -56 53c0 30 27 54 56 54c30 0 55 -24 55 -54c0 -29 -25 -53 -55 -53zM521 278c0 -26 -4 -48 -6 -58h-385c10 -97 83 -160 179 -160c61 0 109 26 149 66
l45 -52c-49 -52 -115 -85 -195 -85c-147 0 -258 111 -258 254c0 142 109 255 249 255c125 0 222 -90 222 -220zM297 428c-82 0 -147 -56 -164 -140h309c-1 90 -68 140 -145 140z" />
    <glyph glyph-name="uni0436" unicode="&#x436;" horiz-adv-x="772" 
d="M39 487h96l201 -223l-222 -264h-94l223 264zM346 0v487h77v-487h-77zM527 266l224 -266h-96l-222 264l201 223h95z" />
    <glyph glyph-name="uni0437" unicode="&#x437;" horiz-adv-x="468" 
d="M333 260c54 -22 83 -66 83 -120c0 -92 -74 -151 -184 -151c-81 0 -144 35 -187 94l52 46c30 -39 69 -69 134 -69c69 0 106 35 106 85c0 45 -35 79 -106 79h-53v68h52c58 0 85 27 85 68c0 40 -30 67 -87 67c-59 0 -93 -25 -122 -60l-52 46c34 47 92 85 177 85
c97 0 160 -49 160 -133c0 -43 -19 -81 -58 -105z" />
    <glyph glyph-name="uni0438" unicode="&#x438;" horiz-adv-x="571" 
d="M459 498h28v-498h-77v344l-297 -355h-28v498h77v-345z" />
    <glyph glyph-name="uni0439" unicode="&#x439;" horiz-adv-x="571" 
d="M297 573c-91 0 -151 63 -151 158v31h65v-29c0 -65 32 -102 86 -102c56 0 87 37 87 102v29h65v-31c0 -95 -60 -158 -152 -158zM459 498h28v-498h-77v344l-297 -355h-28v498h77v-345z" />
    <glyph glyph-name="uni045D" unicode="&#x45d;" horiz-adv-x="571" 
d="M328 566h-59l-120 200v14h94zM459 498h28v-498h-77v344l-297 -355h-28v498h77v-345z" />
    <glyph glyph-name="uni043A" unicode="&#x43a;" horiz-adv-x="515" 
d="M85 0v487h77v-487h-77zM266 266l229 -266h-97l-226 264l205 223h96z" />
    <glyph glyph-name="uni045C" unicode="&#x45c;" horiz-adv-x="515" 
d="M420 766l-120 -200h-59l85 214h94v-14zM85 0v487h77v-487h-77zM266 266l229 -266h-97l-226 264l205 223h96z" />
    <glyph glyph-name="uni043B" unicode="&#x43b;" horiz-adv-x="538" 
d="M123 487h330v-487h-77v418h-181l-2 -60c-7 -245 -41 -362 -157 -362c-11 0 -20 2 -26 4v65c6 -1 13 -2 20 -2c66 0 86 111 90 297z" />
    <glyph glyph-name="uni043C" unicode="&#x43c;" horiz-adv-x="686" 
d="M85 0v498h28l231 -274l230 274h27v-498h-77v329l-166 -198h-30l-166 198v-329h-77z" />
    <glyph glyph-name="uni043D" unicode="&#x43d;" horiz-adv-x="562" 
d="M85 0v487h77v-194h239v194h77v-487h-77v225h-239v-225h-77z" />
    <glyph glyph-name="uni043E" unicode="&#x43e;" horiz-adv-x="610" 
d="M304 -10c-142 0 -254 113 -254 254c0 143 112 254 255 254c142 0 255 -112 255 -254c0 -141 -113 -254 -256 -254zM304 61c100 0 177 79 177 182c0 105 -76 184 -176 184c-101 0 -176 -79 -176 -184c0 -104 75 -182 175 -182z" />
    <glyph glyph-name="uni043F" unicode="&#x43f;" horiz-adv-x="558" 
d="M85 0v487h389v-487h-78v418h-234v-418h-77z" />
    <glyph glyph-name="uni0440" unicode="&#x440;" horiz-adv-x="632" 
d="M341 498c140 0 241 -111 241 -254c0 -144 -102 -255 -241 -255c-71 0 -139 30 -179 81v-250h-77v667h72v-78c38 56 108 89 184 89zM330 60c99 0 173 77 173 183s-73 184 -173 184c-84 0 -169 -55 -169 -183s84 -184 169 -184z" />
    <glyph glyph-name="uni0441" unicode="&#x441;" horiz-adv-x="551" 
d="M305 -11c-142 0 -255 112 -255 255c0 142 113 254 255 254c88 0 158 -42 201 -106l-55 -44c-36 48 -82 79 -145 79c-102 0 -177 -81 -177 -183c0 -103 75 -184 177 -184c62 0 108 30 144 78l55 -43c-43 -64 -113 -106 -200 -106z" />
    <glyph glyph-name="uni0442" unicode="&#x442;" horiz-adv-x="445" 
d="M184 0v418h-164v69h404v-69h-164v-418h-76z" />
    <glyph glyph-name="uni0443" unicode="&#x443;" horiz-adv-x="539" 
d="M431 487h82l-240 -555c-38 -87 -91 -123 -165 -123c-24 0 -52 4 -75 10v65c23 -3 42 -5 59 -5c47 0 83 16 110 78l26 58l-202 472h83l161 -388z" />
    <glyph glyph-name="uni045E" unicode="&#x45e;" horiz-adv-x="539" 
d="M266 573c-91 0 -151 63 -151 158v31h65v-29c0 -65 32 -102 86 -102c56 0 87 37 87 102v29h65v-31c0 -95 -60 -158 -152 -158zM431 487h82l-240 -555c-38 -87 -91 -123 -165 -123c-24 0 -52 4 -75 10v65c23 -3 42 -5 59 -5c47 0 83 16 110 78l26 58l-202 472h83l161 -388z
" />
    <glyph glyph-name="uni0444" unicode="&#x444;" horiz-adv-x="727" 
d="M677 242c0 -154 -117 -247 -275 -253v-169h-77v169c-160 6 -275 101 -275 254s117 247 275 253v254h77v-254c160 -6 275 -101 275 -254zM129 242c0 -114 78 -180 197 -185v371c-119 -5 -197 -72 -197 -186zM401 57c119 5 197 72 197 186s-78 180 -197 185v-371z" />
    <glyph glyph-name="uni0445" unicode="&#x445;" horiz-adv-x="497" 
d="M476 0h-89l-139 200l-138 -200h-90l181 254l-166 233h89l124 -179l125 179h89l-169 -233z" />
    <glyph glyph-name="uni0447" unicode="&#x447;" horiz-adv-x="528" 
d="M366 487h77v-487h-77v192c-32 -15 -76 -22 -123 -22c-113 0 -193 64 -193 190v127h77v-123c0 -89 49 -125 131 -125c31 0 76 6 108 21v227z" />
    <glyph glyph-name="uni0446" unicode="&#x446;" horiz-adv-x="588" 
d="M475 -141v141h-390v487h77v-419h234v419h77v-419h79v-209h-77z" />
    <glyph glyph-name="uni0448" unicode="&#x448;" horiz-adv-x="809" 
d="M85 0v487h77v-419h204v419h77v-419h205v419h77v-487h-640z" />
    <glyph glyph-name="uni0449" unicode="&#x449;" horiz-adv-x="840" 
d="M727 -141v141h-642v487h77v-419h204v419h77v-419h205v419h77v-419h79v-209h-77z" />
    <glyph glyph-name="uni045F" unicode="&#x45f;" horiz-adv-x="557" 
d="M473 487v-487h-155v-141h-77v141h-156v487h77v-419h234v419h77z" />
    <glyph glyph-name="uni044C" unicode="&#x44c;" horiz-adv-x="510" 
d="M85 0v487h77v-168h116c111 0 182 -64 182 -159c0 -96 -71 -160 -182 -160h-193zM162 68h112c69 0 107 37 107 91s-39 92 -108 92h-111v-183z" />
    <glyph glyph-name="uni044A" unicode="&#x44a;" horiz-adv-x="557" 
d="M131 0v418h-111v69h188v-168h117c111 0 182 -64 182 -159c0 -96 -71 -160 -182 -160h-194zM208 68h112c69 0 108 37 108 91s-40 92 -109 92h-111v-183z" />
    <glyph glyph-name="uni044B" unicode="&#x44b;" horiz-adv-x="692" 
d="M85 0v487h77v-168h116c110 0 182 -63 182 -159c0 -97 -72 -160 -182 -160h-193zM531 0v487h77v-487h-77zM162 68h112c69 0 107 33 107 91s-39 92 -108 92h-111v-183z" />
    <glyph glyph-name="uni0459" unicode="&#x459;" horiz-adv-x="777" 
d="M545 319c111 0 181 -64 181 -159c0 -96 -70 -160 -181 -160h-193v418h-157l-2 -60c-7 -245 -41 -362 -157 -362c-11 0 -20 2 -26 4v65c6 -1 13 -2 20 -2c66 0 86 111 90 297l3 127h306v-168h116zM540 68c69 0 107 37 107 91s-39 92 -108 92h-110v-183h111z" />
    <glyph glyph-name="uni045A" unicode="&#x45a;" horiz-adv-x="803" 
d="M565 311c115 0 187 -60 187 -154c0 -99 -72 -157 -187 -157h-194v243h-209v-243h-77v487h77v-176h209v176h77v-176h117zM560 68c71 0 113 31 113 88c0 52 -42 87 -113 87h-112v-175h112z" />
    <glyph glyph-name="uni0455" unicode="&#x455;" horiz-adv-x="454" 
d="M229 -11c-86 0 -151 43 -190 95l49 51c40 -42 81 -75 140 -75c51 0 93 25 93 69c0 42 -36 58 -85 78l-47 20c-74 31 -121 66 -121 135c0 88 75 136 164 136c70 0 125 -30 163 -77l-47 -48c-32 33 -74 54 -120 54s-81 -21 -81 -61c0 -33 25 -48 79 -71l45 -19
c87 -37 129 -75 129 -144c0 -95 -81 -143 -171 -143z" />
    <glyph glyph-name="uni0454" unicode="&#x454;" horiz-adv-x="551" 
d="M306 60c62 0 109 30 145 78l54 -43c-43 -64 -113 -106 -200 -106c-142 0 -255 112 -255 255c0 142 113 254 255 254c88 0 158 -42 201 -106l-54 -44c-36 48 -83 79 -146 79c-88 0 -156 -61 -173 -143h208v-68h-210c12 -89 82 -156 175 -156z" />
    <glyph glyph-name="uni044D" unicode="&#x44d;" horiz-adv-x="551" 
d="M246 498c142 0 255 -112 255 -254c0 -143 -113 -255 -255 -255c-87 0 -157 42 -200 106l54 43c36 -48 83 -78 145 -78c93 0 163 67 175 156h-210v68h208c-17 82 -85 143 -173 143c-63 0 -110 -31 -146 -79l-54 44c44 64 113 106 201 106z" />
    <glyph glyph-name="uni0456" unicode="&#x456;" horiz-adv-x="268" 
d="M135 617c-33 0 -58 24 -58 56c0 31 25 56 58 56c31 0 57 -25 57 -56c0 -32 -26 -56 -57 -56zM96 0v487h77v-487h-77z" />
    <glyph glyph-name="uni0457" unicode="&#x457;" horiz-adv-x="247" 
d="M63 617c-30 0 -53 24 -53 56c0 31 23 56 53 56c28 0 52 -25 52 -56c0 -32 -24 -56 -52 -56zM185 617c-30 0 -53 24 -53 56c0 31 23 56 53 56c28 0 52 -25 52 -56c0 -32 -24 -56 -52 -56zM85 0v487h77v-487h-77z" />
    <glyph glyph-name="uni0458" unicode="&#x458;" horiz-adv-x="246" 
d="M124 617c-32 0 -58 24 -58 56c0 31 26 56 58 56c31 0 57 -25 57 -56c0 -32 -26 -56 -57 -56zM2 -191c-25 0 -44 3 -62 8v65c17 -2 29 -3 45 -3c59 0 100 21 100 93v515h77v-520c0 -111 -67 -158 -160 -158z" />
    <glyph glyph-name="uni045B" unicode="&#x45b;" horiz-adv-x="570" 
d="M311 484c114 0 181 -79 181 -191v-293h-77v284c0 76 -47 129 -121 129c-76 0 -130 -54 -130 -129v-284h-76v579h-83v68h83v103h76v-103h202v-68h-202v-162c33 42 84 67 147 67z" />
    <glyph glyph-name="uni044E" unicode="&#x44e;" horiz-adv-x="799" 
d="M499 498c139 0 250 -112 250 -254c0 -141 -111 -254 -251 -254c-134 0 -239 103 -248 235h-88v-225h-77v487h77v-194h91c22 119 122 205 246 205zM498 61c97 0 172 79 172 182c0 104 -74 184 -171 184c-99 0 -171 -79 -171 -184c0 -104 73 -182 170 -182z" />
    <glyph glyph-name="uni044F" unicode="&#x44f;" horiz-adv-x="525" 
d="M246 487h194v-487h-77v178h-92l-134 -178h-90l142 188c-71 21 -115 73 -115 143c0 95 68 156 172 156zM363 246v172h-112c-61 0 -98 -32 -98 -86c0 -52 38 -86 99 -86h111z" />
    <glyph glyph-name="uni0452" unicode="&#x452;" horiz-adv-x="570" 
d="M311 484c114 0 181 -79 181 -191v-326c0 -111 -68 -158 -161 -158c-24 0 -44 3 -61 8v65c16 -2 30 -3 43 -3c60 0 102 20 102 93v312c0 76 -47 129 -121 129c-76 0 -130 -54 -130 -129v-284h-76v580h-83v68h83v102h76v-102h202v-68h-202v-163c33 42 84 67 147 67z" />
    <glyph glyph-name="uni0463" unicode="&#x463;" horiz-adv-x="569" 
d="M143 0v418h-138v69h138v263h77v-263h159v-69h-159v-109h117c111 0 182 -62 182 -153c0 -94 -71 -156 -182 -156h-194zM220 68h112c69 0 108 35 108 87c0 50 -40 86 -109 86h-111v-173z" />
    <glyph glyph-name="uni0473" unicode="&#x473;" horiz-adv-x="610" 
d="M305 498c141 0 255 -111 255 -254c0 -142 -114 -254 -256 -254c-141 0 -254 111 -254 254s112 254 255 254zM305 427c-89 0 -156 -60 -172 -144c28 11 54 16 81 16c69 0 114 -33 182 -33c27 0 52 5 81 16c-16 85 -85 145 -172 145zM304 61c92 0 164 67 175 157
c-29 -12 -56 -18 -83 -18c-71 0 -115 34 -182 34c-28 0 -54 -6 -83 -17c11 -90 81 -156 173 -156z" />
    <glyph glyph-name="uni0475" unicode="&#x475;" horiz-adv-x="546" 
d="M507 491c13 0 26 -1 39 -4v-66c-8 1 -16 2 -25 2c-33 0 -48 -18 -62 -50l-175 -384h-28l-230 498h82l162 -369l123 282c26 58 58 91 114 91z" />
    <glyph glyph-name="uni0493" unicode="&#x493;" horiz-adv-x="436" 
d="M414 418h-253v-150h143v-68h-143v-200h-76v200h-80v68h80v219h329v-69z" />
    <glyph glyph-name="uni0497" unicode="&#x497;" horiz-adv-x="807" 
d="M39 487h96l201 -223l-222 -264h-94l223 264zM346 0v487h77v-487h-77zM694 68h78v-209h-77v141h-40l-222 264l201 223h95l-202 -221z" />
    <glyph glyph-name="uni0499" unicode="&#x499;" horiz-adv-x="468" 
d="M416 140c0 -73 -47 -125 -121 -144c17 -19 27 -43 27 -72c0 -63 -48 -115 -132 -115c-23 0 -47 4 -68 10v55c23 -3 45 -4 56 -4c44 0 78 19 78 65c0 21 -7 39 -17 54h-7c-81 0 -144 35 -187 94l52 46c30 -39 69 -69 134 -69c69 0 106 35 106 85c0 45 -35 79 -106 79h-53
v68h52c58 0 85 27 85 68c0 40 -30 67 -87 67c-59 0 -93 -25 -122 -60l-52 46c34 47 92 85 177 85c97 0 160 -49 160 -133c0 -43 -19 -81 -58 -105c54 -22 83 -66 83 -120z" />
    <glyph glyph-name="uni049B" unicode="&#x49b;" horiz-adv-x="549" 
d="M85 0v487h77v-487h-77zM437 68h77v-209h-77v141h-39l-226 264l205 223h96l-207 -221z" />
    <glyph glyph-name="uni04A1" unicode="&#x4a1;" horiz-adv-x="630" 
d="M20 418v69h257v-487h-77v418h-180zM381 266l229 -266h-97l-226 264l205 223h96z" />
    <glyph glyph-name="uni04A3" unicode="&#x4a3;" horiz-adv-x="593" 
d="M481 -141v141h-80v225h-239v-225h-77v487h77v-194h239v194h77v-419h80v-209h-77z" />
    <glyph glyph-name="uni04AB" unicode="&#x4ab;" horiz-adv-x="551" 
d="M306 60c62 0 108 30 144 78l55 -43c-35 -53 -89 -90 -155 -102c15 -19 24 -42 24 -69c0 -63 -48 -115 -132 -115c-23 0 -47 4 -68 10v55c23 -3 45 -4 56 -4c44 0 78 19 78 65c0 22 -7 39 -18 54c-135 8 -240 117 -240 255c0 142 113 254 255 254c88 0 158 -42 201 -106
l-55 -44c-36 48 -82 79 -145 79c-102 0 -177 -81 -177 -183c0 -103 75 -184 177 -184z" />
    <glyph glyph-name="uni04AF" unicode="&#x4af;" horiz-adv-x="539" 
d="M513 487l-204 -483v-184h-77v177l-206 490h82l162 -410l161 410h82z" />
    <glyph glyph-name="uni04B1" unicode="&#x4b1;" horiz-adv-x="539" 
d="M309 2v-2h131v-68h-131v-112h-77v112h-132v68h130l-204 487h82l162 -412l161 412h82z" />
    <glyph glyph-name="uni04B3" unicode="&#x4b3;" horiz-adv-x="539" 
d="M427 68h78v-209h-77v141h-39l-141 198l-140 -198h-88l183 254l-168 233h87l127 -177l125 177h88l-170 -234z" />
    <glyph glyph-name="uni04B7" unicode="&#x4b7;" horiz-adv-x="558" 
d="M443 68h80v-209h-77v141h-80v197c-33 -16 -76 -27 -123 -27c-113 0 -193 64 -193 190v127h77v-123c0 -89 49 -125 117 -125c43 0 89 9 122 26v222h77v-419z" />
    <glyph glyph-name="uni04BB" unicode="&#x4bb;" horiz-adv-x="566" 
d="M308 498c114 0 180 -79 180 -192v-306h-77v296c0 77 -46 131 -121 131s-128 -55 -128 -131v-296h-77v750h77v-318c33 41 83 66 146 66z" />
    <glyph glyph-name="uni04CF" unicode="&#x4cf;" horiz-adv-x="246" 
d="M85 0v750h77v-750h-77z" />
    <glyph glyph-name="uni04C2" unicode="&#x4c2;" horiz-adv-x="772" 
d="M385 573c-91 0 -151 63 -151 158v31h65v-29c0 -65 32 -102 86 -102c56 0 87 37 87 102v29h65v-31c0 -95 -60 -158 -152 -158zM39 487h96l201 -223l-222 -264h-94l223 264zM346 0v487h77v-487h-77zM527 266l224 -266h-96l-222 264l201 223h95z" />
    <glyph glyph-name="uni04D1" unicode="&#x4d1;" horiz-adv-x="528" 
d="M258 573c-91 0 -151 63 -151 158v31h65v-29c0 -65 32 -102 86 -102c56 0 87 37 87 102v29h65v-31c0 -95 -60 -158 -152 -158zM260 498c111 0 190 -67 190 -198v-300h-72v63c-35 -47 -92 -74 -164 -74c-98 0 -170 52 -170 137c0 82 69 136 175 136h154v42
c0 82 -46 123 -118 123c-61 0 -104 -29 -142 -78l-51 42c46 74 120 107 198 107zM224 53c80 0 149 58 149 134v12h-145c-68 0 -105 -23 -105 -69c0 -52 47 -77 101 -77z" />
    <glyph glyph-name="uni04D5" unicode="&#x4d5;" horiz-adv-x="895" 
d="M837 211h-382c14 -92 85 -151 177 -151c60 0 107 25 147 65l46 -51c-49 -54 -117 -85 -194 -85c-93 0 -170 47 -213 118c-35 -76 -113 -118 -202 -118c-102 0 -172 55 -172 141s69 144 175 144h154v30c0 82 -48 123 -117 123c-60 0 -104 -30 -141 -78l-51 42
c46 74 121 107 197 107c77 0 138 -34 167 -102c43 62 113 102 196 102c123 0 220 -90 220 -221c0 -27 -4 -55 -7 -66zM455 274h309c6 98 -62 154 -144 154c-86 0 -153 -62 -165 -154zM225 54c78 0 148 56 148 132v25h-145c-68 0 -105 -24 -105 -73c0 -56 47 -84 102 -84z
" />
    <glyph glyph-name="uni04D7" unicode="&#x4d7;" horiz-adv-x="571" 
d="M285 573c-91 0 -151 63 -151 158v31h65v-29c0 -65 32 -102 86 -102c56 0 87 37 87 102v29h65v-31c0 -95 -60 -158 -152 -158zM521 278c0 -26 -4 -48 -6 -58h-385c10 -97 83 -160 179 -160c61 0 109 26 149 66l45 -52c-49 -52 -115 -85 -195 -85c-147 0 -258 111 -258 254
c0 142 109 255 249 255c125 0 222 -90 222 -220zM297 428c-82 0 -147 -56 -164 -140h309c-1 90 -68 140 -145 140z" />
    <glyph glyph-name="uni04D9" unicode="&#x4d9;" horiz-adv-x="571" 
d="M270 498c147 0 251 -111 251 -254c0 -142 -100 -255 -242 -255c-128 0 -229 90 -229 220c0 25 4 48 6 58h385c-9 97 -76 160 -172 160c-64 0 -115 -25 -156 -66l-45 52c50 53 119 85 202 85zM281 58c83 0 142 56 157 141h-308c3 -90 70 -141 151 -141z" />
    <glyph glyph-name="uni04E3" unicode="&#x4e3;" horiz-adv-x="571" 
d="M436 704v-62h-275v62h275zM459 498h28v-498h-77v344l-297 -355h-28v498h77v-345z" />
    <glyph glyph-name="uni04E7" unicode="&#x4e7;" horiz-adv-x="610" 
d="M198 620c-28 0 -55 24 -55 53c0 30 27 54 55 54c31 0 56 -24 56 -54c0 -29 -25 -53 -56 -53zM411 620c-29 0 -56 24 -56 53c0 30 27 54 56 54c30 0 55 -24 55 -54c0 -29 -25 -53 -55 -53zM304 -10c-142 0 -254 113 -254 254c0 143 112 254 255 254
c142 0 255 -112 255 -254c0 -141 -113 -254 -256 -254zM304 61c100 0 177 79 177 182c0 105 -76 184 -176 184c-101 0 -176 -79 -176 -184c0 -104 75 -182 175 -182z" />
    <glyph glyph-name="uni04E9" unicode="&#x4e9;" horiz-adv-x="610" 
d="M305 498c141 0 255 -111 255 -254c0 -142 -114 -254 -256 -254c-141 0 -254 111 -254 254s112 254 255 254zM305 427c-88 0 -155 -60 -172 -143h344c-17 84 -86 143 -172 143zM304 61c92 0 163 66 175 155h-348c11 -89 81 -155 173 -155z" />
    <glyph glyph-name="uni04EF" unicode="&#x4ef;" horiz-adv-x="539" 
d="M408 704v-62h-275v62h275zM431 487h82l-240 -555c-38 -87 -91 -123 -165 -123c-24 0 -52 4 -75 10v65c23 -3 42 -5 59 -5c47 0 83 16 110 78l26 58l-202 472h83l161 -388z" />
    <glyph glyph-name="uni04F3" unicode="&#x4f3;" horiz-adv-x="539" 
d="M306 766l-114 -200h-55l86 214h83v-14zM505 766l-114 -200h-55l86 214h83v-14zM431 487h82l-240 -555c-38 -87 -91 -123 -165 -123c-24 0 -52 4 -75 10v65c23 -3 42 -5 59 -5c47 0 83 16 110 78l26 58l-202 472h83l161 -388z" />
    <glyph glyph-name="uni0432.loclBGR" horiz-adv-x="572" 
d="M379 404c82 -28 142 -92 142 -188c0 -141 -101 -227 -225 -227c-120 0 -217 73 -217 223v335c0 141 91 214 203 214c134 0 200 -88 200 -190c0 -74 -38 -136 -103 -167zM281 690c-70 0 -125 -42 -125 -143v-118h94c92 0 153 52 153 143c0 74 -49 118 -122 118zM292 61
c88 0 150 58 150 155c0 90 -73 145 -175 145h-111v-146c0 -112 61 -154 136 -154z" />
    <glyph glyph-name="uni0433.loclBGR" horiz-adv-x="454" 
d="M225 -11c-90 0 -171 47 -171 139c0 74 54 113 129 145l45 19c55 23 79 42 79 76c0 40 -35 59 -80 59c-47 0 -85 -20 -116 -53l-51 47c37 47 92 77 162 77c88 0 164 -40 164 -134c0 -69 -48 -107 -121 -137l-47 -20c-49 -20 -85 -38 -85 -79c0 -45 42 -68 92 -68
c60 0 102 33 141 75l49 -51c-39 -52 -104 -95 -190 -95z" />
    <glyph glyph-name="uni0434.loclBGR" horiz-adv-x="637" 
d="M480 487h73v-440c0 -150 -95 -238 -237 -238c-102 0 -181 46 -229 94l45 54c47 -41 102 -77 182 -77c99 0 162 55 162 163v43c-39 -51 -108 -81 -181 -81c-137 0 -239 104 -239 246c0 141 102 247 239 247c77 0 147 -33 185 -89v78zM307 76c85 0 170 53 170 175
s-86 174 -170 174c-99 0 -173 -72 -173 -175s74 -174 173 -174z" />
    <glyph glyph-name="uni0436.loclBGR" horiz-adv-x="772" 
d="M346 0v750h77v-750h-77zM39 487h96l201 -223l-222 -264h-94l223 264zM527 266l224 -266h-96l-222 264l201 223h95z" />
    <glyph glyph-name="uni0437.loclBGR" horiz-adv-x="483" 
d="M324 179c69 -30 107 -96 107 -167c0 -106 -69 -203 -202 -203c-81 0 -157 37 -199 102l51 49c39 -54 85 -80 144 -80c90 0 127 59 127 132c0 75 -54 128 -143 128h-68v68h69c74 0 117 47 117 111c0 60 -40 108 -110 108c-54 0 -94 -25 -127 -69l-51 48
c44 64 107 92 180 92c119 0 187 -82 187 -178c0 -53 -25 -108 -82 -141z" />
    <glyph glyph-name="uni0438.loclBGR" horiz-adv-x="566" 
d="M405 487h77v-487h-72v53c-35 -40 -87 -64 -151 -64c-115 0 -180 79 -180 192v306h77v-298c0 -76 46 -130 121 -130c74 0 128 55 128 130v298z" />
    <glyph glyph-name="uni0439.loclBGR" horiz-adv-x="566" 
d="M283 573c-91 0 -151 63 -151 158v31h65v-29c0 -65 32 -102 86 -102c56 0 87 37 87 102v29h65v-31c0 -95 -60 -158 -152 -158zM405 487h77v-487h-72v53c-35 -40 -87 -64 -151 -64c-115 0 -180 79 -180 192v306h77v-298c0 -76 46 -130 121 -130c74 0 128 55 128 130v298z
" />
    <glyph glyph-name="uni045D.loclBGR" horiz-adv-x="566" 
d="M313 566h-59l-120 200v14h94zM405 487h77v-487h-72v53c-35 -40 -87 -64 -151 -64c-115 0 -180 79 -180 192v306h77v-298c0 -76 46 -130 121 -130c74 0 128 55 128 130v298z" />
    <glyph glyph-name="uni043A.loclBGR" horiz-adv-x="506" 
d="M85 0v750h77v-750h-77zM263 273l230 -273h-99l-224 274l203 213h101z" />
    <glyph glyph-name="uni043B.loclBGR" horiz-adv-x="539" 
d="M513 0h-82l-161 367l-162 -367h-82l230 498h28z" />
    <glyph glyph-name="uni043F.loclBGR" horiz-adv-x="566" 
d="M307 498c115 0 181 -79 181 -192v-306h-77v297c0 77 -46 130 -121 130s-128 -54 -128 -130v-297h-77v487h72v-52c35 39 87 63 150 63z" />
    <glyph glyph-name="uni0442.loclBGR" horiz-adv-x="874" 
d="M619 498c114 0 177 -79 177 -192v-306h-77v296c0 77 -42 131 -115 131c-74 0 -125 -56 -125 -124v-303h-77v296c0 77 -44 131 -116 131c-74 0 -124 -54 -124 -131v-296h-77v487h72v-51c34 39 84 62 145 62c73 0 123 -33 150 -84c34 49 92 84 167 84z" />
    <glyph glyph-name="uni0446.loclBGR" horiz-adv-x="597" 
d="M482 68h80v-209h-77v141h-80v47c-35 -36 -85 -58 -146 -58c-115 0 -180 79 -180 198v300h77v-291c0 -82 46 -136 121 -136c74 0 128 55 128 129v298h77v-419z" />
    <glyph glyph-name="uni0448.loclBGR" horiz-adv-x="874" 
d="M713 487h77v-487h-72v51c-34 -39 -85 -62 -146 -62c-73 0 -123 32 -150 84c-34 -49 -92 -84 -167 -84c-114 0 -176 79 -176 192v306h77v-297c0 -76 42 -130 115 -130s125 56 125 124v303h77v-297c0 -76 43 -130 116 -130s124 54 124 130v297z" />
    <glyph glyph-name="uni0449.loclBGR" horiz-adv-x="905" 
d="M790 68h80v-209h-77v141h-80v46c-34 -36 -83 -57 -141 -57c-73 0 -123 32 -150 84c-34 -49 -92 -84 -167 -84c-114 0 -176 79 -176 192v306h77v-297c0 -76 42 -130 115 -130s125 56 125 124v303h77v-297c0 -76 43 -130 116 -130s124 54 124 130v297h77v-419z" />
    <glyph glyph-name="uni044C.loclBGR" horiz-adv-x="513" 
d="M272 331c118 0 191 -63 191 -167c0 -108 -78 -175 -191 -175c-112 0 -193 67 -193 189v309h77v-156h116zM270 59c69 0 114 39 114 104c0 60 -42 100 -117 100h-111v-88c0 -77 47 -116 114 -116z" />
    <glyph glyph-name="uni044A.loclBGR" horiz-adv-x="567" 
d="M325 -11c-112 0 -194 67 -194 189v240h-111v69h188v-156h118c117 0 190 -63 190 -168c0 -107 -78 -174 -191 -174zM323 59c69 0 114 39 114 103c0 61 -42 100 -117 100h-112v-87c0 -77 48 -116 115 -116z" />
    <glyph glyph-name="uni044E.loclBGR" horiz-adv-x="799" 
d="M499 498c138 0 250 -111 250 -254c0 -142 -112 -254 -251 -254c-132 0 -239 101 -248 235h-88v-225h-77v750h77v-457h91c22 119 122 205 246 205zM498 61c98 0 172 80 172 182c0 105 -74 184 -171 184c-99 0 -171 -80 -171 -184c0 -103 72 -182 170 -182z" />
    <glyph glyph-name="uni0431.loclSRB" horiz-adv-x="610" 
d="M395 483c120 -51 165 -152 165 -239c0 -141 -114 -254 -256 -254c-141 0 -254 111 -254 254c0 113 76 207 183 236c-92 39 -143 81 -143 148c0 71 51 122 144 122h277v-68h-277c-42 0 -67 -20 -67 -55c0 -42 43 -66 109 -94zM304 61c101 0 177 80 177 182
c0 105 -76 184 -176 184c-102 0 -176 -80 -176 -184c0 -103 74 -182 175 -182z" />
    <glyph glyph-name="uni0430.ss01" horiz-adv-x="632" 
d="M475 487h73v-487h-77v71c-39 -52 -108 -82 -180 -82c-138 0 -241 111 -241 255c0 143 102 254 241 254c76 0 146 -33 184 -89v78zM302 60c84 0 170 56 170 184s-86 183 -170 183c-100 0 -173 -79 -173 -184c0 -106 74 -183 173 -183z" />
    <glyph glyph-name="uni0434.ss01" horiz-adv-x="598" 
d="M510 68h61v-209h-76v141h-391v-141h-77v209h63l196 430h28zM300 362l-129 -294h258z" />
    <glyph glyph-name="uni0443.ss01" horiz-adv-x="566" 
d="M405 487h77v-464c0 -139 -92 -214 -212 -214c-86 0 -153 38 -203 95l47 53c45 -47 90 -76 153 -76c76 0 138 43 138 138v52c-34 -39 -86 -62 -148 -62c-116 0 -178 82 -178 193v285h76v-275c0 -77 44 -132 121 -132c75 0 129 53 129 129v278z" />
    <glyph glyph-name="uni045E.ss01" horiz-adv-x="566" 
d="M288 573c-91 0 -151 63 -151 158v31h65v-29c0 -65 32 -102 86 -102c56 0 87 37 87 102v29h65v-31c0 -95 -60 -158 -152 -158zM405 487h77v-464c0 -139 -92 -214 -212 -214c-86 0 -153 38 -203 95l47 53c45 -47 90 -76 153 -76c76 0 138 43 138 138v52
c-34 -39 -86 -62 -148 -62c-116 0 -178 82 -178 193v285h76v-275c0 -77 44 -132 121 -132c75 0 129 53 129 129v278z" />
    <glyph glyph-name="uni0444.ss01" horiz-adv-x="1018" 
d="M727 498c140 0 241 -111 241 -254c0 -144 -102 -255 -241 -255c-72 0 -140 30 -180 82l1 -251h-77v251c-39 -52 -108 -82 -180 -82c-138 0 -241 111 -241 255c0 143 102 254 241 254c73 0 141 -31 180 -83v335h77l-1 -334c39 51 107 82 180 82zM302 60
c85 0 170 56 170 184s-86 183 -170 183c-100 0 -173 -78 -173 -184s74 -183 173 -183zM716 60c99 0 173 77 173 183s-73 184 -173 184c-84 0 -169 -55 -169 -183s84 -184 169 -184z" />
    <glyph glyph-name="uni04EF.ss01" horiz-adv-x="566" 
d="M427 704v-62h-275v62h275zM405 487h77v-464c0 -139 -92 -214 -212 -214c-86 0 -153 38 -203 95l47 53c45 -47 90 -76 153 -76c76 0 138 43 138 138v52c-34 -39 -86 -62 -148 -62c-116 0 -178 82 -178 193v285h76v-275c0 -77 44 -132 121 -132c75 0 129 53 129 129v278z
" />
    <glyph glyph-name="uni04F3.ss01" horiz-adv-x="566" 
d="M326 766l-114 -200h-55l86 214h83v-14zM442 780h83v-14l-114 -200h-55zM405 209v278h77v-464c0 -139 -92 -214 -212 -214c-86 0 -153 38 -203 95l47 53c45 -47 90 -76 153 -76c76 0 138 43 138 138v52c-34 -39 -86 -62 -148 -62c-116 0 -178 82 -178 193v285h76v-275
c0 -77 44 -132 121 -132c75 0 129 53 129 129z" />
    <glyph glyph-name="Alpha" unicode="&#x391;" horiz-adv-x="663" 
d="M549 0l-56 134h-324l-56 -134h-82l286 671h29l286 -671h-83zM463 204l-132 325l-132 -325h264z" />
    <glyph glyph-name="Beta" unicode="&#x392;" horiz-adv-x="616" 
d="M443 363c82 -24 129 -88 129 -173c0 -109 -78 -190 -209 -190h-272v660h227c117 0 188 -71 188 -167c0 -55 -23 -100 -63 -130zM310 590h-141v-205h141c77 0 116 42 116 103s-38 102 -116 102zM355 70c89 0 137 50 137 122c0 71 -48 122 -137 122h-186v-244h186z" />
    <glyph glyph-name="Gamma" unicode="&#x393;" horiz-adv-x="506" 
d="M91 0v660h391v-70h-313v-590h-78z" />
    <glyph glyph-name="uni0394" unicode="&#x394;" horiz-adv-x="663" 
d="M346 671l277 -648v-23h-583v23l277 648h29zM520 70l-189 447l-188 -447h377z" />
    <glyph glyph-name="Epsilon" unicode="&#x395;" horiz-adv-x="566" 
d="M91 0v660h423v-70h-345v-202h264v-70h-264v-248h357v-70h-435z" />
    <glyph glyph-name="Zeta" unicode="&#x396;" horiz-adv-x="589" 
d="M154 70h401v-70h-523v23l398 567h-355v70h479v-23z" />
    <glyph glyph-name="Eta" unicode="&#x397;" horiz-adv-x="708" 
d="M91 0v660h78v-272h370v272h78v-660h-78v318h-370v-318h-78z" />
    <glyph glyph-name="Theta" unicode="&#x398;" horiz-adv-x="781" 
d="M390 -11c-191 0 -342 149 -342 341c0 193 152 341 342 341c189 0 343 -148 343 -341s-154 -341 -343 -341zM390 58c152 0 266 117 266 272s-114 272 -266 272s-264 -116 -264 -272c0 -155 112 -272 264 -272zM232 293v70h317v-70h-317z" />
    <glyph glyph-name="Iota" unicode="&#x399;" horiz-adv-x="259" 
d="M91 0v660h78v-660h-78z" />
    <glyph glyph-name="Kappa" unicode="&#x39a;" horiz-adv-x="633" 
d="M91 0v660h78v-660h-78zM280 354l322 -354h-99l-325 354l297 306h100z" />
    <glyph glyph-name="Lambda" unicode="&#x39b;" horiz-adv-x="663" 
d="M632 0h-83l-218 518l-218 -518h-82l286 671h29z" />
    <glyph glyph-name="Mu" unicode="&#x39c;" horiz-adv-x="789" 
d="M671 671h27v-671h-78v473l-211 -286h-28l-212 288v-475h-78v671h28l275 -381z" />
    <glyph glyph-name="Nu" unicode="&#x39d;" horiz-adv-x="708" 
d="M539 660h78v-671h-28l-420 506v-495h-78v671h28l420 -507v496z" />
    <glyph glyph-name="Xi" unicode="&#x39e;" horiz-adv-x="615" 
d="M40 590v70h535v-70h-535zM108 298v70h401v-70h-401zM40 0v70h535v-70h-535z" />
    <glyph glyph-name="Omicron" unicode="&#x39f;" horiz-adv-x="781" 
d="M390 -11c-191 0 -342 149 -342 341c0 193 152 341 342 341c189 0 343 -148 343 -341s-154 -341 -343 -341zM391 61c149 0 261 116 261 270c0 152 -112 268 -261 268c-151 0 -262 -115 -262 -268c0 -154 111 -270 262 -270z" />
    <glyph glyph-name="Pi" unicode="&#x3a0;" horiz-adv-x="682" 
d="M91 0v660h500v-660h-78v590h-344v-590h-78z" />
    <glyph glyph-name="Rho" unicode="&#x3a1;" horiz-adv-x="573" 
d="M91 0v660h232c130 0 211 -80 211 -191c0 -112 -81 -193 -211 -193h-154v-276h-78zM169 346h152c87 0 132 51 132 122c0 70 -45 122 -132 122h-152v-244z" />
    <glyph glyph-name="Sigma" unicode="&#x3a3;" horiz-adv-x="574" 
d="M186 70h348v-70h-469v23l236 315l-236 299v23h457v-70h-333l192 -243v-16z" />
    <glyph glyph-name="Tau" unicode="&#x3a4;" horiz-adv-x="581" 
d="M251 0v590h-232v70h543v-70h-233v-590h-78z" />
    <glyph glyph-name="Upsilon" unicode="&#x3a5;" horiz-adv-x="616" 
d="M576 660l-229 -387v-273h-78v273l-229 387h88l180 -310l181 310h87z" />
    <glyph glyph-name="Phi" unicode="&#x3a6;" horiz-adv-x="799" 
d="M751 331c0 -180 -132 -311 -313 -312v-61h-78v61c-180 1 -312 132 -312 312c0 178 131 309 312 310v60h78v-60c182 -1 313 -132 313 -310zM129 329c0 -141 96 -240 231 -240v481c-135 0 -231 -100 -231 -241zM438 89c135 0 232 100 232 240c0 141 -97 241 -232 241v-481z
" />
    <glyph glyph-name="Chi" unicode="&#x3a7;" horiz-adv-x="599" 
d="M569 0h-91l-178 271l-179 -271h-91l227 338l-211 322h90l164 -257l163 257h90l-208 -323z" />
    <glyph glyph-name="Psi" unicode="&#x3a8;" horiz-adv-x="760" 
d="M341 0v152c-170 21 -277 125 -277 305v203h78v-207c0 -131 79 -220 199 -228v435h78v-435c120 8 199 97 199 228v207h78v-203c0 -180 -107 -284 -277 -305v-152h-78z" />
    <glyph glyph-name="uni03A9" unicode="&#x3a9;" horiz-adv-x="791" 
d="M738 343c0 -111 -53 -198 -162 -273h152v-70h-269v70c130 61 198 153 198 270c0 150 -111 259 -262 259s-261 -108 -261 -258c0 -117 68 -209 198 -271v-70h-269v70h150c-106 71 -160 162 -160 273c0 186 148 328 342 328c193 0 343 -143 343 -328z" />
    <glyph glyph-name="Alphatonos" unicode="&#x386;" horiz-adv-x="663" 
d="M549 0l-56 134h-324l-56 -134h-82l286 671h29l286 -671h-83zM132 660l-39 -211h-57l13 211h83zM463 204l-132 325l-132 -325h264z" />
    <glyph glyph-name="Epsilontonos" unicode="&#x388;" horiz-adv-x="566" 
d="M-96 449l13 211h83l-39 -211h-57zM91 0v660h423v-70h-345v-202h264v-70h-264v-248h357v-70h-435z" />
    <glyph glyph-name="Etatonos" unicode="&#x389;" horiz-adv-x="708" 
d="M-96 449l13 211h83l-39 -211h-57zM91 0v660h78v-272h370v272h78v-660h-78v318h-370v-318h-78z" />
    <glyph glyph-name="Iotatonos" unicode="&#x38a;" horiz-adv-x="259" 
d="M-96 449l13 211h83l-39 -211h-57zM91 0v660h78v-660h-78z" />
    <glyph glyph-name="Omicrontonos" unicode="&#x38c;" horiz-adv-x="781" 
d="M390 -11c-191 0 -342 149 -342 341c0 193 152 341 342 341c189 0 343 -148 343 -341s-154 -341 -343 -341zM-48 449l13 211h83l-39 -211h-57zM391 61c149 0 261 116 261 270c0 152 -112 268 -261 268c-151 0 -262 -115 -262 -268c0 -154 111 -270 262 -270z" />
    <glyph glyph-name="Upsilontonos" unicode="&#x38e;" horiz-adv-x="616" 
d="M-117 449l13 211h83l-39 -211h-57zM576 660l-229 -387v-273h-78v273l-229 387h88l180 -310l181 310h87z" />
    <glyph glyph-name="Omegatonos" unicode="&#x38f;" horiz-adv-x="791" 
d="M738 343c0 -111 -53 -198 -162 -273h152v-70h-269v70c130 61 198 153 198 270c0 150 -111 259 -262 259s-261 -108 -261 -258c0 -117 68 -209 198 -271v-70h-269v70h150c-106 71 -160 162 -160 273c0 186 148 328 342 328c193 0 343 -143 343 -328zM-48 449l13 211h83
l-39 -211h-57z" />
    <glyph glyph-name="Iotadieresis" unicode="&#x3aa;" horiz-adv-x="259" 
d="M13 757c-28 0 -55 23 -55 53s27 53 55 53c31 0 55 -23 55 -53s-24 -53 -55 -53zM246 756c-29 0 -55 24 -55 53c0 30 26 54 55 54c30 0 55 -24 55 -54c0 -29 -25 -53 -55 -53zM91 0v660h78v-660h-78z" />
    <glyph glyph-name="Upsilondieresis" unicode="&#x3ab;" horiz-adv-x="616" 
d="M191 757c-28 0 -55 23 -55 53s27 53 55 53c31 0 55 -23 55 -53s-24 -53 -55 -53zM424 756c-29 0 -55 24 -55 53c0 30 26 54 55 54c30 0 55 -24 55 -54c0 -29 -25 -53 -55 -53zM576 660l-229 -387v-273h-78v273l-229 387h88l180 -310l181 310h87z" />
    <glyph glyph-name="Xi.ss01" horiz-adv-x="645" 
d="M605 590h-243v-223h177v-68h-177v-229h243v-70h-565v70h244v229h-176v68h176v223h-244v70h565v-70z" />
    <glyph glyph-name="alpha" unicode="&#x3b1;" horiz-adv-x="644" 
d="M593 62c8 0 16 1 30 3v-65c-17 -4 -36 -7 -53 -7c-54 0 -90 26 -102 85c-37 -56 -105 -89 -181 -89c-137 0 -237 111 -237 255c0 143 99 254 237 254c78 0 148 -36 185 -95c1 26 3 54 5 84h73c-7 -106 -10 -181 -10 -232v-122c0 -49 19 -71 53 -71zM297 60
c85 0 167 59 167 183s-81 184 -167 184c-98 0 -168 -78 -168 -183c0 -106 71 -184 168 -184z" />
    <glyph glyph-name="beta" unicode="&#x3b2;" horiz-adv-x="610" 
d="M412 421c91 -29 148 -105 148 -206c0 -132 -97 -226 -233 -226c-62 0 -120 22 -165 60v-229h-77v734c0 122 89 209 216 209c118 0 201 -76 201 -185c0 -71 -34 -127 -90 -157zM319 60c96 0 162 63 162 157s-67 158 -167 158h-62v68h47c76 0 124 49 124 128
c0 71 -52 121 -124 121c-81 0 -137 -59 -137 -142v-419c40 -46 96 -71 157 -71z" />
    <glyph glyph-name="gamma" unicode="&#x3b3;" horiz-adv-x="557" 
d="M531 487l-214 -506v-161h-76v161l-215 506h82l171 -406l170 406h82z" />
    <glyph glyph-name="delta" unicode="&#x3b4;" horiz-adv-x="596" 
d="M433 457c81 -83 113 -143 113 -220c0 -139 -110 -248 -249 -248s-247 109 -247 248c0 137 107 243 245 243h10l-244 247v23h445v-73h-290zM298 60c100 0 169 71 169 173c0 104 -72 178 -172 178c-98 0 -166 -72 -166 -176c0 -105 68 -175 169 -175z" />
    <glyph glyph-name="epsilon" unicode="&#x3b5;" horiz-adv-x="508" 
d="M410 129l52 -46c-45 -62 -113 -94 -209 -94c-135 0 -202 47 -202 138c0 63 34 107 94 123c-46 20 -72 60 -72 112c0 85 66 136 184 136c90 0 157 -30 197 -85l-52 -46c-34 40 -75 60 -140 60c-76 0 -110 -27 -110 -78c0 -45 30 -70 96 -70h101v-68h-99
c-86 0 -120 -23 -120 -72c0 -56 32 -79 123 -79c75 0 119 20 157 69z" />
    <glyph glyph-name="zeta" unicode="&#x3b6;" horiz-adv-x="455" 
d="M455 727l-199 -284c-86 -122 -128 -186 -128 -245c0 -69 41 -108 136 -129l39 -8c88 -18 129 -73 129 -145c0 -30 -7 -63 -24 -96h-77c13 24 23 51 23 83c0 56 -32 82 -93 94l-40 8c-115 23 -171 94 -171 188c0 76 43 143 147 291l136 194h-280v72h402v-23z" />
    <glyph glyph-name="eta" unicode="&#x3b7;" horiz-adv-x="586" 
d="M326 498c111 0 182 -75 182 -192v-486h-77v476c0 79 -49 131 -121 131c-76 0 -129 -55 -129 -131v-296h-76v354c0 48 -21 69 -55 69c-6 0 -13 0 -29 -1v65c16 4 36 7 54 7c47 0 80 -20 95 -65c36 43 91 69 156 69z" />
    <glyph glyph-name="theta" unicode="&#x3b8;" horiz-adv-x="617" 
d="M309 761c157 0 258 -130 258 -385s-101 -387 -258 -387s-258 131 -258 387c0 255 101 385 258 385zM309 690c-101 0 -170 -89 -178 -275h356c-8 186 -78 275 -178 275zM309 59c100 0 171 93 178 283h-356c7 -190 77 -283 178 -283z" />
    <glyph glyph-name="iota" unicode="&#x3b9;" horiz-adv-x="311" 
d="M225 -11c-95 0 -143 53 -143 154v344h77v-335c0 -65 24 -93 82 -93c19 0 40 2 65 6v-65c-25 -6 -50 -11 -81 -11z" />
    <glyph glyph-name="kappa" unicode="&#x3ba;" horiz-adv-x="508" 
d="M85 0v487h77v-487h-77zM268 265l227 -265h-97l-226 264l210 223h99z" />
    <glyph glyph-name="lambda" unicode="&#x3bb;" horiz-adv-x="548" 
d="M513 64h22v-64c-13 -4 -25 -6 -39 -6c-49 0 -77 24 -99 86l-122 329l-176 -409h-82l222 500l-37 106c-22 61 -47 85 -94 85c-12 0 -28 -1 -48 -3v65c17 5 37 8 61 8c71 0 114 -38 148 -128l193 -520c13 -34 28 -49 51 -49z" />
    <glyph glyph-name="uni03BC" unicode="&#x3bc;" horiz-adv-x="592" 
d="M542 62c7 0 16 1 29 3v-65c-17 -4 -34 -7 -52 -7c-46 0 -78 20 -94 59c-30 -39 -77 -63 -134 -63c-54 0 -99 21 -129 57v-226h-77v667h77v-291c0 -79 51 -136 124 -136s125 57 125 136v291h77v-351c0 -50 17 -74 54 -74z" />
    <glyph glyph-name="nu" unicode="&#x3bd;" horiz-adv-x="539" 
d="M431 487h82l-229 -498h-28l-230 498h82l162 -367z" />
    <glyph glyph-name="xi" unicode="&#x3be;" horiz-adv-x="471" 
d="M303 678c-91 0 -134 -65 -134 -128c0 -64 43 -128 122 -128h119v-70h-119c-92 0 -153 -55 -153 -143c0 -77 47 -123 145 -143l41 -8c84 -17 127 -61 127 -142c0 -33 -8 -65 -24 -96h-76c14 30 22 58 22 82c0 55 -26 82 -90 92l-43 7c-114 18 -181 95 -181 199
c0 92 49 160 131 190c-67 31 -98 88 -98 146c0 56 23 108 67 142h-94v72h386v-72h-148z" />
    <glyph glyph-name="omicron" unicode="&#x3bf;" horiz-adv-x="610" 
d="M304 -10c-142 0 -254 113 -254 254c0 143 112 254 255 254c142 0 255 -112 255 -254c0 -141 -113 -254 -256 -254zM304 61c100 0 177 79 177 182c0 105 -76 184 -176 184c-101 0 -176 -79 -176 -184c0 -104 75 -182 175 -182z" />
    <glyph glyph-name="pi" unicode="&#x3c0;" horiz-adv-x="592" 
d="M102 0v414h-79v73h545v-73h-78v-414h-76v414h-235v-414h-77z" />
    <glyph glyph-name="rho" unicode="&#x3c1;" horiz-adv-x="621" 
d="M321 498c145 0 250 -106 250 -254c0 -145 -102 -255 -238 -255c-75 0 -140 32 -178 82v-251h-76v421c0 153 97 257 242 257zM321 60c99 0 171 78 171 183c0 106 -72 184 -172 184c-101 0 -166 -73 -166 -185c0 -108 68 -182 167 -182z" />
    <glyph glyph-name="uni03C2" unicode="&#x3c2;" horiz-adv-x="526" 
d="M352 -180c12 25 21 54 21 82c0 51 -24 75 -84 91l-51 13c-126 33 -188 121 -188 238c0 148 101 254 244 254c88 0 160 -38 206 -109l-55 -44c-40 54 -89 82 -149 82c-97 0 -167 -76 -167 -180c0 -90 47 -151 150 -177l52 -13c81 -20 121 -68 121 -141
c0 -34 -9 -66 -24 -96h-76z" />
    <glyph glyph-name="sigma" unicode="&#x3c3;" horiz-adv-x="634" 
d="M620 487v-73h-147c50 -42 80 -105 80 -177c0 -140 -109 -248 -252 -248s-251 109 -251 253c0 142 108 245 255 245h315zM301 60c99 0 173 79 173 183c0 102 -71 174 -172 174s-173 -72 -173 -175c0 -104 73 -182 172 -182z" />
    <glyph glyph-name="tau" unicode="&#x3c4;" horiz-adv-x="478" 
d="M448 414h-190v-262c0 -63 32 -93 100 -93c23 0 42 2 67 6v-65c-24 -6 -50 -11 -80 -11c-106 0 -163 57 -163 158v267h-165v73h431v-73z" />
    <glyph glyph-name="upsilon" unicode="&#x3c5;" horiz-adv-x="567" 
d="M284 -11c-125 0 -205 83 -205 211v287h77v-291c0 -82 51 -137 128 -137c76 0 128 55 128 137v291h77v-287c0 -128 -81 -211 -205 -211z" />
    <glyph glyph-name="phi" unicode="&#x3c6;" horiz-adv-x="747" 
d="M697 243c0 -151 -127 -246 -286 -254v-169h-77v170c-158 7 -284 102 -284 253c0 150 126 245 284 252v165h77v-164c159 -8 286 -103 286 -253zM409 57c118 6 212 71 212 185s-94 180 -212 186v-371zM127 242c0 -114 92 -179 209 -185v371c-116 -7 -209 -72 -209 -186z
" />
    <glyph glyph-name="chi" unicode="&#x3c7;" horiz-adv-x="488" 
d="M454 -117c10 0 19 0 28 1v-64c-15 -4 -28 -6 -46 -6c-49 0 -81 23 -106 79l-93 196l-127 -269h-85l168 344l-96 213c-12 26 -24 46 -61 46c-12 0 -19 0 -31 -1v65c16 4 27 6 49 6c59 0 82 -28 105 -80l80 -180l123 254h84l-165 -329l109 -229c18 -37 30 -46 64 -46z" />
    <glyph glyph-name="psi" unicode="&#x3c8;" horiz-adv-x="739" 
d="M331 -180v169c-149 0 -252 105 -252 255v243h76v-237c0 -109 76 -191 176 -191v601h77v-601c100 0 177 82 177 191v237h76v-243c0 -150 -104 -255 -253 -255v-169h-77z" />
    <glyph glyph-name="omega" unicode="&#x3c9;" horiz-adv-x="784" 
d="M565 493c109 -39 169 -130 169 -260c0 -150 -77 -244 -199 -244c-66 0 -116 28 -143 82c-26 -54 -76 -82 -143 -82c-122 0 -199 94 -199 244c0 130 60 221 169 260l28 -68c-79 -38 -119 -101 -119 -193c0 -105 48 -172 123 -172c65 0 105 48 105 126v138h73v-138
c0 -78 39 -126 104 -126c75 0 123 66 123 171c0 93 -38 156 -118 194z" />
    <glyph glyph-name="iotatonos" unicode="&#x3af;" horiz-adv-x="311" 
d="M81 566l30 214h93v-14l-63 -200h-60zM225 -11c-95 0 -143 53 -143 154v344h77v-335c0 -65 24 -93 82 -93c19 0 40 2 65 6v-65c-25 -6 -50 -11 -81 -11z" />
    <glyph glyph-name="iotadieresis" unicode="&#x3ca;" horiz-adv-x="311" 
d="M29 620c-29 0 -55 24 -55 53c0 30 26 54 55 54c31 0 56 -24 56 -54c0 -29 -25 -53 -56 -53zM212 620c-29 0 -56 24 -56 53c0 30 27 54 56 54c30 0 55 -24 55 -54c0 -29 -25 -53 -55 -53zM225 -11c-95 0 -143 53 -143 154v344h77v-335c0 -65 24 -93 82 -93c19 0 40 2 65 6
v-65c-25 -6 -50 -11 -81 -11z" />
    <glyph glyph-name="iotadieresistonos" unicode="&#x390;" horiz-adv-x="311" 
d="M68 566l39 214h93v-14l-74 -200h-58zM-24 620c-28 0 -55 24 -55 53c0 30 27 54 55 54c31 0 55 -24 55 -54c0 -29 -24 -53 -55 -53zM279 620c-30 0 -55 24 -55 53c0 30 25 54 55 54s55 -24 55 -54c0 -29 -25 -53 -55 -53zM225 -11c-95 0 -143 53 -143 154v344h77v-335
c0 -65 24 -93 82 -93c19 0 40 2 65 6v-65c-25 -6 -50 -11 -81 -11z" />
    <glyph glyph-name="upsilontonos" unicode="&#x3cd;" horiz-adv-x="567" 
d="M237 566l30 214h93v-14l-63 -200h-60zM284 -11c-125 0 -205 83 -205 211v287h77v-291c0 -82 51 -137 128 -137c76 0 128 55 128 137v291h77v-287c0 -128 -81 -211 -205 -211z" />
    <glyph glyph-name="upsilondieresis" unicode="&#x3cb;" horiz-adv-x="567" 
d="M170 620c-28 0 -55 24 -55 53c0 30 27 54 55 54c31 0 56 -24 56 -54c0 -29 -25 -53 -56 -53zM383 620c-29 0 -56 24 -56 53c0 30 27 54 56 54c30 0 55 -24 55 -54c0 -29 -25 -53 -55 -53zM284 -11c-125 0 -205 83 -205 211v287h77v-291c0 -82 51 -137 128 -137
c76 0 128 55 128 137v291h77v-287c0 -128 -81 -211 -205 -211z" />
    <glyph glyph-name="upsilondieresistonos" unicode="&#x3b0;" horiz-adv-x="567" 
d="M225 566l39 214h93v-14l-74 -200h-58zM133 620c-28 0 -55 24 -55 53c0 30 27 54 55 54c31 0 55 -24 55 -54c0 -29 -24 -53 -55 -53zM436 620c-30 0 -55 24 -55 53c0 30 25 54 55 54s55 -24 55 -54c0 -29 -25 -53 -55 -53zM284 -11c-125 0 -205 83 -205 211v287h77v-291
c0 -82 51 -137 128 -137c76 0 128 55 128 137v291h77v-287c0 -128 -81 -211 -205 -211z" />
    <glyph glyph-name="omicrontonos" unicode="&#x3cc;" horiz-adv-x="610" 
d="M265 566l30 214h93v-14l-63 -200h-60zM304 -10c-142 0 -254 113 -254 254c0 143 112 254 255 254c142 0 255 -112 255 -254c0 -141 -113 -254 -256 -254zM304 61c100 0 177 79 177 182c0 105 -76 184 -176 184c-101 0 -176 -79 -176 -184c0 -104 75 -182 175 -182z" />
    <glyph glyph-name="omegatonos" unicode="&#x3ce;" horiz-adv-x="784" 
d="M476 766l-63 -200h-60l30 214h93v-14zM565 493c109 -39 169 -130 169 -260c0 -150 -77 -244 -199 -244c-66 0 -116 28 -143 82c-26 -54 -76 -82 -143 -82c-122 0 -199 94 -199 244c0 130 60 221 169 260l28 -68c-79 -38 -119 -101 -119 -193c0 -105 48 -172 123 -172
c65 0 105 48 105 126v138h73v-138c0 -78 39 -126 104 -126c75 0 123 66 123 171c0 93 -38 156 -118 194z" />
    <glyph glyph-name="alphatonos" unicode="&#x3ac;" horiz-adv-x="644" 
d="M375 766l-63 -200h-60l30 214h93v-14zM593 62c8 0 16 1 30 3v-65c-17 -4 -36 -7 -53 -7c-54 0 -90 26 -102 85c-37 -56 -105 -89 -181 -89c-137 0 -237 111 -237 255c0 143 99 254 237 254c78 0 148 -36 185 -95c1 26 3 54 5 84h73c-7 -106 -10 -181 -10 -232v-122
c0 -49 19 -71 53 -71zM297 60c85 0 167 59 167 183s-81 184 -167 184c-98 0 -168 -78 -168 -183c0 -106 71 -184 168 -184z" />
    <glyph glyph-name="epsilontonos" unicode="&#x3ad;" horiz-adv-x="508" 
d="M340 766l-63 -200h-60l30 214h93v-14zM410 129l52 -46c-45 -62 -113 -94 -209 -94c-135 0 -202 47 -202 138c0 63 34 107 94 123c-46 20 -72 60 -72 112c0 85 66 136 184 136c90 0 157 -30 197 -85l-52 -46c-34 40 -75 60 -140 60c-76 0 -110 -27 -110 -78
c0 -45 30 -70 96 -70h101v-68h-99c-86 0 -120 -23 -120 -72c0 -56 32 -79 123 -79c75 0 119 20 157 69z" />
    <glyph glyph-name="etatonos" unicode="&#x3ae;" horiz-adv-x="586" 
d="M392 766l-63 -200h-60l30 214h93v-14zM326 498c111 0 182 -75 182 -192v-486h-77v476c0 79 -49 131 -121 131c-76 0 -129 -55 -129 -131v-296h-76v354c0 48 -21 69 -55 69c-6 0 -13 0 -29 -1v65c16 4 36 7 54 7c47 0 80 -20 95 -65c36 43 91 69 156 69z" />
    <glyph glyph-name="xi.ss01" horiz-adv-x="517" 
d="M324 58c84 -17 127 -61 127 -142c0 -33 -8 -65 -24 -96h-76c14 30 22 58 22 82c0 55 -26 82 -90 92l-43 7c-114 18 -181 95 -181 199c0 93 50 162 134 192c-62 32 -101 95 -101 172c0 117 84 197 205 197c81 0 153 -41 196 -109l-54 -44c-35 53 -83 81 -136 81
c-83 0 -132 -50 -132 -130s58 -137 135 -137h104v-70h-119c-92 0 -153 -55 -153 -143c0 -77 47 -123 145 -143z" />
    <glyph glyph-name="zero" unicode="0" horiz-adv-x="615" 
d="M308 -11c-171 0 -242 159 -242 347c0 192 75 335 242 335s241 -143 241 -335c0 -188 -71 -347 -241 -347zM308 61c117 0 160 117 160 274c0 156 -43 264 -160 264s-161 -108 -161 -264c0 -157 45 -274 161 -274z" />
    <glyph glyph-name="one" unicode="1" horiz-adv-x="379" 
d="M242 660h29v-660h-78v568l-144 -45l-19 67z" />
    <glyph glyph-name="two" unicode="2" 
d="M195 70h311v-70h-459v20l235 250c71 74 116 130 116 197c0 70 -47 132 -127 132c-83 0 -132 -65 -132 -136c0 -15 2 -37 6 -55h-80c-5 19 -7 41 -7 58c0 102 79 205 213 205c122 0 208 -87 208 -200c0 -99 -69 -174 -138 -247z" />
    <glyph glyph-name="three" unicode="3" horiz-adv-x="538" 
d="M292 412c95 -9 192 -75 192 -203c0 -137 -111 -220 -234 -220c-109 0 -184 65 -224 137l55 39c36 -54 86 -104 168 -104c90 0 154 59 154 147c0 85 -60 136 -167 136h-65v23l173 221h-273v72h396v-23z" />
    <glyph glyph-name="four" unicode="4" horiz-adv-x="548" 
d="M526 191v-68h-96v-123h-78v123h-331v22l217 515h80l-198 -469h232v220h78v-220h96z" />
    <glyph glyph-name="five" unicode="5" horiz-adv-x="555" 
d="M275 413c117 0 226 -65 226 -204c0 -137 -112 -220 -234 -220c-112 0 -187 64 -228 136l54 40c36 -55 88 -104 173 -104c88 0 154 58 154 147c0 87 -60 137 -168 137h-149v315h361v-70h-283v-185c29 5 58 8 94 8z" />
    <glyph glyph-name="six" unicode="6" horiz-adv-x="551" 
d="M285 427c117 0 215 -93 215 -216c0 -126 -100 -222 -225 -222c-124 0 -225 95 -225 223c0 84 42 137 91 210l164 238h93l-168 -242c16 6 35 9 55 9zM275 60c84 0 148 65 148 151c0 84 -64 150 -148 150s-148 -66 -148 -150c0 -86 64 -151 148 -151z" />
    <glyph glyph-name="seven" unicode="7" horiz-adv-x="501" 
d="M35 660h441v-23l-334 -637h-85l314 590h-336v70z" />
    <glyph glyph-name="eight" unicode="8" horiz-adv-x="578" 
d="M363 346c80 -30 157 -81 157 -178c0 -106 -91 -179 -231 -179s-233 73 -233 180c0 93 72 146 157 176c-75 35 -126 84 -126 162c0 106 91 164 202 164c109 0 200 -58 200 -164c0 -75 -46 -126 -126 -161zM164 504c0 -61 49 -91 124 -122c75 30 124 61 124 122
c0 64 -53 100 -123 100c-71 0 -125 -36 -125 -100zM289 56c99 0 152 47 152 115c0 76 -68 108 -152 138c-85 -30 -154 -63 -154 -138c0 -68 55 -115 154 -115z" />
    <glyph glyph-name="nine" unicode="9" horiz-adv-x="551" 
d="M276 671c124 0 224 -95 224 -223c0 -84 -41 -137 -91 -210l-164 -238h-92l168 242c-16 -6 -35 -9 -56 -9c-116 0 -215 93 -215 216c0 126 101 222 226 222zM276 299c84 0 147 66 147 151s-63 150 -147 150s-149 -65 -149 -150s65 -151 149 -151z" />
    <glyph glyph-name="uni2780" unicode="&#x2780;" horiz-adv-x="978" 
d="M488 -101c-238 0 -430 193 -430 431s192 431 430 431c239 0 431 -194 431 -431s-192 -431 -431 -431zM488 -34c202 0 363 159 363 364s-161 364 -363 364c-201 0 -362 -158 -362 -364s161 -364 362 -364zM357 105v61h100v327h-93v61h164v-388h93v-61h-264z" />
    <glyph glyph-name="uni2781" unicode="&#x2781;" horiz-adv-x="978" 
d="M488 -101c-238 0 -430 193 -430 431s192 431 430 431c239 0 431 -194 431 -431s-192 -431 -431 -431zM488 -34c202 0 363 159 363 364s-161 364 -363 364c-201 0 -362 -158 -362 -364s161 -364 362 -364zM329 105v16l160 172c40 43 71 81 71 126c0 43 -28 78 -79 78
c-54 0 -85 -39 -85 -84c0 -12 2 -26 4 -38h-65c-3 14 -5 30 -5 43c0 74 60 143 154 143c89 0 149 -58 149 -138c0 -64 -43 -114 -87 -160l-93 -97h199v-61h-323z" />
    <glyph glyph-name="uni2782" unicode="&#x2782;" horiz-adv-x="978" 
d="M488 -101c-238 0 -430 193 -430 431s192 431 430 431c239 0 431 -194 431 -431s-192 -431 -431 -431zM488 -34c202 0 363 159 363 364s-161 364 -363 364c-201 0 -362 -158 -362 -364s161 -364 362 -364zM475 98c-75 0 -129 43 -157 96l49 36c25 -37 57 -68 107 -68
c52 0 91 35 91 87c0 50 -36 79 -104 79h-49v20l109 143h-172v63h280v-20l-113 -149c63 -9 124 -53 124 -136c0 -92 -77 -151 -165 -151z" />
    <glyph glyph-name="uni2783" unicode="&#x2783;" horiz-adv-x="978" 
d="M488 -101c-238 0 -430 193 -430 431s192 431 430 431c239 0 431 -194 431 -431s-192 -431 -431 -431zM488 -34c202 0 363 159 363 364s-161 364 -363 364c-201 0 -362 -158 -362 -364s161 -364 362 -364zM526 105v78h-226v20l138 351h75l-126 -308h139v133h70v-133h61
v-63h-61v-78h-70z" />
    <glyph glyph-name="uni2784" unicode="&#x2784;" horiz-adv-x="978" 
d="M488 -101c-238 0 -430 193 -430 431s192 431 430 431c239 0 431 -194 431 -431s-192 -431 -431 -431zM488 -34c202 0 363 159 363 364s-161 364 -363 364c-201 0 -362 -158 -362 -364s161 -364 362 -364zM485 97c-79 0 -132 44 -161 97l50 36c25 -37 56 -69 108 -69
c54 0 94 35 94 88c0 51 -37 79 -104 79h-103v226h257v-63h-188v-105c19 3 36 4 59 4c77 0 154 -46 154 -140c0 -93 -77 -153 -166 -153z" />
    <glyph glyph-name="uni2785" unicode="&#x2785;" horiz-adv-x="978" 
d="M488 -101c-238 0 -430 193 -430 431s192 431 430 431c239 0 431 -194 431 -431s-192 -431 -431 -431zM488 -34c202 0 363 159 363 364s-161 364 -363 364c-201 0 -362 -158 -362 -364s161 -364 362 -364zM478 98c-86 0 -158 65 -158 155c0 53 25 91 62 143l112 158h84
l-116 -164c16 6 34 8 54 5c68 -10 122 -68 122 -143c0 -89 -74 -154 -160 -154zM478 162c50 0 88 40 88 91c0 50 -38 89 -88 89s-87 -40 -87 -89c0 -51 37 -91 87 -91z" />
    <glyph glyph-name="uni2786" unicode="&#x2786;" horiz-adv-x="978" 
d="M488 -101c-238 0 -430 193 -430 431s192 431 430 431c239 0 431 -194 431 -431s-192 -431 -431 -431zM488 -34c202 0 363 159 363 364s-161 364 -363 364c-201 0 -362 -158 -362 -364s161 -364 362 -364zM357 106l200 384h-212v65h307v-20l-217 -429h-78z" />
    <glyph glyph-name="uni2787" unicode="&#x2787;" horiz-adv-x="978" 
d="M488 -101c-238 0 -430 193 -430 431s192 431 430 431c239 0 431 -194 431 -431s-192 -431 -431 -431zM488 -34c202 0 363 159 363 364s-161 364 -363 364c-201 0 -362 -158 -362 -364s161 -364 362 -364zM489 98c-96 0 -163 49 -163 125c0 59 43 95 100 116
c-48 23 -79 57 -79 107c0 75 62 115 142 115c79 0 142 -40 142 -115c0 -48 -28 -82 -78 -106c53 -21 99 -57 99 -118c0 -75 -67 -124 -163 -124zM488 369c44 16 74 35 74 73c0 39 -31 62 -73 62c-43 0 -73 -23 -73 -62c0 -38 29 -57 72 -73zM489 155c59 0 91 30 91 71
c0 48 -41 68 -92 87c-50 -19 -91 -39 -91 -86c0 -42 31 -72 92 -72z" />
    <glyph glyph-name="uni2788" unicode="&#x2788;" horiz-adv-x="978" 
d="M489 -101c-239 0 -431 194 -431 431s192 431 431 431c238 0 430 -193 430 -431s-192 -431 -430 -431zM489 -34c201 0 362 158 362 364s-161 364 -362 364c-202 0 -363 -159 -363 -364s161 -364 363 -364zM400 106l115 164c-16 -6 -34 -8 -54 -5c-68 10 -121 68 -121 143
c0 89 73 154 159 154s158 -65 158 -155c0 -53 -24 -90 -62 -143l-112 -158h-83zM499 318c50 0 87 40 87 89c0 51 -37 91 -87 91s-88 -40 -88 -91c0 -50 38 -89 88 -89z" />
    <glyph glyph-name="uni24FF" unicode="&#x24ff;" horiz-adv-x="978" 
d="M488 -101c-238 0 -430 193 -430 431s192 431 430 431c239 0 431 -194 431 -431s-192 -431 -431 -431zM488 98c119 0 171 107 171 235c0 131 -53 228 -171 228c-116 0 -169 -97 -169 -228c0 -128 50 -235 169 -235zM488 162c-69 0 -96 69 -96 171c0 100 27 164 96 164
c70 0 98 -64 98 -164c0 -102 -28 -171 -98 -171z" />
    <glyph glyph-name="uni2776" unicode="&#x2776;" horiz-adv-x="978" 
d="M488 -101c-238 0 -430 193 -430 431s192 431 430 431c239 0 431 -194 431 -431s-192 -431 -431 -431zM357 105h264v61h-93v388h-164v-61h93v-327h-100v-61z" />
    <glyph glyph-name="uni2777" unicode="&#x2777;" horiz-adv-x="978" 
d="M488 -101c-238 0 -430 193 -430 431s192 431 430 431c239 0 431 -194 431 -431s-192 -431 -431 -431zM329 105h323v61h-199l93 97c44 46 87 96 87 160c0 80 -60 138 -149 138c-94 0 -154 -69 -154 -143c0 -13 2 -29 5 -43h65c-2 12 -4 26 -4 38c0 45 31 84 85 84
c51 0 79 -35 79 -78c0 -45 -31 -83 -71 -126l-160 -172v-16z" />
    <glyph glyph-name="uni2778" unicode="&#x2778;" horiz-adv-x="978" 
d="M488 -101c-238 0 -430 193 -430 431s192 431 430 431c239 0 431 -194 431 -431s-192 -431 -431 -431zM475 98c88 0 165 59 165 151c0 83 -61 127 -124 136l113 149v20h-280v-63h172l-109 -143v-20h49c68 0 104 -29 104 -79c0 -52 -39 -87 -91 -87c-50 0 -82 31 -107 68
l-49 -36c28 -53 82 -96 157 -96z" />
    <glyph glyph-name="uni2779" unicode="&#x2779;" horiz-adv-x="978" 
d="M488 -101c-238 0 -430 193 -430 431s192 431 430 431c239 0 431 -194 431 -431s-192 -431 -431 -431zM526 105h70v78h61v63h-61v133h-70v-133h-139l126 308h-75l-138 -351v-20h226v-78z" />
    <glyph glyph-name="uni277A" unicode="&#x277a;" horiz-adv-x="978" 
d="M488 -101c-238 0 -430 193 -430 431s192 431 430 431c239 0 431 -194 431 -431s-192 -431 -431 -431zM485 97c88 0 164 60 164 153c0 94 -75 140 -152 140c-24 0 -41 -1 -60 -4v105h188v63h-256v-226h102c68 0 104 -28 104 -79c0 -53 -39 -88 -93 -88
c-52 0 -84 32 -108 69l-50 -36c28 -53 82 -97 161 -97z" />
    <glyph glyph-name="uni277B" unicode="&#x277b;" horiz-adv-x="978" 
d="M488 -101c-238 0 -430 193 -430 431s192 431 430 431c239 0 431 -194 431 -431s-192 -431 -431 -431zM478 98c86 0 160 65 160 154c0 75 -54 133 -122 143c-19 3 -38 1 -54 -5l116 164h-84l-112 -158c-37 -52 -62 -90 -62 -143c0 -90 72 -155 158 -155zM478 162
c-50 0 -87 40 -87 91c0 49 37 89 87 89s88 -39 88 -89c0 -51 -38 -91 -88 -91z" />
    <glyph glyph-name="uni277C" unicode="&#x277c;" horiz-adv-x="978" 
d="M488 -101c-238 0 -430 193 -430 431s192 431 430 431c239 0 431 -194 431 -431s-192 -431 -431 -431zM358 106h78l217 429v20h-308v-65h213z" />
    <glyph glyph-name="uni277D" unicode="&#x277d;" horiz-adv-x="978" 
d="M488 -101c-238 0 -430 193 -430 431s192 431 430 431c239 0 431 -194 431 -431s-192 -431 -431 -431zM489 98c96 0 163 49 163 124c0 61 -46 97 -99 118c50 24 78 58 78 106c0 75 -63 115 -142 115c-80 0 -142 -40 -142 -115c0 -50 31 -84 79 -107
c-57 -21 -100 -57 -100 -116c0 -76 67 -125 163 -125zM488 369c-43 16 -72 35 -72 73c0 39 30 62 73 62c42 0 73 -23 73 -62c0 -38 -30 -57 -74 -73zM489 155c-61 0 -92 30 -92 72c0 47 41 67 91 86c51 -19 92 -39 92 -87c0 -41 -32 -71 -91 -71z" />
    <glyph glyph-name="uni277E" unicode="&#x277e;" horiz-adv-x="978" 
d="M489 -101c-239 0 -431 194 -431 431s192 431 431 431c238 0 430 -193 430 -431s-192 -431 -430 -431zM400 106h83l112 158c38 53 62 90 62 143c0 90 -72 155 -158 155s-159 -65 -159 -154c0 -75 53 -133 121 -143c19 -3 38 -1 54 5zM499 318c-50 0 -88 39 -88 89
c0 51 38 91 88 91s87 -40 87 -91c0 -49 -37 -89 -87 -89z" />
    <glyph glyph-name="uni24EA" unicode="&#x24ea;" horiz-adv-x="978" 
d="M488 -101c-238 0 -430 193 -430 431s192 431 430 431c239 0 431 -194 431 -431s-192 -431 -431 -431zM488 -39c205 0 369 162 369 369s-164 369 -369 369c-204 0 -367 -161 -367 -369s163 -369 367 -369zM488 98c-118 0 -167 107 -167 235c0 131 52 228 167 228
c117 0 170 -97 170 -228c0 -128 -52 -235 -170 -235zM488 158c73 0 102 72 102 175c0 102 -29 168 -102 168c-72 0 -100 -66 -100 -168c0 -103 28 -175 100 -175z" />
    <glyph glyph-name="zero.osf" horiz-adv-x="663" 
d="M330 -12c-156 0 -280 123 -280 278s124 278 281 278c156 0 282 -123 282 -278s-126 -278 -283 -278zM331 59c116 0 202 91 202 207c0 117 -86 207 -202 207c-117 0 -201 -90 -201 -207c0 -116 84 -207 201 -207z" />
    <glyph glyph-name="one.osf" horiz-adv-x="492" 
d="M78 0v68h152v394h-142v71h220v-465h141v-68h-371z" />
    <glyph glyph-name="two.osf" horiz-adv-x="553" 
d="M228 68h272v-68h-455v20l196 144c82 61 152 106 152 191c0 64 -43 119 -119 119c-80 0 -124 -59 -124 -119c0 -16 3 -35 6 -52h-76c-5 18 -8 39 -8 57c0 93 77 184 204 184c115 0 197 -76 197 -184c0 -102 -75 -169 -165 -234z" />
    <glyph glyph-name="three.osf" horiz-adv-x="518" 
d="M275 289c91 -9 190 -75 190 -203c0 -136 -112 -219 -234 -219c-109 0 -184 64 -224 136l55 40c36 -55 86 -105 168 -105c90 0 155 60 155 148c0 85 -61 137 -169 137h-60v23l168 216h-273v71h397v-23z" />
    <glyph glyph-name="four.osf" horiz-adv-x="543" 
d="M527 68v-68h-97v-121h-77v121h-331v23l213 510h81l-196 -465h233v222h77v-222h97z" />
    <glyph glyph-name="five.osf" horiz-adv-x="542" 
d="M263 291c116 0 225 -65 225 -204c0 -137 -111 -220 -233 -220c-113 0 -188 64 -228 136l54 40c35 -55 87 -105 173 -105c88 0 154 60 154 149c0 86 -61 136 -168 136h-150v310h362v-71h-285v-179c30 5 59 8 96 8z" />
    <glyph glyph-name="six.osf" horiz-adv-x="551" 
d="M285 427c117 0 215 -93 215 -216c0 -126 -100 -222 -225 -222c-124 0 -225 95 -225 223c0 84 42 137 91 210l164 238h93l-168 -242c16 6 35 9 55 9zM275 60c84 0 148 65 148 151c0 84 -64 150 -148 150s-148 -66 -148 -150c0 -86 64 -151 148 -151z" />
    <glyph glyph-name="seven.osf" horiz-adv-x="501" 
d="M35 533h441v-23l-332 -631h-84l309 583h-334v71z" />
    <glyph glyph-name="eight.osf" horiz-adv-x="578" 
d="M363 346c80 -30 157 -81 157 -178c0 -106 -91 -179 -231 -179s-233 73 -233 180c0 93 72 146 157 176c-75 35 -126 84 -126 162c0 106 91 164 202 164c109 0 200 -58 200 -164c0 -75 -46 -126 -126 -161zM164 504c0 -61 49 -91 124 -122c75 30 124 61 124 122
c0 64 -53 100 -123 100c-71 0 -125 -36 -125 -100zM289 56c99 0 152 47 152 115c0 76 -68 108 -152 138c-85 -30 -154 -63 -154 -138c0 -68 55 -115 154 -115z" />
    <glyph glyph-name="nine.osf" horiz-adv-x="551" 
d="M276 544c124 0 224 -95 224 -222c0 -79 -36 -131 -91 -210l-161 -233h-91l165 237c-17 -6 -36 -9 -57 -9c-116 0 -215 93 -215 215c0 127 101 222 226 222zM275 172c85 0 148 66 148 151c0 86 -63 151 -148 151c-83 0 -148 -65 -148 -151c0 -85 65 -151 148 -151z" />
    <glyph glyph-name="zero.osf.zero" horiz-adv-x="663" 
d="M331 544c156 0 282 -123 282 -278s-126 -277 -283 -277c-156 0 -280 122 -280 277s124 278 281 278zM130 266c0 -46 13 -87 36 -121l288 288c-34 25 -76 40 -123 40c-117 0 -201 -90 -201 -207zM331 60c116 0 202 90 202 206c0 46 -13 88 -36 122l-287 -289
c33 -25 74 -39 121 -39z" />
    <glyph glyph-name="zero.tf" 
d="M280 -11c-163 0 -231 155 -231 347c0 195 72 335 231 335s231 -140 231 -335c0 -192 -68 -347 -231 -347zM280 61c108 0 150 115 150 274c0 158 -41 264 -150 264s-150 -106 -150 -264c0 -159 42 -274 150 -274z" />
    <glyph glyph-name="one.tf" 
d="M344 70h175v-70h-449v70h196v502l-181 -49l-18 67l249 70h28v-590z" />
    <glyph glyph-name="two.tf" 
d="M203 70h312v-70h-459v20l235 250c71 74 115 130 115 197c0 70 -46 132 -127 132c-83 0 -131 -65 -131 -136c0 -15 2 -37 6 -55h-80c-5 19 -7 41 -7 58c0 102 78 205 212 205c123 0 208 -87 208 -200c0 -99 -68 -174 -138 -247z" />
    <glyph glyph-name="three.tf" 
d="M294 412c92 -8 192 -74 192 -204c0 -135 -109 -219 -233 -219c-109 0 -184 65 -224 137l55 39c35 -54 85 -104 168 -104c90 0 154 59 154 147c0 85 -60 137 -168 137h-64v22l174 223h-275v70h397v-23z" />
    <glyph glyph-name="four.tf" 
d="M520 191v-68h-88v-123h-78v123h-329v22l203 515h81l-185 -469h230v220h78v-220h88z" />
    <glyph glyph-name="five.tf" 
d="M279 413c117 0 225 -65 225 -204c0 -137 -110 -220 -233 -220c-113 0 -187 64 -228 136l54 40c35 -55 88 -104 173 -104c88 0 154 58 154 147c0 87 -61 136 -169 136h-148v316h361v-70h-284v-185c29 5 58 8 95 8z" />
    <glyph glyph-name="six.tf" 
d="M291 427c116 0 214 -93 214 -216c0 -126 -101 -222 -225 -222s-225 95 -225 223c0 85 44 140 92 210l164 238h91l-167 -242c16 6 35 9 56 9zM280 60c84 0 147 65 147 151c0 84 -63 150 -147 150s-147 -66 -147 -150c0 -86 63 -151 147 -151z" />
    <glyph glyph-name="seven.tf" 
d="M67 660h441v-23l-335 -637h-84l314 590h-336v70z" />
    <glyph glyph-name="eight.tf" 
d="M355 346c80 -30 156 -81 156 -178c0 -106 -91 -179 -231 -179s-231 73 -231 180c0 90 67 145 155 177c-74 34 -124 83 -124 161c0 106 88 164 200 164c111 0 200 -58 200 -164c0 -73 -42 -125 -125 -161zM157 504c0 -60 47 -91 123 -122c73 30 123 61 123 122
c0 63 -51 100 -123 100c-70 0 -123 -36 -123 -100zM280 56c101 0 153 48 153 115c0 75 -65 106 -153 138c-85 -30 -152 -63 -152 -138c0 -67 51 -115 152 -115z" />
    <glyph glyph-name="nine.tf" 
d="M280 671c124 0 225 -95 225 -223c0 -84 -44 -140 -92 -210l-164 -238h-91l167 242c-16 -6 -34 -9 -55 -9c-117 0 -215 93 -215 216c0 126 101 222 225 222zM280 299c84 0 147 66 147 151s-63 150 -147 150s-147 -65 -147 -150s63 -151 147 -151z" />
    <glyph glyph-name="zero.tf.zero" 
d="M280 671c159 0 231 -140 231 -335c0 -192 -68 -347 -231 -347s-231 155 -231 347c0 195 72 335 231 335zM280 603c-111 0 -154 -108 -154 -268c0 -39 3 -76 8 -109l276 277c-23 63 -65 100 -130 100zM280 57c111 0 154 118 154 278c0 35 -2 68 -7 97l-275 -275
c24 -62 65 -100 128 -100z" />
    <glyph glyph-name="zero.tosf" 
d="M279 -11c-144 0 -250 119 -250 277c0 159 106 278 251 278c144 0 251 -119 251 -278c0 -158 -107 -277 -252 -277zM279 60c105 0 172 87 172 206c0 120 -67 207 -171 207c-105 0 -171 -86 -171 -207c0 -120 66 -206 170 -206z" />
    <glyph glyph-name="one.tosf" 
d="M63 0v68h195v394h-178v71h256v-465h178v-68h-451z" />
    <glyph glyph-name="two.tosf" 
d="M219 68h276v-68h-455v20l196 145c83 62 153 116 153 196c0 64 -44 112 -119 112c-82 0 -124 -57 -124 -119c0 -15 2 -34 5 -51h-76c-5 18 -8 39 -8 57c0 93 77 184 204 184c115 0 197 -77 197 -182c0 -101 -75 -165 -171 -236z" />
    <glyph glyph-name="three.tosf" 
d="M297 289c93 -10 189 -76 189 -203c0 -136 -110 -219 -233 -219c-109 0 -184 64 -224 136l55 40c35 -55 85 -105 168 -105c90 0 155 60 155 148c0 85 -61 137 -169 137h-60v23l169 216h-274v71h397v-23z" />
    <glyph glyph-name="four.tosf" 
d="M514 68v-68h-88v-121h-78v121h-329v23l200 510h81l-182 -465h230v222h78v-222h88z" />
    <glyph glyph-name="five.tosf" 
d="M279 291c117 0 225 -65 225 -204c0 -137 -109 -220 -232 -220c-113 0 -188 64 -228 136l53 40c36 -55 88 -105 174 -105c88 0 155 60 155 149c0 86 -62 137 -170 137h-148v309h361v-71h-284v-179c29 5 58 8 94 8z" />
    <glyph glyph-name="six.tosf" 
d="M291 427c116 0 214 -93 214 -216c0 -126 -101 -222 -225 -222s-225 95 -225 223c0 85 44 140 92 210l164 238h91l-167 -242c16 6 35 9 56 9zM280 60c84 0 147 65 147 151c0 84 -63 150 -147 150s-147 -66 -147 -150c0 -86 63 -151 147 -151z" />
    <glyph glyph-name="seven.tosf" 
d="M67 533h441v-23l-332 -631h-83l310 583h-336v71z" />
    <glyph glyph-name="eight.tosf" 
d="M355 346c80 -30 156 -81 156 -178c0 -106 -91 -179 -231 -179s-231 73 -231 180c0 90 67 145 155 177c-74 34 -124 83 -124 161c0 106 88 164 200 164c111 0 200 -58 200 -164c0 -73 -42 -125 -125 -161zM157 504c0 -60 47 -91 123 -122c73 30 123 61 123 122
c0 63 -51 100 -123 100c-70 0 -123 -36 -123 -100zM280 56c101 0 153 48 153 115c0 75 -65 106 -153 138c-85 -30 -152 -63 -152 -138c0 -67 51 -115 152 -115z" />
    <glyph glyph-name="nine.tosf" 
d="M280 544c124 0 225 -95 225 -222c0 -83 -38 -131 -92 -210l-160 -233h-92l165 237c-17 -6 -35 -9 -56 -9c-117 0 -215 93 -215 215c0 127 101 222 225 222zM280 172c84 0 147 66 147 151c0 86 -63 151 -147 151s-147 -65 -147 -151c0 -85 63 -151 147 -151z" />
    <glyph glyph-name="zero.tosf.zero" 
d="M280 544c144 0 251 -119 251 -278c0 -158 -107 -277 -252 -277c-144 0 -250 119 -250 277c0 159 106 278 251 278zM280 477c-108 0 -176 -89 -176 -211c0 -41 8 -79 22 -111l273 273c-29 31 -70 49 -119 49zM280 55c108 0 176 90 176 211c0 41 -8 79 -22 111l-273 -274
c30 -30 70 -48 119 -48z" />
    <glyph glyph-name="zero.zero" horiz-adv-x="615" 
d="M308 671c167 0 241 -143 241 -335c0 -188 -71 -347 -241 -347c-171 0 -242 159 -242 347c0 192 75 335 242 335zM308 599c-117 0 -161 -108 -161 -264c0 -41 3 -79 10 -113l284 284c-24 58 -67 93 -133 93zM308 61c117 0 160 117 160 274c0 37 -2 72 -8 103l-283 -284
c25 -58 67 -93 131 -93z" />
    <glyph glyph-name="uni2080" unicode="&#x2080;" horiz-adv-x="410" 
d="M205 -127c-107 0 -156 99 -156 219s49 211 156 211c108 0 155 -91 155 -211s-46 -219 -155 -219zM205 -67c64 0 89 65 89 158c0 92 -25 151 -89 151c-63 0 -88 -59 -88 -151c0 -93 26 -158 88 -158z" />
    <glyph glyph-name="uni2081" unicode="&#x2081;" horiz-adv-x="353" 
d="M47 -120v60h105v296h-100v60h167v-356h90v-60h-262z" />
    <glyph glyph-name="uni2082" unicode="&#x2082;" horiz-adv-x="369" 
d="M155 -60h174v-60h-294v15l148 159c35 37 64 70 64 115c0 40 -26 73 -69 73c-44 0 -71 -32 -71 -76c0 -9 1 -20 2 -32h-65c-3 12 -4 26 -4 36c0 67 52 133 138 133c79 0 136 -55 136 -129c0 -62 -40 -108 -89 -160z" />
    <glyph glyph-name="uni2083" unicode="&#x2083;" horiz-adv-x="354" 
d="M205 142c51 -10 109 -50 109 -128c0 -86 -69 -141 -150 -141c-70 0 -119 40 -145 90l46 33c22 -36 52 -62 97 -62c49 0 84 31 84 80c0 46 -33 73 -95 73h-41v18l97 131h-159v60h257v-19z" />
    <glyph glyph-name="uni2084" unicode="&#x2084;" horiz-adv-x="356" 
d="M340 8v-55h-56v-73h-61v73h-207v18l130 325h67l-116 -288h126v130h61v-130h56z" />
    <glyph glyph-name="uni2085" unicode="&#x2085;" horiz-adv-x="367" 
d="M182 144c77 0 145 -42 145 -128c0 -88 -70 -143 -153 -143c-70 0 -120 40 -145 90l46 33c21 -36 52 -62 98 -62c50 0 86 31 86 79s-33 74 -96 74h-94v209h237v-60h-173v-97c17 3 34 5 49 5z" />
    <glyph glyph-name="uni2086" unicode="&#x2086;" horiz-adv-x="368" 
d="M195 155c69 0 135 -59 135 -139c0 -82 -67 -143 -147 -143c-79 0 -145 60 -145 145c0 52 26 88 56 131l103 147h78l-99 -143c6 1 12 2 19 2zM183 -66c46 0 80 34 80 82c0 47 -34 84 -80 84c-45 0 -79 -37 -79 -84c0 -48 34 -82 79 -82z" />
    <glyph glyph-name="uni2087" unicode="&#x2087;" horiz-adv-x="326" 
d="M26 296h281v-19l-198 -397h-72l181 356h-192v60z" />
    <glyph glyph-name="uni2088" unicode="&#x2088;" horiz-adv-x="382" 
d="M251 96c50 -19 89 -52 89 -108c0 -70 -61 -115 -150 -115c-88 0 -148 45 -148 116c0 54 37 87 89 107c-43 22 -70 54 -70 101c0 68 57 106 129 106c74 0 131 -38 131 -107c0 -46 -25 -77 -70 -100zM190 250c-38 0 -68 -21 -68 -57c0 -34 27 -51 69 -69c41 18 69 36 69 69
c0 36 -30 57 -70 57zM190 -73c55 0 85 27 85 64c0 42 -37 61 -85 77c-47 -16 -83 -35 -83 -77c0 -37 29 -64 83 -64z" />
    <glyph glyph-name="uni2089" unicode="&#x2089;" horiz-adv-x="368" 
d="M185 303c79 0 145 -60 145 -145c0 -54 -27 -89 -57 -131l-103 -147h-77l100 143c-7 -1 -13 -2 -20 -2c-69 0 -135 59 -135 139c0 82 67 143 147 143zM185 76c45 0 79 37 79 84c0 48 -34 82 -79 82c-46 0 -80 -34 -80 -82c0 -47 34 -84 80 -84z" />
    <glyph glyph-name="zero.dnom" horiz-adv-x="410" 
d="M205 -7c-107 0 -156 99 -156 219s49 211 156 211c108 0 155 -91 155 -211s-46 -219 -155 -219zM205 53c64 0 89 66 89 158c0 93 -25 151 -89 151c-63 0 -88 -58 -88 -151c0 -92 26 -158 88 -158z" />
    <glyph glyph-name="one.dnom" horiz-adv-x="353" 
d="M47 0v60h105v296h-100v60h167v-356h90v-60h-262z" />
    <glyph glyph-name="two.dnom" horiz-adv-x="369" 
d="M154 60h175v-60h-294v15l148 159c35 37 64 70 64 115c0 40 -26 73 -69 73c-44 0 -71 -32 -71 -76c0 -9 1 -20 2 -32h-65c-3 12 -4 26 -4 36c0 67 52 133 138 133c79 0 136 -55 136 -129c0 -62 -40 -108 -89 -159z" />
    <glyph glyph-name="three.dnom" horiz-adv-x="354" 
d="M205 262c51 -10 109 -50 109 -128c0 -86 -69 -141 -150 -141c-70 0 -119 40 -145 90l46 33c22 -36 52 -62 97 -62c49 0 84 31 84 80c0 46 -33 73 -95 73h-41v18l97 131h-159v60h257v-19z" />
    <glyph glyph-name="four.dnom" horiz-adv-x="356" 
d="M340 128v-55h-56v-73h-61v73h-207v18l130 325h67l-116 -288h126v130h61v-130h56z" />
    <glyph glyph-name="five.dnom" horiz-adv-x="367" 
d="M182 264c77 0 145 -42 145 -128c0 -88 -70 -143 -153 -143c-70 0 -120 40 -145 90l46 33c21 -36 52 -62 98 -62c50 0 86 31 86 79s-33 74 -96 74h-94v209h237v-60h-173v-97c17 3 34 5 49 5z" />
    <glyph glyph-name="six.dnom" horiz-adv-x="368" 
d="M195 275c69 0 135 -59 135 -139c0 -82 -67 -143 -147 -143c-79 0 -145 60 -145 145c0 52 26 88 56 131l103 147h78l-99 -143c6 1 12 2 19 2zM183 54c46 0 80 34 80 82c0 47 -34 84 -80 84c-45 0 -79 -37 -79 -84c0 -48 34 -82 79 -82z" />
    <glyph glyph-name="seven.dnom" horiz-adv-x="326" 
d="M26 416h281v-19l-198 -397h-72l181 356h-192v60z" />
    <glyph glyph-name="eight.dnom" horiz-adv-x="382" 
d="M251 216c50 -19 89 -52 89 -108c0 -70 -61 -115 -150 -115c-88 0 -148 45 -148 116c0 54 37 87 89 107c-43 22 -70 54 -70 101c0 68 57 106 129 106c74 0 131 -38 131 -107c0 -46 -25 -77 -70 -100zM190 370c-38 0 -68 -21 -68 -57c0 -34 27 -51 69 -69
c41 18 69 36 69 69c0 36 -30 57 -70 57zM190 47c55 0 85 27 85 64c0 42 -37 61 -85 78c-47 -17 -83 -36 -83 -78c0 -37 29 -64 83 -64z" />
    <glyph glyph-name="nine.dnom" horiz-adv-x="368" 
d="M185 423c79 0 145 -60 145 -145c0 -53 -27 -89 -57 -131l-103 -147h-77l100 143c-7 -1 -13 -2 -20 -2c-69 0 -135 59 -135 139c0 82 67 143 147 143zM185 196c45 0 79 37 79 84c0 48 -34 82 -79 82c-46 0 -80 -34 -80 -82c0 -47 34 -84 80 -84z" />
    <glyph glyph-name="zero.numr" horiz-adv-x="410" 
d="M205 237c-107 0 -156 99 -156 219s49 211 156 211c108 0 155 -91 155 -211s-46 -219 -155 -219zM205 297c64 0 89 66 89 158c0 93 -25 151 -89 151c-63 0 -88 -58 -88 -151c0 -92 26 -158 88 -158z" />
    <glyph glyph-name="one.numr" horiz-adv-x="353" 
d="M47 244v60h105v296h-100v60h167v-356h90v-60h-262z" />
    <glyph glyph-name="two.numr" horiz-adv-x="369" 
d="M154 304h175v-60h-294v15l148 159c35 37 64 70 64 115c0 40 -26 73 -69 73c-44 0 -71 -32 -71 -76c0 -9 1 -20 2 -32h-65c-3 12 -4 26 -4 36c0 67 52 133 138 133c79 0 136 -55 136 -129c0 -62 -40 -108 -89 -159z" />
    <glyph glyph-name="three.numr" horiz-adv-x="354" 
d="M205 506c51 -10 109 -50 109 -128c0 -86 -69 -141 -150 -141c-70 0 -119 40 -145 90l46 33c22 -36 52 -62 97 -62c49 0 84 31 84 80c0 46 -33 73 -95 73h-41v18l97 131h-159v60h257v-19z" />
    <glyph glyph-name="four.numr" horiz-adv-x="356" 
d="M340 372v-55h-56v-73h-61v73h-207v18l130 325h67l-116 -288h126v130h61v-130h56z" />
    <glyph glyph-name="five.numr" horiz-adv-x="367" 
d="M182 508c77 0 145 -42 145 -128c0 -88 -70 -143 -153 -143c-70 0 -120 40 -145 90l46 33c21 -36 52 -62 98 -62c50 0 86 31 86 79s-33 74 -96 74h-94v209h237v-60h-173v-97c17 3 34 5 49 5z" />
    <glyph glyph-name="six.numr" horiz-adv-x="368" 
d="M195 519c69 0 135 -59 135 -139c0 -82 -67 -143 -147 -143c-79 0 -145 60 -145 145c0 52 26 88 56 131l103 147h78l-99 -143c6 1 12 2 19 2zM183 298c46 0 80 34 80 82c0 47 -34 84 -80 84c-45 0 -79 -37 -79 -84c0 -48 34 -82 79 -82z" />
    <glyph glyph-name="seven.numr" horiz-adv-x="326" 
d="M26 660h281v-19l-198 -397h-72l181 356h-192v60z" />
    <glyph glyph-name="eight.numr" horiz-adv-x="382" 
d="M251 460c50 -19 89 -52 89 -108c0 -70 -61 -115 -150 -115c-88 0 -148 45 -148 116c0 54 37 87 89 107c-43 22 -70 54 -70 101c0 68 57 106 129 106c74 0 131 -38 131 -107c0 -46 -25 -77 -70 -100zM190 614c-38 0 -68 -21 -68 -57c0 -34 27 -51 69 -69
c41 18 69 36 69 69c0 36 -30 57 -70 57zM190 291c55 0 85 27 85 64c0 42 -37 61 -85 78c-47 -17 -83 -36 -83 -78c0 -37 29 -64 83 -64z" />
    <glyph glyph-name="nine.numr" horiz-adv-x="368" 
d="M185 667c79 0 145 -60 145 -145c0 -53 -27 -89 -57 -131l-103 -147h-77l100 143c-7 -1 -13 -2 -20 -2c-69 0 -135 59 -135 139c0 82 67 143 147 143zM185 440c45 0 79 37 79 84c0 48 -34 82 -79 82c-46 0 -80 -34 -80 -82c0 -47 34 -84 80 -84z" />
    <glyph glyph-name="uni2070" unicode="&#x2070;" horiz-adv-x="410" 
d="M205 357c-107 0 -156 99 -156 219s49 211 156 211c108 0 155 -91 155 -211s-46 -219 -155 -219zM205 417c64 0 89 66 89 158c0 93 -25 151 -89 151c-63 0 -88 -58 -88 -151c0 -92 26 -158 88 -158z" />
    <glyph glyph-name="uni00B9" unicode="&#xb9;" horiz-adv-x="353" 
d="M47 364v60h105v296h-100v60h167v-356h90v-60h-262z" />
    <glyph glyph-name="uni00B2" unicode="&#xb2;" horiz-adv-x="369" 
d="M154 424h175v-60h-294v15l148 159c35 37 64 70 64 115c0 40 -26 73 -69 73c-44 0 -71 -32 -71 -76c0 -9 1 -20 2 -32h-65c-3 12 -4 26 -4 36c0 67 52 133 138 133c79 0 136 -55 136 -129c0 -62 -40 -108 -89 -159z" />
    <glyph glyph-name="uni00B3" unicode="&#xb3;" horiz-adv-x="354" 
d="M205 626c51 -10 109 -50 109 -128c0 -86 -69 -141 -150 -141c-70 0 -119 40 -145 90l46 33c22 -36 52 -62 97 -62c49 0 84 31 84 80c0 46 -33 73 -95 73h-41v18l97 131h-159v60h257v-19z" />
    <glyph glyph-name="uni2074" unicode="&#x2074;" horiz-adv-x="356" 
d="M340 492v-55h-56v-73h-61v73h-207v18l130 325h67l-116 -288h126v130h61v-130h56z" />
    <glyph glyph-name="uni2075" unicode="&#x2075;" horiz-adv-x="367" 
d="M182 628c77 0 145 -42 145 -128c0 -88 -70 -143 -153 -143c-70 0 -120 40 -145 90l46 33c21 -36 52 -62 98 -62c50 0 86 31 86 79s-33 74 -96 74h-94v209h237v-60h-173v-97c17 3 34 5 49 5z" />
    <glyph glyph-name="uni2076" unicode="&#x2076;" horiz-adv-x="368" 
d="M195 639c69 0 135 -59 135 -139c0 -82 -67 -143 -147 -143c-79 0 -145 60 -145 145c0 52 26 88 56 131l103 147h78l-99 -143c6 1 12 2 19 2zM183 418c46 0 80 34 80 82c0 47 -34 84 -80 84c-45 0 -79 -37 -79 -84c0 -48 34 -82 79 -82z" />
    <glyph glyph-name="uni2077" unicode="&#x2077;" horiz-adv-x="326" 
d="M26 780h281v-19l-198 -397h-72l181 356h-192v60z" />
    <glyph glyph-name="uni2078" unicode="&#x2078;" horiz-adv-x="382" 
d="M251 580c50 -19 89 -52 89 -108c0 -70 -61 -115 -150 -115c-88 0 -148 45 -148 116c0 54 37 87 89 107c-43 22 -70 54 -70 101c0 68 57 106 129 106c74 0 131 -38 131 -107c0 -46 -25 -77 -70 -100zM190 734c-38 0 -68 -21 -68 -57c0 -34 27 -51 69 -69
c41 18 69 36 69 69c0 36 -30 57 -70 57zM190 411c55 0 85 27 85 64c0 42 -37 61 -85 78c-47 -17 -83 -36 -83 -78c0 -37 29 -64 83 -64z" />
    <glyph glyph-name="uni2079" unicode="&#x2079;" horiz-adv-x="368" 
d="M185 787c79 0 145 -60 145 -145c0 -53 -27 -89 -57 -131l-103 -147h-77l100 143c-7 -1 -13 -2 -20 -2c-69 0 -135 59 -135 139c0 82 67 143 147 143zM185 560c45 0 79 37 79 84c0 48 -34 82 -79 82c-46 0 -80 -34 -80 -82c0 -47 34 -84 80 -84z" />
    <glyph glyph-name="fraction" unicode="&#x2044;" horiz-adv-x="238" 
d="M-105 0l378 660h69l-378 -660h-69z" />
    <glyph glyph-name="onehalf" unicode="&#xbd;" horiz-adv-x="924" 
d="M309 304v-60h-262v60h105v296h-100v60h167v-356h90zM626 660h69l-378 -660h-68zM709 60h175v-60h-294v15l148 159c35 37 64 70 64 115c0 40 -26 73 -69 73c-44 0 -71 -32 -71 -76c0 -9 1 -20 2 -32h-65c-3 12 -4 26 -4 36c0 67 52 133 138 133c79 0 136 -55 136 -129
c0 -62 -40 -108 -89 -159z" />
    <glyph glyph-name="uni2153" unicode="&#x2153;" horiz-adv-x="944" 
d="M309 304v-60h-262v60h105v296h-100v60h167v-356h90zM626 660h69l-378 -660h-68zM795 262c51 -10 109 -50 109 -128c0 -86 -69 -141 -150 -141c-70 0 -119 40 -145 90l46 33c22 -36 52 -62 97 -62c49 0 84 31 84 80c0 46 -33 73 -95 73h-41v18l97 131h-159v60h257v-19z
" />
    <glyph glyph-name="uni2154" unicode="&#x2154;" horiz-adv-x="960" 
d="M329 304v-60h-294v15l148 159c35 37 64 70 64 115c0 40 -26 73 -69 73c-44 0 -71 -32 -71 -76c0 -9 1 -20 2 -32h-65c-3 12 -4 26 -4 36c0 67 52 133 138 133c79 0 136 -55 136 -129c0 -62 -40 -108 -89 -159l-71 -75h175zM642 660h69l-378 -660h-68zM811 262
c51 -10 109 -50 109 -128c0 -86 -69 -141 -150 -141c-70 0 -119 40 -145 90l46 33c22 -36 52 -62 97 -62c49 0 84 31 84 80c0 46 -33 73 -95 73h-41v18l97 131h-159v60h257v-19z" />
    <glyph glyph-name="onequarter" unicode="&#xbc;" horiz-adv-x="886" 
d="M309 304v-60h-262v60h105v296h-100v60h167v-356h90zM626 660h69l-378 -660h-68zM870 128v-55h-56v-73h-61v73h-207v18l130 325h67l-116 -288h126v130h61v-130h56z" />
    <glyph glyph-name="threequarters" unicode="&#xbe;" horiz-adv-x="852" 
d="M314 378c0 -86 -69 -141 -150 -141c-70 0 -119 40 -145 90l46 33c22 -36 52 -62 97 -62c49 0 84 31 84 80c0 46 -33 73 -95 73h-41v18l97 131h-159v60h257v-19l-100 -135c51 -10 109 -50 109 -128zM592 660h69l-378 -660h-68zM836 128v-55h-56v-73h-61v73h-207v18
l130 325h67l-116 -288h126v130h61v-130h56z" />
    <glyph glyph-name="uni2155" unicode="&#x2155;" horiz-adv-x="949" 
d="M309 304v-60h-262v60h105v296h-100v60h167v-356h90zM626 660h69l-378 -660h-68zM764 264c77 0 145 -42 145 -128c0 -88 -70 -143 -153 -143c-70 0 -120 40 -145 90l46 33c21 -36 52 -62 98 -62c50 0 86 31 86 79s-33 74 -96 74h-94v209h237v-60h-173v-97c17 3 34 5 49 5z
" />
    <glyph glyph-name="uni2156" unicode="&#x2156;" horiz-adv-x="965" 
d="M329 304v-60h-294v15l148 159c35 37 64 70 64 115c0 40 -26 73 -69 73c-44 0 -71 -32 -71 -76c0 -9 1 -20 2 -32h-65c-3 12 -4 26 -4 36c0 67 52 133 138 133c79 0 136 -55 136 -129c0 -62 -40 -108 -89 -159l-71 -75h175zM642 660h69l-378 -660h-68zM780 264
c77 0 145 -42 145 -128c0 -88 -70 -143 -153 -143c-70 0 -120 40 -145 90l46 33c21 -36 52 -62 98 -62c50 0 86 31 86 79s-33 74 -96 74h-94v209h237v-60h-173v-97c17 3 34 5 49 5z" />
    <glyph glyph-name="uni2157" unicode="&#x2157;" horiz-adv-x="915" 
d="M314 378c0 -86 -69 -141 -150 -141c-70 0 -119 40 -145 90l46 33c22 -36 52 -62 97 -62c49 0 84 31 84 80c0 46 -33 73 -95 73h-41v18l97 131h-159v60h257v-19l-100 -135c51 -10 109 -50 109 -128zM592 660h69l-378 -660h-68zM730 264c77 0 145 -42 145 -128
c0 -88 -70 -143 -153 -143c-70 0 -120 40 -145 90l46 33c21 -36 52 -62 98 -62c50 0 86 31 86 79s-33 74 -96 74h-94v209h237v-60h-173v-97c17 3 34 5 49 5z" />
    <glyph glyph-name="uni2158" unicode="&#x2158;" horiz-adv-x="963" 
d="M284 244h-61v73h-207v18l130 325h67l-116 -288h126v130h61v-130h56v-55h-56v-73zM639 660h69l-378 -660h-68zM778 264c77 0 145 -42 145 -128c0 -88 -70 -143 -153 -143c-70 0 -120 40 -145 90l46 33c21 -36 52 -62 98 -62c50 0 86 31 86 79s-33 74 -96 74h-94v209h237
v-60h-173v-97c17 3 34 5 49 5z" />
    <glyph glyph-name="uni2159" unicode="&#x2159;" horiz-adv-x="878" 
d="M309 304v-60h-262v60h105v296h-100v60h167v-356h90zM626 660h69l-378 -660h-68zM705 275c69 0 135 -59 135 -139c0 -82 -67 -143 -147 -143c-79 0 -145 60 -145 145c0 52 26 88 56 131l103 147h78l-99 -143c6 1 12 2 19 2zM693 54c46 0 80 34 80 82c0 47 -34 84 -80 84
c-45 0 -79 -37 -79 -84c0 -48 34 -82 79 -82z" />
    <glyph glyph-name="uni215A" unicode="&#x215a;" horiz-adv-x="857" 
d="M327 380c0 -88 -70 -143 -153 -143c-70 0 -120 40 -145 90l46 33c21 -36 52 -62 98 -62c50 0 86 31 86 79s-33 74 -96 74h-94v209h237v-60h-173v-97c17 3 34 5 49 5c77 0 145 -42 145 -128zM605 660h69l-378 -660h-68zM684 275c69 0 135 -59 135 -139
c0 -82 -67 -143 -147 -143c-79 0 -145 60 -145 145c0 52 26 88 56 131l103 147h78l-99 -143c6 1 12 2 19 2zM672 54c46 0 80 34 80 82c0 47 -34 84 -80 84c-45 0 -79 -37 -79 -84c0 -48 34 -82 79 -82z" />
    <glyph glyph-name="uni2150" unicode="&#x2150;" horiz-adv-x="916" 
d="M309 304v-60h-262v60h105v296h-100v60h167v-356h90zM626 660h69l-378 -660h-68zM616 416h281v-19l-198 -397h-72l181 356h-192v60z" />
    <glyph glyph-name="oneeighth" unicode="&#x215b;" horiz-adv-x="927" 
d="M309 304v-60h-262v60h105v296h-100v60h167v-356h90zM626 660h69l-378 -660h-68zM796 216c50 -19 89 -52 89 -108c0 -70 -61 -115 -150 -115c-88 0 -148 45 -148 116c0 54 37 87 89 107c-43 22 -70 54 -70 101c0 68 57 106 129 106c74 0 131 -38 131 -107
c0 -46 -25 -77 -70 -100zM735 370c-38 0 -68 -21 -68 -57c0 -34 27 -51 69 -69c41 18 69 36 69 69c0 36 -30 57 -70 57zM735 47c55 0 85 27 85 64c0 42 -37 61 -85 78c-47 -17 -83 -36 -83 -78c0 -37 29 -64 83 -64z" />
    <glyph glyph-name="threeeighths" unicode="&#x215c;" horiz-adv-x="893" 
d="M314 378c0 -86 -69 -141 -150 -141c-70 0 -119 40 -145 90l46 33c22 -36 52 -62 97 -62c49 0 84 31 84 80c0 46 -33 73 -95 73h-41v18l97 131h-159v60h257v-19l-100 -135c51 -10 109 -50 109 -128zM592 660h69l-378 -660h-68zM762 216c50 -19 89 -52 89 -108
c0 -70 -61 -115 -150 -115c-88 0 -148 45 -148 116c0 54 37 87 89 107c-43 22 -70 54 -70 101c0 68 57 106 129 106c74 0 131 -38 131 -107c0 -46 -25 -77 -70 -100zM701 370c-38 0 -68 -21 -68 -57c0 -34 27 -51 69 -69c41 18 69 36 69 69c0 36 -30 57 -70 57zM701 47
c55 0 85 27 85 64c0 42 -37 61 -85 78c-47 -17 -83 -36 -83 -78c0 -37 29 -64 83 -64z" />
    <glyph glyph-name="fiveeighths" unicode="&#x215d;" horiz-adv-x="906" 
d="M327 380c0 -88 -70 -143 -153 -143c-70 0 -120 40 -145 90l46 33c21 -36 52 -62 98 -62c50 0 86 31 86 79s-33 74 -96 74h-94v209h237v-60h-173v-97c17 3 34 5 49 5c77 0 145 -42 145 -128zM605 660h69l-378 -660h-68zM775 216c50 -19 89 -52 89 -108
c0 -70 -61 -115 -150 -115c-88 0 -148 45 -148 116c0 54 37 87 89 107c-43 22 -70 54 -70 101c0 68 57 106 129 106c74 0 131 -38 131 -107c0 -46 -25 -77 -70 -100zM714 370c-38 0 -68 -21 -68 -57c0 -34 27 -51 69 -69c41 18 69 36 69 69c0 36 -30 57 -70 57zM714 47
c55 0 85 27 85 64c0 42 -37 61 -85 78c-47 -17 -83 -36 -83 -78c0 -37 29 -64 83 -64z" />
    <glyph glyph-name="seveneighths" unicode="&#x215e;" horiz-adv-x="802" 
d="M307 660v-19l-198 -397h-72l181 356h-192v60h281zM501 660h69l-378 -660h-68zM671 216c50 -19 89 -52 89 -108c0 -70 -61 -115 -150 -115c-88 0 -148 45 -148 116c0 54 37 87 89 107c-43 22 -70 54 -70 101c0 68 57 106 129 106c74 0 131 -38 131 -107
c0 -46 -25 -77 -70 -100zM610 370c-38 0 -68 -21 -68 -57c0 -34 27 -51 69 -69c41 18 69 36 69 69c0 36 -30 57 -70 57zM610 47c55 0 85 27 85 64c0 42 -37 61 -85 78c-47 -17 -83 -36 -83 -78c0 -37 29 -64 83 -64z" />
    <glyph glyph-name="uni2151" unicode="&#x2151;" horiz-adv-x="928" 
d="M309 304v-60h-262v60h105v296h-100v60h167v-356h90zM626 660h69l-378 -660h-68zM745 423c79 0 145 -60 145 -145c0 -53 -27 -89 -57 -131l-103 -147h-77l100 143c-7 -1 -13 -2 -20 -2c-69 0 -135 59 -135 139c0 82 67 143 147 143zM745 196c45 0 79 37 79 84
c0 48 -34 82 -79 82c-46 0 -80 -34 -80 -82c0 -47 34 -84 80 -84z" />
    <glyph glyph-name="uni2152" unicode="&#x2152;" horiz-adv-x="1353" 
d="M47 244v60h105v296h-100v60h167v-356h90v-60h-262zM249 0l377 660h69l-378 -660h-68zM1148 -7c-107 0 -156 99 -156 219s49 211 156 211c108 0 155 -91 155 -211s-46 -219 -155 -219zM637 0v60h105v296h-100v60h167v-356h90v-60h-262zM1148 53c64 0 89 66 89 158
c0 93 -25 151 -89 151c-63 0 -88 -58 -88 -151c0 -92 26 -158 88 -158z" />
    <glyph glyph-name="period" unicode="." horiz-adv-x="280" 
d="M140 -11c-34 0 -63 26 -63 63s29 63 63 63s63 -26 63 -63s-29 -63 -63 -63z" />
    <glyph glyph-name="comma" unicode="," horiz-adv-x="280" 
d="M90 -179l13 269h91l-41 -269h-63z" />
    <glyph glyph-name="colon" unicode=":" horiz-adv-x="280" 
d="M140 366c-34 0 -63 25 -63 63c0 37 29 63 63 63s63 -26 63 -63c0 -38 -29 -63 -63 -63zM140 -11c-34 0 -63 26 -63 63s29 63 63 63s63 -26 63 -63s-29 -63 -63 -63z" />
    <glyph glyph-name="semicolon" unicode=";" horiz-adv-x="280" 
d="M140 366c-34 0 -63 25 -63 63c0 37 29 63 63 63s63 -26 63 -63c0 -38 -29 -63 -63 -63zM90 -179l13 269h91l-41 -269h-63z" />
    <glyph glyph-name="ellipsis" unicode="&#x2026;" horiz-adv-x="779" 
d="M140 -11c-34 0 -63 26 -63 63s29 63 63 63s63 -26 63 -63s-29 -63 -63 -63zM390 -11c-35 0 -63 26 -63 63s28 63 63 63c34 0 63 -26 63 -63s-29 -63 -63 -63zM639 -11c-34 0 -63 26 -63 63s29 63 63 63c35 0 63 -26 63 -63s-28 -63 -63 -63z" />
    <glyph glyph-name="exclam" unicode="!" horiz-adv-x="305" 
d="M120 209l-15 451h93l-14 -451h-64zM152 -11c-34 0 -63 26 -63 63s29 63 63 63c35 0 63 -26 63 -63s-28 -63 -63 -63z" />
    <glyph glyph-name="exclamdown" unicode="&#xa1;" horiz-adv-x="305" 
d="M152 372c-34 0 -63 25 -63 63c0 37 29 63 63 63c35 0 63 -26 63 -63c0 -38 -28 -63 -63 -63zM105 -180l15 458h64l15 -458h-94z" />
    <glyph glyph-name="question" unicode="?" horiz-adv-x="445" 
d="M172 209c-6 12 -10 28 -10 44c0 50 37 85 80 123c50 47 78 74 78 123c0 60 -44 101 -98 101c-51 0 -92 -32 -112 -96l-65 27c26 89 91 140 179 140c97 0 176 -69 176 -167c0 -67 -39 -112 -95 -162c-44 -40 -71 -65 -71 -101c0 -12 3 -23 5 -32h-67zM210 -11
c-33 0 -63 26 -63 63s30 63 63 63c35 0 64 -26 64 -63s-29 -63 -64 -63z" />
    <glyph glyph-name="questiondown" unicode="&#xbf;" horiz-adv-x="444" 
d="M233 371c-34 0 -63 26 -63 64c0 37 29 63 63 63s63 -26 63 -63c0 -38 -29 -64 -63 -64zM221 -191c-97 0 -177 70 -177 169c0 71 42 117 95 165c47 42 71 67 71 102c0 13 -2 24 -4 33h67c5 -12 10 -28 10 -44c0 -51 -41 -89 -81 -125c-50 -47 -79 -80 -79 -128
c0 -59 46 -101 100 -101c51 0 91 32 112 96l64 -27c-25 -89 -91 -140 -178 -140z" />
    <glyph glyph-name="periodcentered" unicode="&#xb7;" horiz-adv-x="280" 
d="M140 251c-34 0 -63 25 -63 63c0 37 29 63 63 63s63 -26 63 -63c0 -38 -29 -63 -63 -63z" />
    <glyph glyph-name="bullet" unicode="&#x2022;" horiz-adv-x="377" 
d="M189 138c-69 0 -132 52 -132 129s63 130 132 130s131 -53 131 -130s-62 -129 -131 -129z" />
    <glyph glyph-name="asterisk" unicode="*" horiz-adv-x="410" 
d="M364 644l-94 -64l94 -64l-25 -41l-102 49l-8 -113h-48l-9 113l-102 -49l-24 41l94 64l-94 64l24 42l102 -49l9 113h48l8 -113l102 49z" />
    <glyph glyph-name="numbersign" unicode="#" horiz-adv-x="597" 
d="M569 421h-97l-24 -182h98v-66h-107l-24 -173h-65l23 173h-191l-24 -173h-65l23 173h-88v66h97l24 182h-97v66h106l23 173h67l-24 -173h191l23 173h67l-24 -173h88v-66zM191 239h191l24 182h-191z" />
    <glyph glyph-name="slash" unicode="/" horiz-adv-x="628" 
d="M7 -121l523 901h91l-523 -901h-91z" />
    <glyph glyph-name="backslash" unicode="\" horiz-adv-x="628" 
d="M530 -121l-523 901h91l523 -901h-91z" />
    <glyph glyph-name="exclamdown.case" horiz-adv-x="305" 
d="M152 545c-34 0 -63 26 -63 63s29 63 63 63c35 0 63 -26 63 -63s-28 -63 -63 -63zM105 0l15 432h64l15 -432h-94z" />
    <glyph glyph-name="questiondown.case" horiz-adv-x="445" 
d="M235 545c-35 0 -64 26 -64 63s29 63 64 63c33 0 63 -26 63 -63s-30 -63 -63 -63zM221 -11c-97 0 -177 69 -177 167c0 67 40 112 96 162c44 41 71 66 71 101c0 12 -3 23 -5 32h67c6 -12 10 -28 10 -44c0 -50 -38 -85 -80 -123c-50 -46 -79 -74 -79 -123
c0 -60 45 -101 99 -101c51 0 92 32 112 96l65 -27c-26 -89 -92 -140 -179 -140z" />
    <glyph glyph-name="periodcentered.case" horiz-adv-x="280" 
d="M140 291c-34 0 -63 26 -63 63c0 38 29 63 63 63s63 -25 63 -63c0 -37 -29 -63 -63 -63z" />
    <glyph glyph-name="bullet.case" horiz-adv-x="377" 
d="M189 178c-69 0 -132 53 -132 129c0 78 63 130 132 130s131 -52 131 -130c0 -76 -62 -129 -131 -129z" />
    <glyph glyph-name="slash.case" horiz-adv-x="603" 
d="M7 -100l499 860h91l-499 -860h-91z" />
    <glyph glyph-name="backslash.case" horiz-adv-x="604" 
d="M506 -100l-499 860h91l499 -860h-91z" />
    <glyph glyph-name="uni208D" unicode="&#x208d;" horiz-adv-x="255" 
d="M208 -242c-75 50 -150 133 -150 329c0 201 75 293 150 329l25 -40c-58 -37 -117 -113 -117 -289c0 -175 59 -252 117 -288z" />
    <glyph glyph-name="uni208E" unicode="&#x208e;" horiz-adv-x="255" 
d="M46 -242l-25 41c58 36 117 113 117 288c0 176 -59 252 -117 289l25 40c75 -36 150 -128 150 -329c0 -200 -75 -293 -150 -329z" />
    <glyph glyph-name="parenleft" unicode="(" horiz-adv-x="333" 
d="M272 -131c-96 47 -194 167 -194 432c0 266 98 386 194 433l33 -53c-74 -48 -151 -148 -151 -380c0 -231 77 -333 151 -379z" />
    <glyph glyph-name="parenright" unicode=")" horiz-adv-x="333" 
d="M62 -131l-34 53c74 46 152 148 152 379c0 232 -78 332 -152 380l34 53c96 -47 193 -167 193 -433c0 -265 -97 -385 -193 -432z" />
    <glyph glyph-name="braceleft" unicode="{" horiz-adv-x="397" 
d="M297 661c-50 0 -78 -25 -78 -84c0 -54 25 -140 25 -193c0 -46 -18 -69 -53 -85c35 -16 53 -39 53 -85c0 -53 -25 -138 -25 -193c0 -59 28 -84 78 -84h49v-68h-63c-82 0 -138 36 -138 133c0 66 26 161 26 205c0 40 -21 58 -61 58h-57v68h57c40 0 61 18 61 58
c0 44 -26 139 -26 205c0 97 55 133 138 133h63v-68h-49z" />
    <glyph glyph-name="braceright" unicode="}" horiz-adv-x="397" 
d="M287 333h57v-68h-57c-40 0 -61 -18 -61 -58c0 -44 25 -139 25 -205c0 -97 -55 -133 -137 -133h-64v68h50c50 0 78 25 78 84c0 55 -25 140 -25 193c0 46 18 69 53 85c-35 16 -53 39 -53 85c0 53 25 139 25 193c0 59 -28 84 -78 84h-50v68h64c82 0 137 -36 137 -133
c0 -66 -25 -161 -25 -205c0 -40 21 -58 61 -58z" />
    <glyph glyph-name="bracketleft" unicode="[" horiz-adv-x="343" 
d="M101 -131v860h191v-68h-116v-722h116v-70h-191z" />
    <glyph glyph-name="bracketright" unicode="]" horiz-adv-x="343" 
d="M50 -131v70h117v722h-117v68h191v-860h-191z" />
    <glyph glyph-name="uni207D" unicode="&#x207d;" horiz-adv-x="255" 
d="M208 243c-75 50 -150 133 -150 329c0 201 75 293 150 329l25 -40c-58 -37 -117 -113 -117 -289c0 -175 59 -252 117 -288z" />
    <glyph glyph-name="uni207E" unicode="&#x207e;" horiz-adv-x="255" 
d="M46 243l-25 41c58 36 117 113 117 288c0 176 -59 252 -117 289l25 40c75 -36 150 -128 150 -329c0 -200 -75 -293 -150 -329z" />
    <glyph glyph-name="parenleft.case" horiz-adv-x="333" 
d="M272 -100c-96 47 -194 167 -194 432c0 266 98 386 194 433l33 -53c-74 -48 -151 -148 -151 -380c0 -231 77 -333 151 -379z" />
    <glyph glyph-name="parenright.case" horiz-adv-x="333" 
d="M62 -100l-34 53c74 46 152 148 152 379c0 232 -78 332 -152 380l34 53c96 -47 193 -167 193 -433c0 -265 -97 -385 -193 -432z" />
    <glyph glyph-name="braceleft.case" horiz-adv-x="397" 
d="M297 692c-50 0 -78 -25 -78 -84c0 -54 25 -140 25 -193c0 -46 -18 -69 -53 -85c35 -16 53 -39 53 -85c0 -53 -25 -138 -25 -193c0 -59 28 -84 78 -84h49v-68h-63c-82 0 -138 36 -138 133c0 66 26 161 26 205c0 40 -21 58 -61 58h-57v68h57c40 0 61 18 61 58
c0 44 -26 139 -26 205c0 97 55 133 138 133h63v-68h-49z" />
    <glyph glyph-name="braceright.case" horiz-adv-x="397" 
d="M287 364h57v-68h-57c-40 0 -61 -18 -61 -58c0 -44 25 -139 25 -205c0 -97 -55 -133 -137 -133h-64v68h50c50 0 78 25 78 84c0 55 -25 140 -25 193c0 46 18 69 53 85c-35 16 -53 39 -53 85c0 53 25 139 25 193c0 59 -28 84 -78 84h-50v68h64c82 0 137 -36 137 -133
c0 -66 -25 -161 -25 -205c0 -40 21 -58 61 -58z" />
    <glyph glyph-name="bracketleft.case" horiz-adv-x="343" 
d="M101 -100v860h191v-68h-116v-722h116v-70h-191z" />
    <glyph glyph-name="bracketright.case" horiz-adv-x="343" 
d="M50 -100v70h117v722h-117v68h191v-860h-191z" />
    <glyph glyph-name="hyphen" unicode="-" horiz-adv-x="346" 
d="M53 282v65h239v-65h-239z" />
    <glyph glyph-name="uni00AD" unicode="&#xad;" horiz-adv-x="346" 
d="M53 282v65h239v-65h-239z" />
    <glyph glyph-name="endash" unicode="&#x2013;" horiz-adv-x="506" 
d="M43 282v65h419v-65h-419z" />
    <glyph glyph-name="emdash" unicode="&#x2014;" horiz-adv-x="1000" 
d="M50 282v65h900v-65h-900z" />
    <glyph glyph-name="uni2015" unicode="&#x2015;" horiz-adv-x="1000" 
d="M50 282v65h900v-65h-900z" />
    <glyph glyph-name="underscore" unicode="_" horiz-adv-x="506" 
d="M43 -140v65h419v-65h-419z" />
    <glyph glyph-name="hyphen.case" horiz-adv-x="346" 
d="M53 322v65h239v-65h-239z" />
    <glyph glyph-name="uni00AD.case" horiz-adv-x="346" 
d="M53 322v65h239v-65h-239z" />
    <glyph glyph-name="endash.case" horiz-adv-x="506" 
d="M43 322v65h419v-65h-419z" />
    <glyph glyph-name="emdash.case" horiz-adv-x="1000" 
d="M50 322v65h900v-65h-900z" />
    <glyph glyph-name="uni2015.case" horiz-adv-x="1000" 
d="M50 322v65h900v-65h-900z" />
    <glyph glyph-name="quotesinglbase" unicode="&#x201a;" horiz-adv-x="280" 
d="M94 -167l14 257h90l-43 -257h-61z" />
    <glyph glyph-name="quotedblbase" unicode="&#x201e;" horiz-adv-x="463" 
d="M94 -167l14 257h90l-43 -257h-61zM278 -167l13 257h90l-43 -257h-60z" />
    <glyph glyph-name="quotedblleft" unicode="&#x201c;" horiz-adv-x="463" 
d="M83 403l42 257h61l-13 -257h-90zM266 403l43 257h60l-13 -257h-90z" />
    <glyph glyph-name="quotedblright" unicode="&#x201d;" horiz-adv-x="463" 
d="M94 403l14 257h90l-43 -257h-61zM278 403l13 257h90l-43 -257h-60z" />
    <glyph glyph-name="quoteleft" unicode="&#x2018;" horiz-adv-x="280" 
d="M83 403l42 257h61l-13 -257h-90z" />
    <glyph glyph-name="quoteright" unicode="&#x2019;" horiz-adv-x="280" 
d="M94 403l14 257h90l-43 -257h-61z" />
    <glyph glyph-name="guillemotleft" unicode="&#xab;" horiz-adv-x="504" 
d="M216 71l-178 188v23l178 189l50 -45l-141 -155l141 -157zM414 71l-178 188v23l178 189l50 -45l-141 -155l141 -157z" />
    <glyph glyph-name="guillemotright" unicode="&#xbb;" horiz-adv-x="504" 
d="M90 71l-51 43l142 157l-142 155l51 45l177 -189v-23zM288 71l-51 43l141 157l-141 155l51 45l177 -189v-23z" />
    <glyph glyph-name="guilsinglleft" unicode="&#x2039;" horiz-adv-x="306" 
d="M216 71l-178 188v23l178 189l50 -45l-141 -155l141 -157z" />
    <glyph glyph-name="guilsinglright" unicode="&#x203a;" horiz-adv-x="306" 
d="M90 71l-51 43l142 157l-142 155l51 45l177 -189v-23z" />
    <glyph glyph-name="quotedbl" unicode="&#x22;" horiz-adv-x="463" 
d="M94 403l14 257h90l-43 -257h-61zM278 403l13 257h90l-43 -257h-60z" />
    <glyph glyph-name="quotesingle" unicode="'" horiz-adv-x="280" 
d="M94 403l14 257h90l-43 -257h-61z" />
    <glyph glyph-name="guillemotleft.case" horiz-adv-x="504" 
d="M216 111l-178 189v22l178 189l50 -45l-141 -155l141 -157zM414 111l-178 189v22l178 189l50 -45l-141 -155l141 -157z" />
    <glyph glyph-name="guillemotright.case" horiz-adv-x="504" 
d="M90 111l-51 43l142 157l-142 155l51 45l177 -189v-22zM288 111l-51 43l141 157l-141 155l51 45l177 -189v-22z" />
    <glyph glyph-name="guilsinglleft.case" horiz-adv-x="306" 
d="M216 111l-178 189v22l178 189l50 -45l-141 -155l141 -157z" />
    <glyph glyph-name="guilsinglright.case" horiz-adv-x="306" 
d="M90 111l-51 43l142 157l-142 155l51 45l177 -189v-22z" />
    <glyph glyph-name="period.subs" horiz-adv-x="210" 
d="M105 -128c-28 0 -51 21 -51 50c0 30 23 51 51 51s50 -21 50 -51c0 -29 -22 -50 -50 -50z" />
    <glyph glyph-name="comma.subs" horiz-adv-x="210" 
d="M63 -232l7 209h77l-30 -209h-54z" />
    <glyph glyph-name="period.sups" horiz-adv-x="210" 
d="M105 356c-28 0 -51 21 -51 50c0 30 23 52 51 52s50 -22 50 -52c0 -29 -22 -50 -50 -50z" />
    <glyph glyph-name="comma.sups" horiz-adv-x="210" 
d="M63 253l7 209h77l-30 -209h-54z" />
    <glyph glyph-name="anoteleia" unicode="&#x387;" horiz-adv-x="280" 
d="M140 251c-34 0 -63 25 -63 63c0 37 29 63 63 63s63 -26 63 -63c0 -38 -29 -63 -63 -63z" />
    <glyph glyph-name="space" unicode=" " horiz-adv-x="280" 
 />
    <glyph glyph-name="uni00A0" unicode="&#xa0;" horiz-adv-x="280" 
 />
    <glyph glyph-name="uni2009" unicode="&#x2009;" horiz-adv-x="140" 
 />
    <glyph glyph-name="uni20BF" unicode="&#x20bf;" horiz-adv-x="581" 
d="M528 203c0 -85 -53 -147 -135 -166v-131h-72v125h-84v-125h-71v125h-75v599h75v120h71v-120h79h5v120h72v-133c59 -23 94 -74 94 -140c0 -53 -24 -95 -64 -121c66 -25 105 -79 105 -153zM309 563h-145v-182h145c65 0 103 33 103 93c0 58 -36 89 -103 89zM330 97
c77 0 121 39 121 108c0 70 -44 110 -121 110h-166v-218h166z" />
    <glyph glyph-name="cent" unicode="&#xa2;" horiz-adv-x="554" 
d="M292 144c62 0 109 31 145 79l53 -44c-39 -57 -99 -97 -173 -105v-168h-77v172c-117 23 -204 125 -204 250s87 226 204 249v173h77v-169c75 -8 135 -48 174 -105l-53 -43c-36 48 -83 78 -146 78c-102 0 -177 -81 -177 -183c0 -103 75 -184 177 -184z" />
    <glyph glyph-name="currency" unicode="&#xa4;" horiz-adv-x="643" 
d="M554 330c0 -52 -18 -100 -48 -138l110 -110l-46 -46l-112 111c-39 -27 -86 -43 -138 -43c-50 0 -97 16 -135 42l-111 -110l-47 46l110 111c-30 37 -47 85 -47 137c0 53 18 101 47 139l-110 110l47 46l111 -111c38 26 85 42 136 42s98 -15 136 -42l112 111l47 -46
l-110 -110c30 -38 48 -86 48 -139zM320 175c89 0 155 67 155 154c0 90 -67 157 -154 157c-88 0 -152 -68 -152 -157c0 -87 64 -154 151 -154z" />
    <glyph glyph-name="dollar" unicode="$" horiz-adv-x="536" 
d="M473 186c0 -91 -71 -151 -167 -163v-117h-77v118c-85 13 -148 65 -189 137l56 40c40 -66 97 -111 176 -111c69 0 123 34 123 95c0 53 -43 79 -101 105l-71 30c-72 30 -139 74 -139 161c0 82 62 137 145 150v119h77v-117c73 -10 121 -52 154 -107l-53 -41
c-36 55 -78 80 -135 80c-51 0 -110 -22 -110 -83c0 -54 42 -75 93 -99l73 -30c86 -36 145 -84 145 -167z" />
    <glyph glyph-name="Euro" unicode="&#x20ac;" horiz-adv-x="681" 
d="M410 61c75 0 130 32 166 81l56 -45c-46 -66 -126 -108 -225 -108c-148 0 -255 93 -294 228h-108v68h95c-1 15 -2 30 -2 45c0 14 1 28 2 41h-93v68h105c37 137 146 232 295 232c99 0 179 -42 225 -108l-56 -45c-36 49 -91 81 -166 81c-108 0 -183 -64 -215 -160h292
l-16 -68h-290c-1 -13 -2 -27 -2 -41c0 -15 1 -30 3 -45h263l-17 -68h-231c32 -94 107 -156 213 -156z" />
    <glyph glyph-name="florin" unicode="&#x192;" horiz-adv-x="443" 
d="M379 671c23 0 42 -3 58 -8v-64c-17 1 -31 2 -44 2c-61 0 -95 -22 -104 -93l-13 -109h104v-69h-113l-37 -306c-14 -113 -77 -157 -166 -157c-23 0 -42 3 -59 7v65c17 -2 32 -3 44 -3c62 0 96 24 105 94l37 300h-98v69h106l14 114c14 110 74 158 166 158z" />
    <glyph glyph-name="uni20B4" unicode="&#x20b4;" horiz-adv-x="542" 
d="M443 433h78v-64h-497v64h331c19 19 28 41 28 68c0 58 -46 98 -115 98c-55 0 -106 -28 -143 -81l-55 41c40 71 113 112 200 112c114 0 193 -69 193 -168c0 -28 -6 -49 -20 -70zM22 222v64h499v-64h-357c-10 -15 -14 -32 -14 -52c0 -65 49 -109 125 -109
c72 0 137 39 183 110l57 -40c-48 -88 -139 -142 -241 -142c-120 0 -205 75 -205 181c0 19 3 36 8 52h-55z" />
    <glyph glyph-name="lira" unicode="&#x20a4;" horiz-adv-x="529" 
d="M264 173c-7 -41 -27 -78 -56 -105h276v-68h-427v20c63 40 114 89 129 153h-119v68h120c-5 30 -16 57 -30 83h-90v68h55c-14 31 -25 65 -25 104c0 105 81 175 191 175c101 0 175 -58 204 -163l-69 -26c-23 73 -63 117 -131 117c-74 0 -115 -52 -115 -115
c0 -33 11 -63 26 -92h192v-68h-156c12 -25 23 -52 27 -83h129v-68h-131z" />
    <glyph glyph-name="uni20BA" unicode="&#x20ba;" horiz-adv-x="518" 
d="M474 290c6 -21 9 -42 9 -65c0 -146 -124 -236 -323 -236h-38v250l-97 -45v73l97 45v88l-97 -44v74l97 44v186h78v-157l188 86v-73l-188 -86v-88l188 86v-73l-188 -86v-207c126 9 213 76 213 169c0 15 -2 39 -5 59h66z" />
    <glyph glyph-name="peseta" unicode="&#x20a7;" horiz-adv-x="590" 
d="M591 489v-68h-83c-15 -99 -99 -168 -222 -168h-102v-253h-78v421h-82v68h82v171h180c124 0 208 -70 223 -171h82zM285 590h-101v-102h243c-12 65 -62 102 -142 102zM285 323c79 0 129 36 142 99h-243v-99h101z" />
    <glyph glyph-name="uni20BD" unicode="&#x20bd;" horiz-adv-x="576" 
d="M106 0v134h-82v68h82v93h-82v68h82v297h222c123 0 201 -74 201 -183c0 -108 -79 -182 -201 -182h-144v-93h265v-68h-265v-134h-78zM184 363h142c82 0 127 46 127 113c0 68 -45 116 -127 116h-142v-229z" />
    <glyph glyph-name="uni20B9" unicode="&#x20b9;" horiz-adv-x="513" 
d="M439 660v-68h-119c21 -21 35 -49 41 -81h78v-68h-76c-11 -100 -88 -164 -209 -166l285 -277h-98l-286 277v68h91c80 0 126 37 136 98h-229v68h225c-14 51 -59 81 -132 81h-91v68h384z" />
    <glyph glyph-name="sterling" unicode="&#xa3;" horiz-adv-x="529" 
d="M268 212c0 -56 -22 -108 -60 -144h276v-68h-427v20c75 47 133 108 133 191c0 11 -1 22 -3 33h-120v68h96c-27 57 -66 110 -66 184c0 105 81 175 191 175c101 0 175 -58 204 -163l-69 -26c-23 73 -63 117 -131 117c-74 0 -115 -52 -115 -115s41 -112 68 -172h159v-68h-138
c1 -10 2 -21 2 -32z" />
    <glyph glyph-name="uni20B8" unicode="&#x20b8;" horiz-adv-x="581" 
d="M19 590v70h543v-70h-543zM251 0v434h-232v70h543v-70h-233v-434h-78z" />
    <glyph glyph-name="uni20AE" unicode="&#x20ae;" horiz-adv-x="581" 
d="M562 590h-233v-184l183 69v-73l-183 -69v-88l183 68v-73l-183 -69v-171h-78v147l-181 -69v74l181 68v89l-181 -68v73l181 68v208h-232v70h543v-70z" />
    <glyph glyph-name="yen" unicode="&#xa5;" horiz-adv-x="552" 
d="M544 660l-210 -300h177v-68h-195v-92h195v-69h-195v-131h-78v131h-194v69h194v92h-194v68h175l-210 300h88l180 -259l180 259h87z" />
    <glyph glyph-name="uni20BF.tf" 
d="M523 203c0 -85 -53 -147 -135 -166v-131h-72v125h-84v-125h-71v125h-75v599h75v120h71v-120h79h5v120h72v-133c59 -23 94 -74 94 -140c0 -53 -24 -95 -64 -121c66 -25 105 -79 105 -153zM304 563h-145v-182h145c65 0 103 33 103 93c0 58 -36 89 -103 89zM325 97
c77 0 121 39 121 108c0 70 -44 110 -121 110h-166v-218h166z" />
    <glyph glyph-name="cent.tf" 
d="M308 144c62 0 109 31 145 79l54 -44c-39 -57 -99 -97 -174 -105v-168h-77v172c-117 23 -204 125 -204 250s87 226 204 249v173h77v-169c76 -8 136 -47 175 -105l-54 -43c-36 48 -83 78 -146 78c-102 0 -177 -81 -177 -183c0 -103 75 -184 177 -184z" />
    <glyph glyph-name="currency.tf" 
d="M472 333c0 -41 -14 -78 -37 -108l79 -80l-45 -45l-81 81c-31 -19 -68 -30 -107 -30s-75 11 -105 30l-83 -81l-46 46l80 80c-22 30 -35 66 -35 106c0 41 13 78 36 108l-81 79l47 46l82 -82c30 19 67 30 106 30s75 -11 105 -29l81 81l46 -46l-78 -79c22 -30 36 -67 36 -107
zM282 222c65 0 111 46 111 110s-47 110 -111 110c-65 0 -111 -47 -111 -110s45 -110 111 -110z" />
    <glyph glyph-name="dollar.tf" 
d="M481 186c0 -91 -71 -151 -167 -163v-117h-77v118c-85 13 -148 65 -189 137l56 40c40 -66 97 -111 176 -111c69 0 123 34 123 95c0 53 -43 79 -101 105l-71 30c-72 30 -139 74 -139 161c0 82 63 136 145 150v119h77v-117c73 -10 122 -52 155 -107l-54 -41
c-36 55 -77 80 -135 80c-51 0 -110 -22 -110 -83c0 -54 42 -75 93 -99l73 -30c86 -36 145 -84 145 -167z" />
    <glyph glyph-name="Euro.tf" 
d="M522 84l20 -65c-41 -20 -87 -30 -136 -30c-151 0 -259 93 -297 228h-97v68h84c-1 15 -2 30 -2 45c0 14 1 28 2 41h-82v68h94c37 137 145 232 297 232c49 0 94 -10 135 -29l-19 -66c-35 14 -71 23 -112 23c-110 0 -186 -64 -218 -160h293l-17 -68h-291
c-1 -13 -2 -27 -2 -41c0 -15 1 -30 3 -45h265l-18 -68h-232c33 -94 108 -156 217 -156c41 0 78 9 113 23z" />
    <glyph glyph-name="florin.tf" 
d="M442 601c-69 0 -106 -22 -115 -93l-14 -109h134v-69h-142l-39 -306c-14 -108 -74 -157 -176 -157c-25 0 -48 3 -68 7v65c21 -2 39 -3 53 -3c68 0 106 24 115 94l37 300h-107v69h116l14 114c14 108 75 158 177 158c25 0 49 -3 68 -8v-64c-21 1 -39 2 -53 2z" />
    </font>
</defs>
</svg>
